SplineFontDB: 1.0
FontName: DejaVuSans
FullName: DejaVu Sans
FamilyName: DejaVu Sans
Weight: Book
Copyright: Copyright (c) 2003 by Bitstream, Inc. All Rights Reserved.\nDejaVu changes are in public domain\n
Version: 2.2
ItalicAngle: 0
UnderlinePosition: -213
UnderlineWidth: 143
Ascent: 1556
Descent: 492
Order2: 1
NeedsXUIDChange: 1
FSType: 0
PfmFamily: 17
TTFWeight: 400
TTFWidth: 5
LineGap: 0
VLineGap: 0
Panose: 2 11 6 3 3 8 4 2 2 4
OS2TypoAscent: 1556
OS2TypoAOffset: 0
OS2TypoDescent: -492
OS2TypoDOffset: 0
OS2TypoLinegap: 410
OS2WinAscent: 1901
OS2WinAOffset: 0
OS2WinDescent: 483
OS2WinDOffset: 0
HheadAscent: 1901
HheadAOffset: 0
HheadDescent: -483
HheadDOffset: 0
OS2Vendor: 'PfEd'
ScriptLang: 3
 3 cyrl 1 dflt grek 1 dflt latn 1 dflt 
 1 DFLT 1 dflt 
 1 latn 1 dflt 
ChainSub: class 0 0 'ccmp' 4 4 4 2
  Class: 3 i j
  Class: 181 gravecomb acutecomb uni0302 tildecomb uni0304 uni0305 uni0306 uni0307 uni0308 uni030A uni030B uni030C uni030D uni030E uni030F uni0310 uni0311 uni0312 uni0313 uni0314 uni033D uni033E

StartChar: .notdef
Encoding: 0 -1 0
AltUni: 0
Width: 1229
Flags: W
Fore
102 -362 m 1,0,-1
 102 1444 l 1,1,-1
 1126 1444 l 1,2,-1
 1126 -362 l 1,3,-1
 102 -362 l 1,0,-1
217 -248 m 1,4,-1
 1012 -248 l 1,5,-1
 1012 1329 l 1,6,-1
 217 1329 l 1,7,-1
 217 -248 l 1,4,-1
EndSplineSet
EndChar
StartChar: exclam
Encoding: 33 33 33
Width: 821
Flags: W
Fore
309 254 m 1,0,-1
 512 254 l 1,1,-1
 512 0 l 1,2,-1
 309 0 l 1,3,-1
 309 254 l 1,0,-1
309 1493 m 1,4,-1
 512 1493 l 1,5,-1
 512 838 l 1,6,-1
 492 481 l 1,7,-1
 330 481 l 1,8,-1
 309 838 l 1,9,-1
 309 1493 l 1,4,-1
EndSplineSet
EndChar
StartChar: quotedbl
Encoding: 34 34 34
Width: 942
Flags: W
Fore
367 1493 m 1,0,-1
 367 938 l 1,1,-1
 197 938 l 1,2,-1
 197 1493 l 1,3,-1
 367 1493 l 1,0,-1
745 1493 m 1,4,-1
 745 938 l 1,5,-1
 575 938 l 1,6,-1
 575 1493 l 1,7,-1
 745 1493 l 1,4,-1
EndSplineSet
EndChar
StartChar: numbersign
Encoding: 35 35 35
Width: 1716
Flags: W
Fore
1047 901 m 1,0,-1
 756 901 l 1,1,-1
 672 567 l 1,2,-1
 965 567 l 1,3,-1
 1047 901 l 1,0,-1
897 1470 m 1,4,-1
 793 1055 l 1,5,-1
 1085 1055 l 1,6,-1
 1190 1470 l 1,7,-1
 1350 1470 l 1,8,-1
 1247 1055 l 1,9,-1
 1559 1055 l 1,10,-1
 1559 901 l 1,11,-1
 1208 901 l 1,12,-1
 1126 567 l 1,13,-1
 1444 567 l 1,14,-1
 1444 414 l 1,15,-1
 1087 414 l 1,16,-1
 983 0 l 1,17,-1
 823 0 l 1,18,-1
 926 414 l 1,19,-1
 633 414 l 1,20,-1
 530 0 l 1,21,-1
 369 0 l 1,22,-1
 473 414 l 1,23,-1
 158 414 l 1,24,-1
 158 567 l 1,25,-1
 510 567 l 1,26,-1
 594 901 l 1,27,-1
 272 901 l 1,28,-1
 272 1055 l 1,29,-1
 633 1055 l 1,30,-1
 735 1470 l 1,31,-1
 897 1470 l 1,4,-1
EndSplineSet
EndChar
StartChar: dollar
Encoding: 36 36 36
Width: 1303
Flags: W
Fore
692 -301 m 1,0,-1
 592 -301 l 1,1,-1
 591 0 l 1,2,3
 486 2 486 2 381 24.5 c 128,-1,4
 276 47 276 47 170 92 c 1,5,-1
 170 272 l 1,6,7
 272 208 272 208 376.5 175.5 c 128,-1,8
 481 143 481 143 592 142 c 1,9,-1
 592 598 l 1,10,11
 371 634 371 634 270.5 720 c 128,-1,12
 170 806 170 806 170 956 c 0,13,14
 170 1119 170 1119 279 1213 c 128,-1,15
 388 1307 388 1307 592 1321 c 1,16,-1
 592 1556 l 1,17,-1
 692 1556 l 1,18,-1
 692 1324 l 1,19,20
 785 1320 785 1320 872 1304.5 c 128,-1,21
 959 1289 959 1289 1042 1262 c 1,22,-1
 1042 1087 l 1,23,24
 959 1129 959 1129 871.5 1152 c 128,-1,25
 784 1175 784 1175 692 1179 c 1,26,-1
 692 752 l 1,27,28
 919 717 919 717 1026 627 c 128,-1,29
 1133 537 1133 537 1133 381 c 0,30,31
 1133 212 1133 212 1019.5 114.5 c 128,-1,32
 906 17 906 17 692 2 c 1,33,-1
 692 -301 l 1,0,-1
592 770 m 1,34,-1
 592 1180 l 1,35,36
 476 1167 476 1167 415 1114 c 128,-1,37
 354 1061 354 1061 354 973 c 0,38,39
 354 887 354 887 410.5 839 c 128,-1,40
 467 791 467 791 592 770 c 1,34,-1
692 578 m 1,41,-1
 692 145 l 1,42,43
 819 162 819 162 883.5 217 c 128,-1,44
 948 272 948 272 948 362 c 0,45,46
 948 450 948 450 886.5 502 c 128,-1,47
 825 554 825 554 692 578 c 1,41,-1
EndSplineSet
EndChar
StartChar: percent
Encoding: 37 37 37
Width: 1946
Flags: W
Fore
1489 657 m 0,0,1
 1402 657 1402 657 1352.5 583 c 128,-1,2
 1303 509 1303 509 1303 377 c 0,3,4
 1303 247 1303 247 1352.5 172.5 c 128,-1,5
 1402 98 1402 98 1489 98 c 0,6,7
 1574 98 1574 98 1623.5 172.5 c 128,-1,8
 1673 247 1673 247 1673 377 c 0,9,10
 1673 508 1673 508 1623.5 582.5 c 128,-1,11
 1574 657 1574 657 1489 657 c 0,0,1
1489 784 m 0,12,13
 1647 784 1647 784 1740 674 c 128,-1,14
 1833 564 1833 564 1833 377 c 0,15,16
 1833 190 1833 190 1739.5 80.5 c 128,-1,17
 1646 -29 1646 -29 1489 -29 c 0,18,19
 1329 -29 1329 -29 1236 80.5 c 128,-1,20
 1143 190 1143 190 1143 377 c 0,21,22
 1143 565 1143 565 1236.5 674.5 c 128,-1,23
 1330 784 1330 784 1489 784 c 0,12,13
457 1393 m 0,24,25
 371 1393 371 1393 321.5 1318.5 c 128,-1,26
 272 1244 272 1244 272 1114 c 0,27,28
 272 982 272 982 321 908 c 128,-1,29
 370 834 370 834 457 834 c 0,30,31
 544 834 544 834 593.5 908 c 128,-1,32
 643 982 643 982 643 1114 c 0,33,34
 643 1243 643 1243 593 1318 c 128,-1,35
 543 1393 543 1393 457 1393 c 0,24,25
1360 1520 m 1,36,-1
 1520 1520 l 1,37,-1
 586 -29 l 1,38,-1
 426 -29 l 1,39,-1
 1360 1520 l 1,36,-1
457 1520 m 0,40,41
 615 1520 615 1520 709 1410.5 c 128,-1,42
 803 1301 803 1301 803 1114 c 0,43,44
 803 925 803 925 709.5 816 c 128,-1,45
 616 707 616 707 457 707 c 0,46,47
 298 707 298 707 205.5 816.5 c 128,-1,48
 113 926 113 926 113 1114 c 0,49,50
 113 1300 113 1300 206 1410 c 128,-1,51
 299 1520 299 1520 457 1520 c 0,40,41
EndSplineSet
EndChar
StartChar: ampersand
Encoding: 38 38 38
Width: 1597
Flags: W
Fore
498 803 m 1,0,1
 407 722 407 722 364.5 641.5 c 128,-1,2
 322 561 322 561 322 473 c 0,3,4
 322 327 322 327 428 230 c 128,-1,5
 534 133 534 133 694 133 c 0,6,7
 789 133 789 133 872 164.5 c 128,-1,8
 955 196 955 196 1028 260 c 1,9,-1
 498 803 l 1,0,1
639 915 m 2,10,-1
 1147 395 l 1,11,12
 1206 484 1206 484 1239 585.5 c 128,-1,13
 1272 687 1272 687 1278 801 c 1,14,-1
 1464 801 l 1,15,16
 1452 669 1452 669 1400 540 c 128,-1,17
 1348 411 1348 411 1255 285 c 1,18,-1
 1534 0 l 1,19,-1
 1282 0 l 1,20,-1
 1139 147 l 1,21,22
 1035 58 1035 58 921 14.5 c 128,-1,23
 807 -29 807 -29 676 -29 c 0,24,25
 435 -29 435 -29 282 108.5 c 128,-1,26
 129 246 129 246 129 461 c 0,27,28
 129 589 129 589 196 701.5 c 128,-1,29
 263 814 263 814 397 913 c 1,30,31
 349 976 349 976 324 1038.5 c 128,-1,32
 299 1101 299 1101 299 1161 c 0,33,34
 299 1323 299 1323 410 1421.5 c 128,-1,35
 521 1520 521 1520 705 1520 c 0,36,37
 788 1520 788 1520 870.5 1502 c 128,-1,38
 953 1484 953 1484 1038 1448 c 1,39,-1
 1038 1266 l 1,40,41
 951 1313 951 1313 872 1337.5 c 128,-1,42
 793 1362 793 1362 725 1362 c 0,43,44
 620 1362 620 1362 554.5 1306.5 c 128,-1,45
 489 1251 489 1251 489 1163 c 0,46,47
 489 1112 489 1112 518.5 1060.5 c 128,-1,48
 548 1009 548 1009 639 915 c 2,10,-1
EndSplineSet
EndChar
StartChar: quotesingle
Encoding: 39 39 39
Width: 563
Flags: W
Fore
367 1493 m 1,0,-1
 367 938 l 1,1,-1
 197 938 l 1,2,-1
 197 1493 l 1,3,-1
 367 1493 l 1,0,-1
EndSplineSet
EndChar
StartChar: parenleft
Encoding: 40 40 40
Width: 799
Flags: W
Fore
635 1554 m 1,0,1
 501 1324 501 1324 436 1099 c 128,-1,2
 371 874 371 874 371 643 c 0,3,4
 371 412 371 412 436.5 185.5 c 128,-1,5
 502 -41 502 -41 635 -270 c 1,6,-1
 475 -270 l 1,7,8
 325 -35 325 -35 250.5 192 c 128,-1,9
 176 419 176 419 176 643 c 0,10,11
 176 866 176 866 250 1092 c 128,-1,12
 324 1318 324 1318 475 1554 c 1,13,-1
 635 1554 l 1,0,1
EndSplineSet
EndChar
StartChar: parenright
Encoding: 41 41 41
Width: 799
Flags: W
Fore
164 1554 m 1,0,-1
 324 1554 l 1,1,2
 474 1318 474 1318 548.5 1092 c 128,-1,3
 623 866 623 866 623 643 c 0,4,5
 623 419 623 419 548.5 192 c 128,-1,6
 474 -35 474 -35 324 -270 c 1,7,-1
 164 -270 l 1,8,9
 297 -41 297 -41 362.5 185.5 c 128,-1,10
 428 412 428 412 428 643 c 0,11,12
 428 874 428 874 362.5 1099 c 128,-1,13
 297 1324 297 1324 164 1554 c 1,0,-1
EndSplineSet
EndChar
StartChar: asterisk
Encoding: 42 42 42
Width: 1024
Flags: W
Fore
963 1247 m 1,0,-1
 604 1053 l 1,1,-1
 963 858 l 1,2,-1
 905 760 l 1,3,-1
 569 963 l 1,4,-1
 569 586 l 1,5,-1
 455 586 l 1,6,-1
 455 963 l 1,7,-1
 119 760 l 1,8,-1
 61 858 l 1,9,-1
 420 1053 l 1,10,-1
 61 1247 l 1,11,-1
 119 1346 l 1,12,-1
 455 1143 l 1,13,-1
 455 1520 l 1,14,-1
 569 1520 l 1,15,-1
 569 1143 l 1,16,-1
 905 1346 l 1,17,-1
 963 1247 l 1,0,-1
EndSplineSet
EndChar
StartChar: plus
Encoding: 43 43 43
Width: 1716
Flags: W
Fore
942 1284 m 1,0,-1
 942 727 l 1,1,-1
 1499 727 l 1,2,-1
 1499 557 l 1,3,-1
 942 557 l 1,4,-1
 942 0 l 1,5,-1
 774 0 l 1,6,-1
 774 557 l 1,7,-1
 217 557 l 1,8,-1
 217 727 l 1,9,-1
 774 727 l 1,10,-1
 774 1284 l 1,11,-1
 942 1284 l 1,0,-1
EndSplineSet
EndChar
StartChar: comma
Encoding: 44 44 44
Width: 651
Flags: W
Fore
240 254 m 1,0,-1
 451 254 l 1,1,-1
 451 82 l 1,2,-1
 287 -238 l 1,3,-1
 158 -238 l 1,4,-1
 240 82 l 1,5,-1
 240 254 l 1,0,-1
EndSplineSet
EndChar
StartChar: hyphen
Encoding: 45 45 45
Width: 739
Flags: W
Fore
100 643 m 1,0,-1
 639 643 l 1,1,-1
 639 479 l 1,2,-1
 100 479 l 1,3,-1
 100 643 l 1,0,-1
EndSplineSet
KernsSLIFO: 256 -45 0 0 258 -45 0 0 260 -45 0 0 356 -188 0 0 286 75 0 0 253 -36 0 0 221 -243 0 0 210 57 0 0 212 57 0 0 211 57 0 0 193 -45 0 0 194 -45 0 0 376 -243 0 0 255 -36 0 0 213 57 0 0 195 -45 0 0 192 -45 0 0 245 38 0 0 246 38 0 0 244 38 0 0 242 38 0 0 243 38 0 0 214 57 0 0 196 -45 0 0 121 -36 0 0 118 -55 0 0 111 38 0 0 89 -243 0 0 88 -102 0 0 87 -83 0 0 86 -120 0 0 84 -188 0 0 81 75 0 0 79 57 0 0 74 114 0 0 71 75 0 0 66 -73 0 0 65 -45 0 0
EndChar
StartChar: period
Encoding: 46 46 46
Width: 651
Flags: W
Fore
219 254 m 1,0,-1
 430 254 l 1,1,-1
 430 0 l 1,2,-1
 219 0 l 1,3,-1
 219 254 l 1,0,-1
EndSplineSet
EndChar
StartChar: slash
Encoding: 47 47 47
Width: 690
Flags: W
Fore
520 1493 m 1,0,-1
 690 1493 l 1,1,-1
 170 -190 l 1,2,-1
 0 -190 l 1,3,-1
 520 1493 l 1,0,-1
EndSplineSet
EndChar
StartChar: zero
Encoding: 48 48 48
Width: 1303
Flags: W
Fore
651 1360 m 0,0,1
 495 1360 495 1360 416.5 1206.5 c 128,-1,2
 338 1053 338 1053 338 745 c 0,3,4
 338 438 338 438 416.5 284.5 c 128,-1,5
 495 131 495 131 651 131 c 0,6,7
 808 131 808 131 886.5 284.5 c 128,-1,8
 965 438 965 438 965 745 c 0,9,10
 965 1053 965 1053 886.5 1206.5 c 128,-1,11
 808 1360 808 1360 651 1360 c 0,0,1
651 1520 m 0,12,13
 902 1520 902 1520 1034.5 1321.5 c 128,-1,14
 1167 1123 1167 1123 1167 745 c 0,15,16
 1167 368 1167 368 1034.5 169.5 c 128,-1,17
 902 -29 902 -29 651 -29 c 0,18,19
 400 -29 400 -29 267.5 169.5 c 128,-1,20
 135 368 135 368 135 745 c 0,21,22
 135 1123 135 1123 267.5 1321.5 c 128,-1,23
 400 1520 400 1520 651 1520 c 0,12,13
EndSplineSet
EndChar
StartChar: one
Encoding: 49 49 49
Width: 1303
Flags: W
Fore
254 170 m 1,0,-1
 584 170 l 1,1,-1
 584 1309 l 1,2,-1
 225 1237 l 1,3,-1
 225 1421 l 1,4,-1
 582 1493 l 1,5,-1
 784 1493 l 1,6,-1
 784 170 l 1,7,-1
 1114 170 l 1,8,-1
 1114 0 l 1,9,-1
 254 0 l 1,10,-1
 254 170 l 1,0,-1
EndSplineSet
EndChar
StartChar: two
Encoding: 50 50 50
Width: 1303
Flags: W
Fore
393 170 m 1,0,-1
 1098 170 l 1,1,-1
 1098 0 l 1,2,-1
 150 0 l 1,3,-1
 150 170 l 1,4,5
 265 289 265 289 463.5 489.5 c 128,-1,6
 662 690 662 690 713 748 c 0,7,8
 810 857 810 857 848.5 932.5 c 128,-1,9
 887 1008 887 1008 887 1081 c 0,10,11
 887 1200 887 1200 803.5 1275 c 128,-1,12
 720 1350 720 1350 586 1350 c 0,13,14
 491 1350 491 1350 385.5 1317 c 128,-1,15
 280 1284 280 1284 160 1217 c 1,16,-1
 160 1421 l 1,17,18
 282 1470 282 1470 388 1495 c 128,-1,19
 494 1520 494 1520 582 1520 c 0,20,21
 814 1520 814 1520 952 1404 c 128,-1,22
 1090 1288 1090 1288 1090 1094 c 0,23,24
 1090 1002 1090 1002 1055.5 919.5 c 128,-1,25
 1021 837 1021 837 930 725 c 1,26,27
 905 696 905 696 771 557.5 c 128,-1,28
 637 419 637 419 393 170 c 1,0,-1
EndSplineSet
EndChar
StartChar: three
Encoding: 51 51 51
Width: 1303
Flags: W
Fore
831 805 m 1,0,1
 976 774 976 774 1057.5 676 c 128,-1,2
 1139 578 1139 578 1139 434 c 0,3,4
 1139 213 1139 213 987 92 c 128,-1,5
 835 -29 835 -29 555 -29 c 0,6,7
 461 -29 461 -29 361.5 -10.5 c 128,-1,8
 262 8 262 8 156 45 c 1,9,-1
 156 240 l 1,10,11
 240 191 240 191 340 166 c 128,-1,12
 440 141 440 141 549 141 c 0,13,14
 739 141 739 141 838.5 216 c 128,-1,15
 938 291 938 291 938 434 c 0,16,17
 938 566 938 566 845.5 640.5 c 128,-1,18
 753 715 753 715 588 715 c 2,19,-1
 414 715 l 1,20,-1
 414 881 l 1,21,-1
 596 881 l 2,22,23
 745 881 745 881 824 940.5 c 128,-1,24
 903 1000 903 1000 903 1112 c 0,25,26
 903 1227 903 1227 821.5 1288.5 c 128,-1,27
 740 1350 740 1350 588 1350 c 0,28,29
 505 1350 505 1350 410 1332 c 128,-1,30
 315 1314 315 1314 201 1276 c 1,31,-1
 201 1456 l 1,32,33
 316 1488 316 1488 416.5 1504 c 128,-1,34
 517 1520 517 1520 606 1520 c 0,35,36
 836 1520 836 1520 970 1415.5 c 128,-1,37
 1104 1311 1104 1311 1104 1133 c 0,38,39
 1104 1009 1104 1009 1033 923.5 c 128,-1,40
 962 838 962 838 831 805 c 1,0,1
EndSplineSet
EndChar
StartChar: four
Encoding: 52 52 52
Width: 1303
Flags: W
Fore
774 1317 m 1,0,-1
 264 520 l 1,1,-1
 774 520 l 1,2,-1
 774 1317 l 1,0,-1
721 1493 m 1,3,-1
 975 1493 l 1,4,-1
 975 520 l 1,5,-1
 1188 520 l 1,6,-1
 1188 352 l 1,7,-1
 975 352 l 1,8,-1
 975 0 l 1,9,-1
 774 0 l 1,10,-1
 774 352 l 1,11,-1
 100 352 l 1,12,-1
 100 547 l 1,13,-1
 721 1493 l 1,3,-1
EndSplineSet
EndChar
StartChar: five
Encoding: 53 53 53
Width: 1303
Flags: W
Fore
221 1493 m 1,0,-1
 1014 1493 l 1,1,-1
 1014 1323 l 1,2,-1
 406 1323 l 1,3,-1
 406 957 l 1,4,5
 450 972 450 972 494 979.5 c 128,-1,6
 538 987 538 987 582 987 c 0,7,8
 832 987 832 987 978 850 c 128,-1,9
 1124 713 1124 713 1124 479 c 0,10,11
 1124 238 1124 238 974 104.5 c 128,-1,12
 824 -29 824 -29 551 -29 c 0,13,14
 457 -29 457 -29 359.5 -13 c 128,-1,15
 262 3 262 3 158 35 c 1,16,-1
 158 238 l 1,17,18
 248 189 248 189 344 165 c 128,-1,19
 440 141 440 141 547 141 c 0,20,21
 720 141 720 141 821 232 c 128,-1,22
 922 323 922 323 922 479 c 0,23,24
 922 635 922 635 821 726 c 128,-1,25
 720 817 720 817 547 817 c 0,26,27
 466 817 466 817 385.5 799 c 128,-1,28
 305 781 305 781 221 743 c 1,29,-1
 221 1493 l 1,0,-1
EndSplineSet
EndChar
StartChar: six
Encoding: 54 54 54
Width: 1303
Flags: W
Fore
676 827 m 0,0,1
 540 827 540 827 460.5 734 c 128,-1,2
 381 641 381 641 381 479 c 0,3,4
 381 318 381 318 460.5 224.5 c 128,-1,5
 540 131 540 131 676 131 c 0,6,7
 812 131 812 131 891.5 224.5 c 128,-1,8
 971 318 971 318 971 479 c 0,9,10
 971 641 971 641 891.5 734 c 128,-1,11
 812 827 812 827 676 827 c 0,0,1
1077 1460 m 1,12,-1
 1077 1276 l 1,13,14
 1001 1312 1001 1312 923.5 1331 c 128,-1,15
 846 1350 846 1350 770 1350 c 0,16,17
 570 1350 570 1350 464.5 1215 c 128,-1,18
 359 1080 359 1080 344 807 c 1,19,20
 403 894 403 894 492 940.5 c 128,-1,21
 581 987 581 987 688 987 c 0,22,23
 913 987 913 987 1043.5 850.5 c 128,-1,24
 1174 714 1174 714 1174 479 c 0,25,26
 1174 249 1174 249 1038 110 c 128,-1,27
 902 -29 902 -29 676 -29 c 0,28,29
 417 -29 417 -29 280 169.5 c 128,-1,30
 143 368 143 368 143 745 c 0,31,32
 143 1099 143 1099 311 1309.5 c 128,-1,33
 479 1520 479 1520 762 1520 c 0,34,35
 838 1520 838 1520 915.5 1505 c 128,-1,36
 993 1490 993 1490 1077 1460 c 1,12,-1
EndSplineSet
EndChar
StartChar: seven
Encoding: 55 55 55
Width: 1303
Flags: W
Fore
168 1493 m 1,0,-1
 1128 1493 l 1,1,-1
 1128 1407 l 1,2,-1
 586 0 l 1,3,-1
 375 0 l 1,4,-1
 885 1323 l 1,5,-1
 168 1323 l 1,6,-1
 168 1493 l 1,0,-1
EndSplineSet
EndChar
StartChar: eight
Encoding: 56 56 56
Width: 1303
Flags: W
Fore
651 709 m 0,0,1
 507 709 507 709 424.5 632 c 128,-1,2
 342 555 342 555 342 420 c 0,3,4
 342 285 342 285 424.5 208 c 128,-1,5
 507 131 507 131 651 131 c 0,6,7
 795 131 795 131 878 208.5 c 128,-1,8
 961 286 961 286 961 420 c 0,9,10
 961 555 961 555 878.5 632 c 128,-1,11
 796 709 796 709 651 709 c 0,0,1
449 795 m 1,12,13
 319 827 319 827 246.5 916 c 128,-1,14
 174 1005 174 1005 174 1133 c 0,15,16
 174 1312 174 1312 301.5 1416 c 128,-1,17
 429 1520 429 1520 651 1520 c 0,18,19
 874 1520 874 1520 1001 1416 c 128,-1,20
 1128 1312 1128 1312 1128 1133 c 0,21,22
 1128 1005 1128 1005 1055.5 916 c 128,-1,23
 983 827 983 827 854 795 c 1,24,25
 1000 761 1000 761 1081.5 662 c 128,-1,26
 1163 563 1163 563 1163 420 c 0,27,28
 1163 203 1163 203 1030.5 87 c 128,-1,29
 898 -29 898 -29 651 -29 c 0,30,31
 404 -29 404 -29 271.5 87 c 128,-1,32
 139 203 139 203 139 420 c 0,33,34
 139 563 139 563 221 662 c 128,-1,35
 303 761 303 761 449 795 c 1,12,13
375 1114 m 0,36,37
 375 998 375 998 447.5 933 c 128,-1,38
 520 868 520 868 651 868 c 0,39,40
 781 868 781 868 854.5 933 c 128,-1,41
 928 998 928 998 928 1114 c 0,42,43
 928 1230 928 1230 854.5 1295 c 128,-1,44
 781 1360 781 1360 651 1360 c 0,45,46
 520 1360 520 1360 447.5 1295 c 128,-1,47
 375 1230 375 1230 375 1114 c 0,36,37
EndSplineSet
EndChar
StartChar: nine
Encoding: 57 57 57
Width: 1303
Flags: W
Fore
225 31 m 1,0,-1
 225 215 l 1,1,2
 301 179 301 179 379 160 c 128,-1,3
 457 141 457 141 532 141 c 0,4,5
 732 141 732 141 837.5 275.5 c 128,-1,6
 943 410 943 410 958 684 c 1,7,8
 900 598 900 598 811 552 c 128,-1,9
 722 506 722 506 614 506 c 0,10,11
 390 506 390 506 259.5 641.5 c 128,-1,12
 129 777 129 777 129 1012 c 0,13,14
 129 1242 129 1242 265 1381 c 128,-1,15
 401 1520 401 1520 627 1520 c 0,16,17
 886 1520 886 1520 1022.5 1321.5 c 128,-1,18
 1159 1123 1159 1123 1159 745 c 0,19,20
 1159 392 1159 392 991.5 181.5 c 128,-1,21
 824 -29 824 -29 541 -29 c 0,22,23
 465 -29 465 -29 387 -14 c 128,-1,24
 309 1 309 1 225 31 c 1,0,-1
627 664 m 0,25,26
 763 664 763 664 842.5 757 c 128,-1,27
 922 850 922 850 922 1012 c 0,28,29
 922 1173 922 1173 842.5 1266.5 c 128,-1,30
 763 1360 763 1360 627 1360 c 0,31,32
 491 1360 491 1360 411.5 1266.5 c 128,-1,33
 332 1173 332 1173 332 1012 c 0,34,35
 332 850 332 850 411.5 757 c 128,-1,36
 491 664 491 664 627 664 c 0,25,26
EndSplineSet
EndChar
StartChar: colon
Encoding: 58 58 58
Width: 690
Flags: W
Fore
240 254 m 1,0,-1
 451 254 l 1,1,-1
 451 0 l 1,2,-1
 240 0 l 1,3,-1
 240 254 l 1,0,-1
240 1059 m 1,4,-1
 451 1059 l 1,5,-1
 451 805 l 1,6,-1
 240 805 l 1,7,-1
 240 1059 l 1,4,-1
EndSplineSet
EndChar
StartChar: semicolon
Encoding: 59 59 59
Width: 690
Flags: W
Fore
240 1059 m 1,0,-1
 451 1059 l 1,1,-1
 451 805 l 1,2,-1
 240 805 l 1,3,-1
 240 1059 l 1,0,-1
240 254 m 1,4,-1
 451 254 l 1,5,-1
 451 82 l 1,6,-1
 287 -238 l 1,7,-1
 158 -238 l 1,8,-1
 240 82 l 1,9,-1
 240 254 l 1,4,-1
EndSplineSet
EndChar
StartChar: less
Encoding: 60 60 60
Width: 1716
Flags: W
Fore
1499 1008 m 1,0,-1
 467 641 l 1,1,-1
 1499 276 l 1,2,-1
 1499 94 l 1,3,-1
 217 559 l 1,4,-1
 217 725 l 1,5,-1
 1499 1190 l 1,6,-1
 1499 1008 l 1,0,-1
EndSplineSet
EndChar
StartChar: equal
Encoding: 61 61 61
Width: 1716
Flags: W
Fore
217 930 m 1,0,-1
 1499 930 l 1,1,-1
 1499 762 l 1,2,-1
 217 762 l 1,3,-1
 217 930 l 1,0,-1
217 522 m 1,4,-1
 1499 522 l 1,5,-1
 1499 352 l 1,6,-1
 217 352 l 1,7,-1
 217 522 l 1,4,-1
EndSplineSet
EndChar
StartChar: greater
Encoding: 62 62 62
Width: 1716
Flags: W
Fore
217 1008 m 1,0,-1
 217 1190 l 1,1,-1
 1499 725 l 1,2,-1
 1499 559 l 1,3,-1
 217 94 l 1,4,-1
 217 276 l 1,5,-1
 1247 641 l 1,6,-1
 217 1008 l 1,0,-1
EndSplineSet
EndChar
StartChar: question
Encoding: 63 63 63
Width: 1087
Flags: W
Fore
391 254 m 1,0,-1
 594 254 l 1,1,-1
 594 0 l 1,2,-1
 391 0 l 1,3,-1
 391 254 l 1,0,-1
588 401 m 1,4,-1
 397 401 l 1,5,-1
 397 555 l 2,6,7
 397 656 397 656 425 721 c 128,-1,8
 453 786 453 786 543 872 c 1,9,-1
 633 961 l 1,10,11
 690 1014 690 1014 715.5 1061 c 128,-1,12
 741 1108 741 1108 741 1157 c 0,13,14
 741 1246 741 1246 675.5 1301 c 128,-1,15
 610 1356 610 1356 502 1356 c 0,16,17
 423 1356 423 1356 333.5 1321 c 128,-1,18
 244 1286 244 1286 147 1219 c 1,19,-1
 147 1407 l 1,20,21
 241 1464 241 1464 337.5 1492 c 128,-1,22
 434 1520 434 1520 537 1520 c 0,23,24
 721 1520 721 1520 832.5 1423 c 128,-1,25
 944 1326 944 1326 944 1167 c 0,26,27
 944 1091 944 1091 908 1022.5 c 128,-1,28
 872 954 872 954 782 868 c 2,29,-1
 694 782 l 2,30,31
 647 735 647 735 627.5 708.5 c 128,-1,32
 608 682 608 682 600 657 c 0,33,34
 594 636 594 636 591 606 c 128,-1,35
 588 576 588 576 588 524 c 2,36,-1
 588 401 l 1,4,-1
EndSplineSet
EndChar
StartChar: at
Encoding: 64 64 64
Width: 2048
Flags: W
Fore
762 537 m 0,0,1
 762 394 762 394 833 312.5 c 128,-1,2
 904 231 904 231 1028 231 c 0,3,4
 1151 231 1151 231 1221.5 313 c 128,-1,5
 1292 395 1292 395 1292 537 c 0,6,7
 1292 677 1292 677 1220 759.5 c 128,-1,8
 1148 842 1148 842 1026 842 c 0,9,10
 905 842 905 842 833.5 760 c 128,-1,11
 762 678 762 678 762 537 c 0,0,1
1307 238 m 1,12,13
 1247 161 1247 161 1169.5 124.5 c 128,-1,14
 1092 88 1092 88 989 88 c 0,15,16
 817 88 817 88 709.5 212.5 c 128,-1,17
 602 337 602 337 602 537 c 0,18,19
 602 737 602 737 710 862 c 128,-1,20
 818 987 818 987 989 987 c 0,21,22
 1092 987 1092 987 1170 949.5 c 128,-1,23
 1248 912 1248 912 1307 836 c 1,24,-1
 1307 967 l 1,25,-1
 1450 967 l 1,26,-1
 1450 231 l 1,27,28
 1596 253 1596 253 1678.5 364.5 c 128,-1,29
 1761 476 1761 476 1761 653 c 0,30,31
 1761 760 1761 760 1729.5 854 c 128,-1,32
 1698 948 1698 948 1634 1028 c 0,33,34
 1530 1159 1530 1159 1380.5 1228.5 c 128,-1,35
 1231 1298 1231 1298 1055 1298 c 0,36,37
 932 1298 932 1298 819 1265.5 c 128,-1,38
 706 1233 706 1233 610 1169 c 1,39,40
 453 1067 453 1067 364.5 901.5 c 128,-1,41
 276 736 276 736 276 543 c 0,42,43
 276 384 276 384 333.5 245 c 128,-1,44
 391 106 391 106 500 0 c 0,45,46
 605 -104 605 -104 743 -158.5 c 128,-1,47
 881 -213 881 -213 1038 -213 c 0,48,49
 1167 -213 1167 -213 1291.5 -169.5 c 128,-1,50
 1416 -126 1416 -126 1520 -45 c 1,51,-1
 1610 -156 l 1,52,53
 1485 -253 1485 -253 1337.5 -304.5 c 128,-1,54
 1190 -356 1190 -356 1038 -356 c 0,55,56
 853 -356 853 -356 689 -290.5 c 128,-1,57
 525 -225 525 -225 397 -100 c 0,58,59
 269 25 269 25 202 189.5 c 128,-1,60
 135 354 135 354 135 543 c 0,61,62
 135 725 135 725 203 890 c 128,-1,63
 271 1055 271 1055 397 1180 c 0,64,65
 526 1307 526 1307 695 1374.5 c 128,-1,66
 864 1442 864 1442 1053 1442 c 0,67,68
 1265 1442 1265 1442 1446.5 1355 c 128,-1,69
 1628 1268 1628 1268 1751 1108 c 0,70,71
 1826 1010 1826 1010 1865.5 895 c 128,-1,72
 1905 780 1905 780 1905 657 c 0,73,74
 1905 394 1905 394 1746 242 c 128,-1,75
 1587 90 1587 90 1307 84 c 1,76,-1
 1307 238 l 1,12,13
EndSplineSet
EndChar
StartChar: A
Encoding: 65 65 65
Width: 1401
Flags: W
AnchorPoint: "above" 700 1520 basechar 0
Fore
700 1294 m 1,0,-1
 426 551 l 1,1,-1
 975 551 l 1,2,-1
 700 1294 l 1,0,-1
586 1493 m 1,3,-1
 815 1493 l 1,4,-1
 1384 0 l 1,5,-1
 1174 0 l 1,6,-1
 1038 383 l 1,7,-1
 365 383 l 1,8,-1
 229 0 l 1,9,-1
 16 0 l 1,10,-1
 586 1493 l 1,3,-1
EndSplineSet
KernsSLIFO: 288 -36 0 0 284 -36 0 0 7923 -139 0 0 561 -36 0 0 562 -159 0 0 563 -139 0 0 375 -139 0 0 7813 -83 0 0 7811 -83 0 0 7809 -83 0 0 373 -83 0 0 539 -36 0 0 355 -36 0 0 493 -36 0 0 491 -36 0 0 337 -36 0 0 335 -36 0 0 333 -36 0 0 281 -36 0 0 279 -36 0 0 277 -36 0 0 275 -36 0 0 454 -36 0 0 273 -36 0 0 267 -36 0 0 265 -36 0 0 7922 -159 0 0 374 -159 0 0 7812 -112 0 0 7810 -112 0 0 7808 -112 0 0 372 -112 0 0 538 -159 0 0 354 -159 0 0 558 -36 0 0 492 -36 0 0 490 -36 0 0 336 -36 0 0 334 -36 0 0 332 -36 0 0 266 -36 0 0 264 -36 0 0 260 57 0 0 258 57 0 0 256 57 0 0 357 -36 0 0 356 -159 0 0 283 -36 0 0 271 -36 0 0 269 -36 0 0 268 -36 0 0 263 -36 0 0 262 -36 0 0 286 -36 0 0 253 -139 0 0 221 -159 0 0 210 -36 0 0 212 -36 0 0 211 -36 0 0 193 57 0 0 194 57 0 0 8222 47 0 0 376 -159 0 0 255 -139 0 0 8221 -253 0 0 8220 -264 0 0 213 -36 0 0 195 57 0 0 192 57 0 0 171 -73 0 0 245 -36 0 0 246 -36 0 0 244 -36 0 0 242 -36 0 0 243 -36 0 0 235 -36 0 0 234 -36 0 0 232 -36 0 0 233 -36 0 0 231 -36 0 0 214 -36 0 0 199 -36 0 0 196 57 0 0 121 -139 0 0 119 -83 0 0 118 -120 0 0 116 -36 0 0 113 -36 0 0 111 -36 0 0 102 -73 0 0 101 -36 0 0 100 -36 0 0 99 -36 0 0 89 -159 0 0 87 -112 0 0 86 -131 0 0 84 -159 0 0 81 -36 0 0 79 -36 0 0 71 -36 0 0 67 -36 0 0 65 57 0 0 58 -36 0 0 46 -36 0 0 45 -45 0 0
EndChar
StartChar: B
Encoding: 66 66 66
Width: 1405
Flags: W
AnchorPoint: "above" 700 1520 basechar 0
Fore
403 713 m 1,0,-1
 403 166 l 1,1,-1
 727 166 l 2,2,3
 890 166 890 166 968.5 233.5 c 128,-1,4
 1047 301 1047 301 1047 440 c 0,5,6
 1047 580 1047 580 968.5 646.5 c 128,-1,7
 890 713 890 713 727 713 c 2,8,-1
 403 713 l 1,0,-1
403 1327 m 1,9,-1
 403 877 l 1,10,-1
 702 877 l 2,11,12
 850 877 850 877 922.5 932.5 c 128,-1,13
 995 988 995 988 995 1102 c 0,14,15
 995 1215 995 1215 922.5 1271 c 128,-1,16
 850 1327 850 1327 702 1327 c 2,17,-1
 403 1327 l 1,9,-1
201 1493 m 1,18,-1
 717 1493 l 2,19,20
 948 1493 948 1493 1073 1397 c 128,-1,21
 1198 1301 1198 1301 1198 1124 c 0,22,23
 1198 987 1198 987 1134 906 c 128,-1,24
 1070 825 1070 825 946 805 c 1,25,26
 1095 773 1095 773 1177.5 671.5 c 128,-1,27
 1260 570 1260 570 1260 418 c 0,28,29
 1260 218 1260 218 1124 109 c 128,-1,30
 988 0 988 0 737 0 c 2,31,-1
 201 0 l 1,32,-1
 201 1493 l 1,18,-1
EndSplineSet
KernsSLIFO: 558 -36 0 0 492 -36 0 0 490 -36 0 0 7922 -112 0 0 374 -112 0 0 7812 -73 0 0 7810 -73 0 0 7808 -73 0 0 372 -73 0 0 536 -36 0 0 348 -36 0 0 346 -36 0 0 336 -36 0 0 334 -36 0 0 332 -36 0 0 290 -36 0 0 288 -36 0 0 284 -36 0 0 266 -36 0 0 264 -36 0 0 268 -36 0 0 262 -36 0 0 350 -36 0 0 286 -36 0 0 221 -112 0 0 352 -36 0 0 210 -36 0 0 212 -36 0 0 211 -36 0 0 8222 -83 0 0 376 -112 0 0 8221 -112 0 0 8220 -112 0 0 213 -36 0 0 187 -36 0 0 171 -63 0 0 214 -36 0 0 199 -36 0 0 89 -112 0 0 87 -73 0 0 86 -63 0 0 83 -36 0 0 79 -36 0 0 71 -36 0 0 67 -36 0 0
EndChar
StartChar: C
Encoding: 67 67 67
Width: 1430
Flags: W
AnchorPoint: "above" 844 1520 basechar 0
Fore
1319 1378 m 1,0,-1
 1319 1165 l 1,1,2
 1217 1260 1217 1260 1101.5 1307 c 128,-1,3
 986 1354 986 1354 856 1354 c 0,4,5
 600 1354 600 1354 464 1197.5 c 128,-1,6
 328 1041 328 1041 328 745 c 0,7,8
 328 450 328 450 464 293.5 c 128,-1,9
 600 137 600 137 856 137 c 0,10,11
 986 137 986 137 1101.5 184 c 128,-1,12
 1217 231 1217 231 1319 326 c 1,13,-1
 1319 115 l 1,14,15
 1213 43 1213 43 1094.5 7 c 128,-1,16
 976 -29 976 -29 844 -29 c 0,17,18
 505 -29 505 -29 310 178.5 c 128,-1,19
 115 386 115 386 115 745 c 0,20,21
 115 1105 115 1105 310 1312.5 c 128,-1,22
 505 1520 505 1520 844 1520 c 0,23,24
 978 1520 978 1520 1096.5 1484.5 c 128,-1,25
 1215 1449 1215 1449 1319 1378 c 1,0,-1
EndSplineSet
KernsSLIFO: 562 -36 0 0 7922 -36 0 0 374 -36 0 0 221 -36 0 0 376 -36 0 0 8221 38 0 0 187 -36 0 0 171 -36 0 0 89 -36 0 0
EndChar
StartChar: D
Encoding: 68 68 68
Width: 1577
Flags: W
AnchorPoint: "above" 748 1540 basechar 0
Fore
403 1327 m 1,0,-1
 403 166 l 1,1,-1
 647 166 l 2,2,3
 956 166 956 166 1099.5 306 c 128,-1,4
 1243 446 1243 446 1243 748 c 0,5,6
 1243 1048 1243 1048 1099.5 1187.5 c 128,-1,7
 956 1327 956 1327 647 1327 c 2,8,-1
 403 1327 l 1,0,-1
201 1493 m 1,9,-1
 616 1493 l 2,10,11
 1050 1493 1050 1493 1253 1312.5 c 128,-1,12
 1456 1132 1456 1132 1456 748 c 0,13,14
 1456 362 1456 362 1252 181 c 128,-1,15
 1048 0 1048 0 616 0 c 2,16,-1
 201 0 l 1,17,-1
 201 1493 l 1,9,-1
EndSplineSet
KernsSLIFO: 7922 -112 0 0 562 -112 0 0 374 -112 0 0 260 -36 0 0 258 -36 0 0 256 -36 0 0 221 -112 0 0 193 -36 0 0 194 -36 0 0 8222 -188 0 0 376 -112 0 0 8221 -55 0 0 8220 -45 0 0 195 -36 0 0 192 -36 0 0 187 -36 0 0 171 -36 0 0 196 -36 0 0 89 -112 0 0 86 -36 0 0 65 -36 0 0
EndChar
StartChar: E
Encoding: 69 69 69
Width: 1294
Flags: W
AnchorPoint: "above" 670 1520 basechar 0
Fore
201 1493 m 1,0,-1
 1145 1493 l 1,1,-1
 1145 1323 l 1,2,-1
 403 1323 l 1,3,-1
 403 881 l 1,4,-1
 1114 881 l 1,5,-1
 1114 711 l 1,6,-1
 403 711 l 1,7,-1
 403 170 l 1,8,-1
 1163 170 l 1,9,-1
 1163 0 l 1,10,-1
 201 0 l 1,11,-1
 201 1493 l 1,0,-1
EndSplineSet
EndChar
StartChar: F
Encoding: 70 70 70
Width: 1178
Flags: W
AnchorPoint: "above" 670 1520 basechar 0
Fore
201 1493 m 1,0,-1
 1059 1493 l 1,1,-1
 1059 1323 l 1,2,-1
 403 1323 l 1,3,-1
 403 883 l 1,4,-1
 995 883 l 1,5,-1
 995 713 l 1,6,-1
 403 713 l 1,7,-1
 403 0 l 1,8,-1
 201 0 l 1,9,-1
 201 1493 l 1,0,-1
EndSplineSet
KernsSLIFO: 7923 -188 0 0 563 -188 0 0 375 -188 0 0 371 -112 0 0 369 -112 0 0 365 -112 0 0 363 -112 0 0 361 -112 0 0 343 -149 0 0 559 -73 0 0 493 -73 0 0 491 -73 0 0 337 -73 0 0 335 -73 0 0 333 -73 0 0 538 -36 0 0 307 -149 0 0 303 -149 0 0 281 -112 0 0 279 -112 0 0 277 -112 0 0 275 -112 0 0 261 -188 0 0 259 -188 0 0 257 -188 0 0 358 -36 0 0 354 -36 0 0 536 -36 0 0 348 -36 0 0 346 -36 0 0 260 -188 0 0 258 -188 0 0 256 -188 0 0 252 -112 0 0 229 -188 0 0 242 -73 0 0 244 -73 0 0 8222 -376 0 0 367 -112 0 0 245 -73 0 0 235 -112 0 0 249 -112 0 0 58 -159 0 0 224 -188 0 0 195 -188 0 0 234 -112 0 0 352 -36 0 0 341 -149 0 0 232 -112 0 0 196 -188 0 0 350 -36 0 0 193 -188 0 0 345 -149 0 0 251 -112 0 0 253 -188 0 0 227 -188 0 0 194 -188 0 0 65 -188 0 0 97 -188 0 0 228 -188 0 0 8220 -45 0 0 246 -73 0 0 250 -112 0 0 225 -188 0 0 46 -329 0 0 83 -36 0 0 84 -36 0 0 226 -188 0 0 233 -112 0 0 356 -36 0 0 283 -112 0 0 101 -112 0 0 105 -149 0 0 255 -188 0 0 111 -73 0 0 114 -149 0 0 117 -112 0 0 192 -188 0 0 121 -188 0 0 243 -73 0 0
EndChar
StartChar: G
Encoding: 71 71 71
Width: 1587
Flags: W
AnchorPoint: "above" 860 1520 basechar 0
Fore
1219 213 m 1,0,-1
 1219 614 l 1,1,-1
 889 614 l 1,2,-1
 889 780 l 1,3,-1
 1419 780 l 1,4,-1
 1419 139 l 1,5,6
 1302 56 1302 56 1161 13.5 c 128,-1,7
 1020 -29 1020 -29 860 -29 c 0,8,9
 510 -29 510 -29 312.5 175.5 c 128,-1,10
 115 380 115 380 115 745 c 0,11,12
 115 1111 115 1111 312.5 1315.5 c 128,-1,13
 510 1520 510 1520 860 1520 c 0,14,15
 1006 1520 1006 1520 1137.5 1484 c 128,-1,16
 1269 1448 1269 1448 1380 1378 c 1,17,-1
 1380 1163 l 1,18,19
 1268 1258 1268 1258 1142 1306 c 128,-1,20
 1016 1354 1016 1354 877 1354 c 0,21,22
 603 1354 603 1354 465.5 1201 c 128,-1,23
 328 1048 328 1048 328 745 c 0,24,25
 328 443 328 443 465.5 290 c 128,-1,26
 603 137 603 137 877 137 c 0,27,28
 984 137 984 137 1068 155.5 c 128,-1,29
 1152 174 1152 174 1219 213 c 1,0,-1
EndSplineSet
KernsSLIFO: 356 -73 0 0 221 -102 0 0 8222 -55 0 0 376 -102 0 0 8221 -45 0 0 8220 -45 0 0 187 -36 0 0 171 -36 0 0 89 -102 0 0 84 -73 0 0
EndChar
StartChar: H
Encoding: 72 72 72
Width: 1540
Flags: W
AnchorPoint: "above" 770 1520 basechar 0
Fore
201 1493 m 1,0,-1
 403 1493 l 1,1,-1
 403 881 l 1,2,-1
 1137 881 l 1,3,-1
 1137 1493 l 1,4,-1
 1339 1493 l 1,5,-1
 1339 0 l 1,6,-1
 1137 0 l 1,7,-1
 1137 711 l 1,8,-1
 403 711 l 1,9,-1
 403 0 l 1,10,-1
 201 0 l 1,11,-1
 201 1493 l 1,0,-1
EndSplineSet
KernsSLIFO: 8222 -73 0 0 8221 -63 0 0 8220 -73 0 0 46 -36 0 0
EndChar
StartChar: I
Encoding: 73 73 73
Width: 604
Flags: W
AnchorPoint: "above" 303 1520 basechar 0
Fore
201 1493 m 1,0,-1
 403 1493 l 1,1,-1
 403 0 l 1,2,-1
 201 0 l 1,3,-1
 201 1493 l 1,0,-1
EndSplineSet
EndChar
StartChar: J
Encoding: 74 74 74
Width: 604
Flags: W
AnchorPoint: "above" 302 1520 basechar 0
Fore
201 1493 m 1,0,-1
 403 1493 l 1,1,-1
 403 104 l 2,2,3
 403 -166 403 -166 300.5 -288 c 128,-1,4
 198 -410 198 -410 -29 -410 c 2,5,-1
 -106 -410 l 1,6,-1
 -106 -240 l 1,7,-1
 -43 -240 l 2,8,9
 91 -240 91 -240 146 -165 c 128,-1,10
 201 -90 201 -90 201 104 c 2,11,-1
 201 1493 l 1,0,-1
EndSplineSet
KernsSLIFO: 193 -36 0 0 194 -36 0 0 8222 -112 0 0 8221 -63 0 0 8220 -73 0 0 195 -36 0 0 192 -36 0 0 187 -36 0 0 171 -36 0 0 196 -36 0 0 65 -36 0 0 45 -73 0 0
EndChar
StartChar: K
Encoding: 75 75 75
Width: 1343
Flags: W
AnchorPoint: "above" 670 1520 basechar 0
Fore
201 1493 m 1,0,-1
 403 1493 l 1,1,-1
 403 862 l 1,2,-1
 1073 1493 l 1,3,-1
 1333 1493 l 1,4,-1
 592 797 l 1,5,-1
 1386 0 l 1,6,-1
 1120 0 l 1,7,-1
 403 719 l 1,8,-1
 403 0 l 1,9,-1
 201 0 l 1,10,-1
 201 1493 l 1,0,-1
EndSplineSet
KernsSLIFO: 367 -102 0 0 366 -55 0 0 356 -159 0 0 283 -102 0 0 268 -112 0 0 262 -112 0 0 253 -149 0 0 221 -73 0 0 217 -55 0 0 219 -55 0 0 218 -55 0 0 210 -112 0 0 212 -112 0 0 211 -112 0 0 193 -36 0 0 194 -36 0 0 376 -73 0 0 255 -149 0 0 8221 -63 0 0 8220 -63 0 0 213 -112 0 0 195 -36 0 0 192 -36 0 0 171 -131 0 0 252 -102 0 0 251 -102 0 0 249 -102 0 0 250 -102 0 0 245 -102 0 0 246 -102 0 0 244 -102 0 0 242 -102 0 0 243 -102 0 0 235 -102 0 0 234 -102 0 0 232 -102 0 0 233 -102 0 0 229 -36 0 0 227 -36 0 0 228 -36 0 0 226 -36 0 0 224 -36 0 0 225 -36 0 0 220 -55 0 0 214 -112 0 0 199 -112 0 0 196 -36 0 0 121 -149 0 0 117 -102 0 0 111 -102 0 0 101 -102 0 0 97 -36 0 0 89 -73 0 0 87 -73 0 0 85 -55 0 0 84 -159 0 0 79 -112 0 0 67 -112 0 0 65 -36 0 0 45 -215 0 0
EndChar
StartChar: L
Encoding: 76 76 76
Width: 1141
Flags: W
AnchorPoint: "above" 298 1520 basechar 0
Fore
201 1493 m 1,0,-1
 403 1493 l 1,1,-1
 403 170 l 1,2,-1
 1130 170 l 1,3,-1
 1130 0 l 1,4,-1
 201 0 l 1,5,-1
 201 1493 l 1,0,-1
EndSplineSet
KernsSLIFO: 367 -36 0 0 366 -102 0 0 356 -282 0 0 283 -36 0 0 253 -188 0 0 221 -272 0 0 217 -102 0 0 219 -102 0 0 218 -102 0 0 210 -73 0 0 212 -73 0 0 211 -73 0 0 193 47 0 0 194 47 0 0 376 -272 0 0 255 -188 0 0 8221 -538 0 0 8220 -415 0 0 213 -73 0 0 195 47 0 0 192 47 0 0 252 -36 0 0 251 -36 0 0 249 -36 0 0 250 -36 0 0 245 -36 0 0 246 -36 0 0 244 -36 0 0 242 -36 0 0 243 -36 0 0 235 -36 0 0 234 -36 0 0 232 -36 0 0 233 -36 0 0 220 -102 0 0 214 -73 0 0 196 47 0 0 121 -188 0 0 117 -36 0 0 111 -36 0 0 101 -36 0 0 89 -272 0 0 87 -188 0 0 86 -225 0 0 85 -102 0 0 84 -282 0 0 79 -73 0 0 65 47 0 0 45 -36 0 0
EndChar
StartChar: M
Encoding: 77 77 77
Width: 1767
Flags: W
AnchorPoint: "above" 883 1520 basechar 0
Fore
201 1493 m 1,0,-1
 502 1493 l 1,1,-1
 883 477 l 1,2,-1
 1266 1493 l 1,3,-1
 1567 1493 l 1,4,-1
 1567 0 l 1,5,-1
 1370 0 l 1,6,-1
 1370 1311 l 1,7,-1
 985 287 l 1,8,-1
 782 287 l 1,9,-1
 397 1311 l 1,10,-1
 397 0 l 1,11,-1
 201 0 l 1,12,-1
 201 1493 l 1,0,-1
EndSplineSet
EndChar
StartChar: N
Encoding: 78 78 78
Width: 1532
Flags: W
AnchorPoint: "above" 757 1506 basechar 0
Fore
201 1493 m 1,0,-1
 473 1493 l 1,1,-1
 1135 244 l 1,2,-1
 1135 1493 l 1,3,-1
 1331 1493 l 1,4,-1
 1331 0 l 1,5,-1
 1059 0 l 1,6,-1
 397 1249 l 1,7,-1
 397 0 l 1,8,-1
 201 0 l 1,9,-1
 201 1493 l 1,0,-1
EndSplineSet
EndChar
StartChar: O
Encoding: 79 79 79
Width: 1612
Flags: W
AnchorPoint: "above" 807 1520 basechar 0
Fore
807 1356 m 0,0,1
 587 1356 587 1356 457.5 1192 c 128,-1,2
 328 1028 328 1028 328 745 c 0,3,4
 328 463 328 463 457.5 299 c 128,-1,5
 587 135 587 135 807 135 c 0,6,7
 1027 135 1027 135 1155.5 299 c 128,-1,8
 1284 463 1284 463 1284 745 c 0,9,10
 1284 1028 1284 1028 1155.5 1192 c 128,-1,11
 1027 1356 1027 1356 807 1356 c 0,0,1
807 1520 m 0,12,13
 1121 1520 1121 1520 1309 1309.5 c 128,-1,14
 1497 1099 1497 1099 1497 745 c 0,15,16
 1497 392 1497 392 1309 181.5 c 128,-1,17
 1121 -29 1121 -29 807 -29 c 0,18,19
 492 -29 492 -29 303.5 181 c 128,-1,20
 115 391 115 391 115 745 c 0,21,22
 115 1099 115 1099 303.5 1309.5 c 128,-1,23
 492 1520 492 1520 807 1520 c 0,12,13
EndSplineSet
KernsSLIFO: 221 -112 0 0 193 -36 0 0 194 -36 0 0 8222 -188 0 0 376 -112 0 0 8221 -36 0 0 8220 -45 0 0 195 -36 0 0 192 -36 0 0 171 -36 0 0 196 -36 0 0 89 -112 0 0 88 -131 0 0 86 -36 0 0 65 -36 0 0 58 -36 0 0 46 -83 0 0 45 57 0 0
EndChar
StartChar: P
Encoding: 80 80 80
Width: 1235
Flags: W
AnchorPoint: "above" 670 1520 basechar 0
Fore
403 1327 m 1,0,-1
 403 766 l 1,1,-1
 657 766 l 2,2,3
 798 766 798 766 875 839 c 128,-1,4
 952 912 952 912 952 1047 c 0,5,6
 952 1181 952 1181 875 1254 c 128,-1,7
 798 1327 798 1327 657 1327 c 2,8,-1
 403 1327 l 1,0,-1
201 1493 m 1,9,-1
 657 1493 l 2,10,11
 908 1493 908 1493 1036.5 1379.5 c 128,-1,12
 1165 1266 1165 1266 1165 1047 c 0,13,14
 1165 826 1165 826 1036.5 713 c 128,-1,15
 908 600 908 600 657 600 c 2,16,-1
 403 600 l 1,17,-1
 403 0 l 1,18,-1
 201 0 l 1,19,-1
 201 1493 l 1,9,-1
EndSplineSet
KernsSLIFO: 252 -36 0 0 229 -92 0 0 242 -73 0 0 45 -45 0 0 8222 -329 0 0 367 -36 0 0 245 -73 0 0 235 -73 0 0 226 -92 0 0 249 -36 0 0 221 -45 0 0 224 -92 0 0 195 -131 0 0 234 -73 0 0 341 -36 0 0 8221 38 0 0 232 -73 0 0 196 -131 0 0 241 -36 0 0 193 -131 0 0 345 -36 0 0 233 -73 0 0 251 -36 0 0 227 -92 0 0 194 -131 0 0 244 -73 0 0 353 -36 0 0 65 -131 0 0 97 -92 0 0 228 -92 0 0 8220 38 0 0 246 -73 0 0 250 -36 0 0 351 -36 0 0 376 -45 0 0 225 -92 0 0 46 -319 0 0 89 -45 0 0 101 -73 0 0 283 -73 0 0 171 -36 0 0 105 -45 0 0 111 -73 0 0 110 -36 0 0 115 -36 0 0 114 -36 0 0 117 -36 0 0 192 -131 0 0 328 -36 0 0 243 -73 0 0
EndChar
StartChar: Q
Encoding: 81 81 81
Width: 1612
Flags: W
AnchorPoint: "above" 807 1520 basechar 0
Fore
807 1356 m 0,0,1
 587 1356 587 1356 457.5 1192 c 128,-1,2
 328 1028 328 1028 328 745 c 0,3,4
 328 463 328 463 457.5 299 c 128,-1,5
 587 135 587 135 807 135 c 0,6,7
 1027 135 1027 135 1155.5 299 c 128,-1,8
 1284 463 1284 463 1284 745 c 0,9,10
 1284 1028 1284 1028 1155.5 1192 c 128,-1,11
 1027 1356 1027 1356 807 1356 c 0,0,1
1090 27 m 1,12,-1
 1356 -264 l 1,13,-1
 1112 -264 l 1,14,-1
 891 -25 l 1,15,16
 858 -27 858 -27 840.5 -28 c 128,-1,17
 823 -29 823 -29 807 -29 c 0,18,19
 492 -29 492 -29 303.5 181.5 c 128,-1,20
 115 392 115 392 115 745 c 0,21,22
 115 1099 115 1099 303.5 1309.5 c 128,-1,23
 492 1520 492 1520 807 1520 c 0,24,25
 1121 1520 1121 1520 1309 1309.5 c 128,-1,26
 1497 1099 1497 1099 1497 745 c 0,27,28
 1497 485 1497 485 1392.5 300 c 128,-1,29
 1288 115 1288 115 1090 27 c 1,12,-1
EndSplineSet
KernsSLIFO: 8222 -131 0 0 8221 -36 0 0 8220 -45 0 0 45 57 0 0
EndChar
StartChar: R
Encoding: 82 82 82
Width: 1423
Flags: W
AnchorPoint: "above" 637 1506 basechar 0
Fore
909 700 m 1,0,1
 974 678 974 678 1035.5 606 c 128,-1,2
 1097 534 1097 534 1159 408 c 1,3,-1
 1364 0 l 1,4,-1
 1147 0 l 1,5,-1
 956 383 l 1,6,7
 882 533 882 533 812.5 582 c 128,-1,8
 743 631 743 631 623 631 c 2,9,-1
 403 631 l 1,10,-1
 403 0 l 1,11,-1
 201 0 l 1,12,-1
 201 1493 l 1,13,-1
 657 1493 l 2,14,15
 913 1493 913 1493 1039 1386 c 128,-1,16
 1165 1279 1165 1279 1165 1063 c 0,17,18
 1165 922 1165 922 1099.5 829 c 128,-1,19
 1034 736 1034 736 909 700 c 1,0,1
403 1327 m 1,20,-1
 403 797 l 1,21,-1
 657 797 l 2,22,23
 803 797 803 797 877.5 864.5 c 128,-1,24
 952 932 952 932 952 1063 c 0,25,26
 952 1194 952 1194 877.5 1260.5 c 128,-1,27
 803 1327 803 1327 657 1327 c 2,28,-1
 403 1327 l 1,20,-1
EndSplineSet
KernsSLIFO: 367 -92 0 0 356 -149 0 0 283 -92 0 0 268 -102 0 0 262 -102 0 0 253 -112 0 0 221 -131 0 0 193 -83 0 0 194 -83 0 0 8222 -36 0 0 376 -131 0 0 255 -112 0 0 8221 -131 0 0 8220 -149 0 0 195 -83 0 0 192 -83 0 0 187 -36 0 0 171 -112 0 0 252 -92 0 0 251 -92 0 0 249 -92 0 0 250 -92 0 0 245 -92 0 0 246 -92 0 0 244 -92 0 0 242 -92 0 0 243 -92 0 0 235 -92 0 0 234 -92 0 0 232 -92 0 0 233 -92 0 0 229 -45 0 0 227 -45 0 0 228 -45 0 0 226 -45 0 0 224 -45 0 0 225 -45 0 0 199 -102 0 0 196 -83 0 0 121 -112 0 0 117 -92 0 0 111 -92 0 0 101 -92 0 0 97 -45 0 0 89 -131 0 0 87 -83 0 0 86 -112 0 0 84 -149 0 0 67 -102 0 0 65 -83 0 0 58 -63 0 0 46 -73 0 0 45 -83 0 0
EndChar
StartChar: S
Encoding: 83 83 83
Width: 1300
Flags: W
AnchorPoint: "above" 659 1520 basechar 0
Fore
1096 1444 m 1,0,-1
 1096 1247 l 1,1,2
 981 1302 981 1302 879 1329 c 128,-1,3
 777 1356 777 1356 682 1356 c 0,4,5
 517 1356 517 1356 427.5 1292 c 128,-1,6
 338 1228 338 1228 338 1110 c 0,7,8
 338 1011 338 1011 397.5 960.5 c 128,-1,9
 457 910 457 910 623 879 c 1,10,-1
 745 854 l 1,11,12
 971 811 971 811 1078.5 702.5 c 128,-1,13
 1186 594 1186 594 1186 412 c 0,14,15
 1186 195 1186 195 1040.5 83 c 128,-1,16
 895 -29 895 -29 614 -29 c 0,17,18
 508 -29 508 -29 388.5 -5 c 128,-1,19
 269 19 269 19 141 66 c 1,20,-1
 141 274 l 1,21,22
 264 205 264 205 382 170 c 128,-1,23
 500 135 500 135 614 135 c 0,24,25
 787 135 787 135 881 203 c 128,-1,26
 975 271 975 271 975 397 c 0,27,28
 975 507 975 507 907.5 569 c 128,-1,29
 840 631 840 631 686 662 c 2,30,-1
 563 686 l 2,31,32
 337 731 337 731 236 827 c 128,-1,33
 135 923 135 923 135 1094 c 0,34,35
 135 1292 135 1292 274.5 1406 c 128,-1,36
 414 1520 414 1520 659 1520 c 0,37,38
 764 1520 764 1520 873 1501 c 128,-1,39
 982 1482 982 1482 1096 1444 c 1,0,-1
EndSplineSet
KernsSLIFO: 193 38 0 0 194 38 0 0 195 38 0 0 192 38 0 0 196 38 0 0 65 38 0 0
EndChar
StartChar: T
Encoding: 84 84 84
Width: 1251
Flags: W
AnchorPoint: "above" 627 1506 basechar 0
Fore
-6 1493 m 1,0,-1
 1257 1493 l 1,1,-1
 1257 1323 l 1,2,-1
 727 1323 l 1,3,-1
 727 0 l 1,4,-1
 524 0 l 1,5,-1
 524 1323 l 1,6,-1
 -6 1323 l 1,7,-1
 -6 1493 l 1,0,-1
EndSplineSet
KernsSLIFO: 252 -311 0 0 229 -339 0 0 242 -348 0 0 45 -188 0 0 8222 -264 0 0 268 -120 0 0 245 -348 0 0 235 -348 0 0 249 -311 0 0 58 -225 0 0 224 -339 0 0 195 -159 0 0 234 -348 0 0 231 -348 0 0 341 -301 0 0 8221 -45 0 0 232 -348 0 0 196 -159 0 0 262 -120 0 0 193 -159 0 0 269 -348 0 0 345 -301 0 0 233 -348 0 0 251 -311 0 0 253 -319 0 0 227 -339 0 0 194 -159 0 0 367 -311 0 0 244 -348 0 0 353 -339 0 0 65 -159 0 0 283 -348 0 0 67 -120 0 0 351 -339 0 0 228 -339 0 0 119 -339 0 0 246 -348 0 0 250 -311 0 0 263 -348 0 0 225 -339 0 0 46 -243 0 0 187 -112 0 0 84 -36 0 0 226 -339 0 0 101 -348 0 0 356 -36 0 0 97 -339 0 0 99 -348 0 0 171 -188 0 0 105 -63 0 0 255 -319 0 0 111 -348 0 0 115 -339 0 0 114 -301 0 0 117 -311 0 0 192 -159 0 0 121 -319 0 0 199 -120 0 0 243 -348 0 0
EndChar
StartChar: U
Encoding: 85 85 85
Width: 1499
Flags: W
AnchorPoint: "above" 750 1520 basechar 0
Fore
178 1493 m 1,0,-1
 381 1493 l 1,1,-1
 381 586 l 2,2,3
 381 346 381 346 468 240.5 c 128,-1,4
 555 135 555 135 750 135 c 0,5,6
 944 135 944 135 1031 240.5 c 128,-1,7
 1118 346 1118 346 1118 586 c 2,8,-1
 1118 1493 l 1,9,-1
 1321 1493 l 1,10,-1
 1321 561 l 2,11,12
 1321 269 1321 269 1176.5 120 c 128,-1,13
 1032 -29 1032 -29 750 -29 c 0,14,15
 467 -29 467 -29 322.5 120 c 128,-1,16
 178 269 178 269 178 561 c 2,17,-1
 178 1493 l 1,0,-1
EndSplineSet
KernsSLIFO: 381 -36 0 0 90 -36 0 0
EndChar
StartChar: V
Encoding: 86 86 86
Width: 1401
Flags: W
AnchorPoint: "above" 700 1520 basechar 0
Fore
586 0 m 1,0,-1
 16 1493 l 1,1,-1
 227 1493 l 1,2,-1
 700 236 l 1,3,-1
 1174 1493 l 1,4,-1
 1384 1493 l 1,5,-1
 815 0 l 1,6,-1
 586 0 l 1,0,-1
EndSplineSet
KernsSLIFO: 367 -139 0 0 283 -159 0 0 253 -55 0 0 210 -36 0 0 212 -36 0 0 211 -36 0 0 193 -131 0 0 194 -131 0 0 8222 -282 0 0 255 -55 0 0 213 -36 0 0 195 -131 0 0 192 -131 0 0 187 -112 0 0 171 -178 0 0 252 -139 0 0 251 -139 0 0 249 -139 0 0 250 -139 0 0 245 -159 0 0 246 -159 0 0 244 -159 0 0 242 -159 0 0 243 -159 0 0 235 -159 0 0 234 -159 0 0 232 -159 0 0 233 -159 0 0 229 -159 0 0 227 -159 0 0 228 -159 0 0 226 -159 0 0 224 -159 0 0 225 -159 0 0 214 -36 0 0 196 -131 0 0 121 -55 0 0 117 -139 0 0 111 -159 0 0 105 -45 0 0 101 -159 0 0 97 -159 0 0 79 -36 0 0 65 -131 0 0 58 -167 0 0 46 -264 0 0 45 -120 0 0
EndChar
StartChar: W
Encoding: 87 87 87
Width: 2025
Flags: W
AnchorPoint: "above" 1013 1527 basechar 0
Fore
68 1493 m 1,0,-1
 272 1493 l 1,1,-1
 586 231 l 1,2,-1
 899 1493 l 1,3,-1
 1126 1493 l 1,4,-1
 1440 231 l 1,5,-1
 1753 1493 l 1,6,-1
 1958 1493 l 1,7,-1
 1583 0 l 1,8,-1
 1329 0 l 1,9,-1
 1014 1296 l 1,10,-1
 696 0 l 1,11,-1
 442 0 l 1,12,-1
 68 1493 l 1,0,-1
EndSplineSet
KernsSLIFO: 252 -73 0 0 229 -131 0 0 242 -120 0 0 45 -83 0 0 8222 -264 0 0 367 -73 0 0 245 -120 0 0 235 -120 0 0 249 -73 0 0 58 -120 0 0 224 -131 0 0 195 -112 0 0 234 -120 0 0 341 -92 0 0 232 -120 0 0 196 -112 0 0 193 -112 0 0 345 -92 0 0 233 -120 0 0 251 -73 0 0 253 -36 0 0 227 -131 0 0 194 -112 0 0 244 -120 0 0 65 -112 0 0 97 -131 0 0 187 -36 0 0 228 -131 0 0 8220 -36 0 0 246 -120 0 0 250 -73 0 0 225 -131 0 0 46 -235 0 0 226 -131 0 0 101 -120 0 0 283 -120 0 0 171 -112 0 0 105 -45 0 0 255 -36 0 0 111 -120 0 0 114 -92 0 0 117 -73 0 0 192 -112 0 0 121 -36 0 0 243 -120 0 0
EndChar
StartChar: X
Encoding: 88 88 88
Width: 1403
Flags: W
AnchorPoint: "above" 717 1520 basechar 0
Fore
129 1493 m 1,0,-1
 346 1493 l 1,1,-1
 717 938 l 1,2,-1
 1090 1493 l 1,3,-1
 1307 1493 l 1,4,-1
 827 776 l 1,5,-1
 1339 0 l 1,6,-1
 1122 0 l 1,7,-1
 702 635 l 1,8,-1
 279 0 l 1,9,-1
 61 0 l 1,10,-1
 594 797 l 1,11,-1
 129 1493 l 1,0,-1
EndSplineSet
KernsSLIFO: 356 -36 0 0 283 -92 0 0 268 -149 0 0 262 -149 0 0 210 -131 0 0 212 -131 0 0 211 -131 0 0 8222 -45 0 0 8221 -83 0 0 8220 -159 0 0 213 -131 0 0 171 -112 0 0 235 -92 0 0 234 -92 0 0 232 -92 0 0 233 -92 0 0 214 -131 0 0 199 -149 0 0 101 -92 0 0 84 -36 0 0 79 -131 0 0 67 -149 0 0 45 -102 0 0
EndChar
StartChar: Y
Encoding: 89 89 89
Width: 1251
Flags: W
AnchorPoint: "above" 626 1527 basechar 0
Fore
-4 1493 m 1,0,-1
 213 1493 l 1,1,-1
 627 879 l 1,2,-1
 1038 1493 l 1,3,-1
 1255 1493 l 1,4,-1
 727 711 l 1,5,-1
 727 0 l 1,6,-1
 524 0 l 1,7,-1
 524 711 l 1,8,-1
 -4 1493 l 1,0,-1
EndSplineSet
KernsSLIFO: 367 -235 0 0 283 -272 0 0 268 -112 0 0 262 -112 0 0 210 -112 0 0 212 -112 0 0 211 -112 0 0 193 -159 0 0 194 -159 0 0 8222 -264 0 0 8221 -36 0 0 8220 -112 0 0 213 -112 0 0 195 -159 0 0 192 -159 0 0 187 -149 0 0 171 -225 0 0 252 -235 0 0 251 -235 0 0 249 -235 0 0 250 -235 0 0 245 -272 0 0 246 -272 0 0 244 -272 0 0 242 -272 0 0 243 -272 0 0 235 -272 0 0 234 -272 0 0 232 -272 0 0 233 -272 0 0 229 -282 0 0 227 -282 0 0 228 -282 0 0 226 -282 0 0 224 -282 0 0 225 -282 0 0 214 -112 0 0 199 -112 0 0 196 -159 0 0 117 -235 0 0 111 -272 0 0 105 -73 0 0 101 -272 0 0 97 -282 0 0 79 -112 0 0 67 -112 0 0 65 -159 0 0 58 -272 0 0 46 -415 0 0 45 -243 0 0
EndChar
StartChar: Z
Encoding: 90 90 90
Width: 1403
Flags: W
AnchorPoint: "above" 702 1520 basechar 0
Fore
115 1493 m 1,0,-1
 1288 1493 l 1,1,-1
 1288 1339 l 1,2,-1
 344 170 l 1,3,-1
 1311 170 l 1,4,-1
 1311 0 l 1,5,-1
 92 0 l 1,6,-1
 92 154 l 1,7,-1
 1036 1323 l 1,8,-1
 115 1323 l 1,9,-1
 115 1493 l 1,0,-1
EndSplineSet
KernsSLIFO: 8222 -36 0 0 8221 -36 0 0 8220 -36 0 0 45 -36 0 0
EndChar
StartChar: bracketleft
Encoding: 91 91 91
Width: 799
Flags: W
Fore
176 1556 m 1,0,-1
 600 1556 l 1,1,-1
 600 1413 l 1,2,-1
 360 1413 l 1,3,-1
 360 -127 l 1,4,-1
 600 -127 l 1,5,-1
 600 -270 l 1,6,-1
 176 -270 l 1,7,-1
 176 1556 l 1,0,-1
EndSplineSet
EndChar
StartChar: backslash
Encoding: 92 92 92
Width: 690
Flags: W
Fore
170 1493 m 1,0,-1
 690 -190 l 1,1,-1
 520 -190 l 1,2,-1
 0 1493 l 1,3,-1
 170 1493 l 1,0,-1
EndSplineSet
EndChar
StartChar: bracketright
Encoding: 93 93 93
Width: 799
Flags: W
Fore
623 1556 m 1,0,-1
 623 -270 l 1,1,-1
 199 -270 l 1,2,-1
 199 -127 l 1,3,-1
 438 -127 l 1,4,-1
 438 1413 l 1,5,-1
 199 1413 l 1,6,-1
 199 1556 l 1,7,-1
 623 1556 l 1,0,-1
EndSplineSet
EndChar
StartChar: asciicircum
Encoding: 94 94 94
Width: 1716
Flags: W
Fore
956 1493 m 1,0,-1
 1499 936 l 1,1,-1
 1298 936 l 1,2,-1
 858 1331 l 1,3,-1
 418 936 l 1,4,-1
 217 936 l 1,5,-1
 760 1493 l 1,6,-1
 956 1493 l 1,0,-1
EndSplineSet
EndChar
StartChar: underscore
Encoding: 95 95 95
Width: 1024
Flags: W
Fore
1044 -340 m 1,0,-1
 1044 -483 l 1,1,-1
 -20 -483 l 1,2,-1
 -20 -340 l 1,3,-1
 1044 -340 l 1,0,-1
EndSplineSet
EndChar
StartChar: grave
Encoding: 96 96 96
Width: 1024
Flags: W
Fore
367 1638 m 1,0,-1
 649 1264 l 1,1,-1
 496 1264 l 1,2,-1
 170 1638 l 1,3,-1
 367 1638 l 1,0,-1
EndSplineSet
EndChar
StartChar: a
Encoding: 97 97 97
Width: 1255
Flags: W
AnchorPoint: "below" 596 0 basechar 0
AnchorPoint: "above" 596 1147 basechar 0
Fore
702 563 m 2,0,1
 479 563 479 563 393 512 c 128,-1,2
 307 461 307 461 307 338 c 0,3,4
 307 240 307 240 371.5 182.5 c 128,-1,5
 436 125 436 125 547 125 c 0,6,7
 700 125 700 125 792.5 233.5 c 128,-1,8
 885 342 885 342 885 522 c 2,9,-1
 885 563 l 1,10,-1
 702 563 l 2,0,1
1069 639 m 2,11,-1
 1069 0 l 1,12,-1
 885 0 l 1,13,-1
 885 170 l 1,14,15
 822 68 822 68 728 19.5 c 128,-1,16
 634 -29 634 -29 498 -29 c 0,17,18
 326 -29 326 -29 224.5 67.5 c 128,-1,19
 123 164 123 164 123 326 c 0,20,21
 123 515 123 515 249.5 611 c 128,-1,22
 376 707 376 707 627 707 c 2,23,-1
 885 707 l 1,24,-1
 885 725 l 2,25,26
 885 852 885 852 801.5 921.5 c 128,-1,27
 718 991 718 991 567 991 c 0,28,29
 471 991 471 991 380 968 c 128,-1,30
 289 945 289 945 205 899 c 1,31,-1
 205 1069 l 1,32,33
 306 1108 306 1108 401 1127.5 c 128,-1,34
 496 1147 496 1147 586 1147 c 0,35,36
 829 1147 829 1147 949 1021 c 128,-1,37
 1069 895 1069 895 1069 639 c 2,11,-1
EndSplineSet
EndChar
StartChar: b
Encoding: 98 98 98
Width: 1300
Flags: W
AnchorPoint: "below" 695 0 basechar 0
AnchorPoint: "above" 278 1520 basechar 0
Fore
997 559 m 0,0,1
 997 762 997 762 913.5 877.5 c 128,-1,2
 830 993 830 993 684 993 c 0,3,4
 538 993 538 993 454.5 877.5 c 128,-1,5
 371 762 371 762 371 559 c 0,6,7
 371 356 371 356 454.5 240.5 c 128,-1,8
 538 125 538 125 684 125 c 0,9,10
 830 125 830 125 913.5 240.5 c 128,-1,11
 997 356 997 356 997 559 c 0,0,1
371 950 m 1,12,13
 429 1050 429 1050 517.5 1098.5 c 128,-1,14
 606 1147 606 1147 729 1147 c 0,15,16
 933 1147 933 1147 1060.5 985 c 128,-1,17
 1188 823 1188 823 1188 559 c 0,18,19
 1188 295 1188 295 1060.5 133 c 128,-1,20
 933 -29 933 -29 729 -29 c 0,21,22
 606 -29 606 -29 517.5 19.5 c 128,-1,23
 429 68 429 68 371 168 c 1,24,-1
 371 0 l 1,25,-1
 186 0 l 1,26,-1
 186 1556 l 1,27,-1
 371 1556 l 1,28,-1
 371 950 l 1,12,13
EndSplineSet
EndChar
StartChar: c
Encoding: 99 99 99
Width: 1126
Flags: W
AnchorPoint: "below" 678 0 basechar 0
AnchorPoint: "above" 678 1147 basechar 0
Fore
999 1077 m 1,0,-1
 999 905 l 1,1,2
 921 948 921 948 842.5 969.5 c 128,-1,3
 764 991 764 991 684 991 c 0,4,5
 505 991 505 991 406 877.5 c 128,-1,6
 307 764 307 764 307 559 c 0,7,8
 307 354 307 354 406 240.5 c 128,-1,9
 505 127 505 127 684 127 c 0,10,11
 764 127 764 127 842.5 148.5 c 128,-1,12
 921 170 921 170 999 213 c 1,13,-1
 999 43 l 1,14,15
 922 7 922 7 839.5 -11 c 128,-1,16
 757 -29 757 -29 664 -29 c 0,17,18
 411 -29 411 -29 262 130 c 128,-1,19
 113 289 113 289 113 559 c 0,20,21
 113 833 113 833 263.5 990 c 128,-1,22
 414 1147 414 1147 676 1147 c 0,23,24
 761 1147 761 1147 842 1129.5 c 128,-1,25
 923 1112 923 1112 999 1077 c 1,0,-1
EndSplineSet
EndChar
StartChar: d
Encoding: 100 100 100
Width: 1300
Flags: W
AnchorPoint: "below" 614 0 basechar 0
AnchorPoint: "above" 1022 1520 basechar 0
Fore
930 950 m 1,0,-1
 930 1556 l 1,1,-1
 1114 1556 l 1,2,-1
 1114 0 l 1,3,-1
 930 0 l 1,4,-1
 930 168 l 1,5,6
 872 68 872 68 783.5 19.5 c 128,-1,7
 695 -29 695 -29 571 -29 c 0,8,9
 368 -29 368 -29 240.5 133 c 128,-1,10
 113 295 113 295 113 559 c 0,11,12
 113 823 113 823 240.5 985 c 128,-1,13
 368 1147 368 1147 571 1147 c 0,14,15
 695 1147 695 1147 783.5 1098.5 c 128,-1,16
 872 1050 872 1050 930 950 c 1,0,-1
303 559 m 0,17,18
 303 356 303 356 386.5 240.5 c 128,-1,19
 470 125 470 125 616 125 c 0,20,21
 762 125 762 125 846 240.5 c 128,-1,22
 930 356 930 356 930 559 c 0,23,24
 930 762 930 762 846 877.5 c 128,-1,25
 762 993 762 993 616 993 c 0,26,27
 470 993 470 993 386.5 877.5 c 128,-1,28
 303 762 303 762 303 559 c 0,17,18
EndSplineSet
EndChar
StartChar: e
Encoding: 101 101 101
Width: 1260
Flags: W
AnchorPoint: "below" 660 0 basechar 0
AnchorPoint: "above" 653 1147 basechar 0
Fore
1151 606 m 2,0,-1
 1151 516 l 1,1,-1
 305 516 l 1,2,3
 317 326 317 326 419.5 226.5 c 128,-1,4
 522 127 522 127 705 127 c 0,5,6
 811 127 811 127 910.5 153 c 128,-1,7
 1010 179 1010 179 1108 231 c 1,8,-1
 1108 57 l 1,9,10
 1009 15 1009 15 905 -7 c 128,-1,11
 801 -29 801 -29 694 -29 c 0,12,13
 426 -29 426 -29 269.5 127 c 128,-1,14
 113 283 113 283 113 549 c 0,15,16
 113 824 113 824 261.5 985.5 c 128,-1,17
 410 1147 410 1147 662 1147 c 0,18,19
 888 1147 888 1147 1019.5 1001.5 c 128,-1,20
 1151 856 1151 856 1151 606 c 2,0,-1
967 660 m 1,21,22
 965 811 965 811 882.5 901 c 128,-1,23
 800 991 800 991 664 991 c 0,24,25
 510 991 510 991 417.5 904 c 128,-1,26
 325 817 325 817 311 659 c 1,27,-1
 967 660 l 1,21,22
EndSplineSet
KernsSLIFO: 120 -36 0 0
EndChar
StartChar: f
Encoding: 102 102 102
Width: 721
Flags: W
AnchorPoint: "below" 315 0 basechar 0
AnchorPoint: "above" 315 1520 basechar 0
Fore
760 1556 m 1,0,-1
 760 1403 l 1,1,-1
 584 1403 l 2,2,3
 485 1403 485 1403 446.5 1363 c 128,-1,4
 408 1323 408 1323 408 1219 c 2,5,-1
 408 1120 l 1,6,-1
 711 1120 l 1,7,-1
 711 977 l 1,8,-1
 408 977 l 1,9,-1
 408 0 l 1,10,-1
 223 0 l 1,11,-1
 223 977 l 1,12,-1
 47 977 l 1,13,-1
 47 1120 l 1,14,-1
 223 1120 l 1,15,-1
 223 1198 l 2,16,17
 223 1385 223 1385 310 1470.5 c 128,-1,18
 397 1556 397 1556 586 1556 c 2,19,-1
 760 1556 l 1,0,-1
EndSplineSet
KernsSLIFO: 357 -36 0 0 253 -36 0 0 8222 -235 0 0 255 -36 0 0 8220 65 0 0 187 -36 0 0 171 -73 0 0 121 -36 0 0 119 -36 0 0 116 -36 0 0 58 -73 0 0 46 -149 0 0 45 -112 0 0
EndChar
StartChar: g
Encoding: 103 103 103
Width: 1300
Flags: W
AnchorPoint: "below" 678 -430 basechar 0
AnchorPoint: "above" 618 1147 basechar 0
Fore
930 573 m 0,0,1
 930 773 930 773 847.5 883 c 128,-1,2
 765 993 765 993 616 993 c 0,3,4
 468 993 468 993 385.5 883 c 128,-1,5
 303 773 303 773 303 573 c 0,6,7
 303 374 303 374 385.5 264 c 128,-1,8
 468 154 468 154 616 154 c 0,9,10
 765 154 765 154 847.5 264 c 128,-1,11
 930 374 930 374 930 573 c 0,0,1
1114 139 m 2,12,13
 1114 -147 1114 -147 987 -286.5 c 128,-1,14
 860 -426 860 -426 598 -426 c 0,15,16
 501 -426 501 -426 415 -411.5 c 128,-1,17
 329 -397 329 -397 248 -367 c 1,18,-1
 248 -188 l 1,19,20
 329 -232 329 -232 408 -253 c 128,-1,21
 487 -274 487 -274 569 -274 c 0,22,23
 750 -274 750 -274 840 -179.5 c 128,-1,24
 930 -85 930 -85 930 106 c 2,25,-1
 930 197 l 1,26,27
 873 98 873 98 784 49 c 128,-1,28
 695 0 695 0 571 0 c 0,29,30
 365 0 365 0 239 157 c 128,-1,31
 113 314 113 314 113 573 c 0,32,33
 113 833 113 833 239 990 c 128,-1,34
 365 1147 365 1147 571 1147 c 0,35,36
 695 1147 695 1147 784 1098 c 128,-1,37
 873 1049 873 1049 930 950 c 1,38,-1
 930 1120 l 1,39,-1
 1114 1120 l 1,40,-1
 1114 139 l 2,12,13
EndSplineSet
EndChar
StartChar: h
Encoding: 104 104 104
Width: 1298
Flags: W
AnchorPoint: "below" 678 0 basechar 0
AnchorPoint: "above" 278 1520 basechar 0
Fore
1124 676 m 2,0,-1
 1124 0 l 1,1,-1
 940 0 l 1,2,-1
 940 670 l 2,3,4
 940 829 940 829 878 908 c 128,-1,5
 816 987 816 987 692 987 c 0,6,7
 543 987 543 987 457 892 c 128,-1,8
 371 797 371 797 371 633 c 2,9,-1
 371 0 l 1,10,-1
 186 0 l 1,11,-1
 186 1556 l 1,12,-1
 371 1556 l 1,13,-1
 371 946 l 1,14,15
 437 1047 437 1047 526.5 1097 c 128,-1,16
 616 1147 616 1147 733 1147 c 0,17,18
 926 1147 926 1147 1025 1027.5 c 128,-1,19
 1124 908 1124 908 1124 676 c 2,0,-1
EndSplineSet
EndChar
StartChar: i
Encoding: 105 105 105
Width: 569
Flags: W
AnchorPoint: "below" 287 0 basechar 0
AnchorPoint: "above" 287 1583 basechar 0
Fore
193 1120 m 1,0,-1
 377 1120 l 1,1,-1
 377 0 l 1,2,-1
 193 0 l 1,3,-1
 193 1120 l 1,0,-1
193 1556 m 1,4,-1
 377 1556 l 1,5,-1
 377 1323 l 1,6,-1
 193 1323 l 1,7,-1
 193 1556 l 1,4,-1
EndSplineSet
Substitution: 0 65534 's001' dotlessi
EndChar
StartChar: j
Encoding: 106 106 106
Width: 569
Flags: W
AnchorPoint: "below" 287 -430 basechar 0
AnchorPoint: "above" 287 1583 basechar 0
Fore
193 1120 m 1,0,-1
 377 1120 l 1,1,-1
 377 -20 l 2,2,3
 377 -234 377 -234 295.5 -330 c 128,-1,4
 214 -426 214 -426 33 -426 c 2,5,-1
 -37 -426 l 1,6,-1
 -37 -270 l 1,7,-1
 12 -270 l 2,8,9
 117 -270 117 -270 155 -221.5 c 128,-1,10
 193 -173 193 -173 193 -20 c 2,11,-1
 193 1120 l 1,0,-1
193 1556 m 1,12,-1
 377 1556 l 1,13,-1
 377 1323 l 1,14,-1
 193 1323 l 1,15,-1
 193 1556 l 1,12,-1
EndSplineSet
Substitution: 0 65534 's001' dotlessj
EndChar
StartChar: k
Encoding: 107 107 107
Width: 1186
Flags: W
AnchorPoint: "below" 678 0 basechar 0
AnchorPoint: "above" 278 1520 basechar 0
Fore
186 1556 m 1,0,-1
 371 1556 l 1,1,-1
 371 637 l 1,2,-1
 920 1120 l 1,3,-1
 1155 1120 l 1,4,-1
 561 596 l 1,5,-1
 1180 0 l 1,6,-1
 940 0 l 1,7,-1
 371 547 l 1,8,-1
 371 0 l 1,9,-1
 186 0 l 1,10,-1
 186 1556 l 1,0,-1
EndSplineSet
KernsSLIFO: 367 -63 0 0 283 -73 0 0 253 -73 0 0 255 -73 0 0 252 -63 0 0 251 -63 0 0 249 -63 0 0 250 -63 0 0 245 -73 0 0 246 -73 0 0 244 -73 0 0 242 -73 0 0 243 -73 0 0 235 -73 0 0 234 -73 0 0 232 -73 0 0 233 -73 0 0 229 -36 0 0 227 -36 0 0 228 -36 0 0 226 -36 0 0 224 -36 0 0 225 -36 0 0 121 -73 0 0 117 -63 0 0 111 -73 0 0 101 -73 0 0 97 -36 0 0
EndChar
StartChar: l
Encoding: 108 108 108
Width: 569
Flags: W
AnchorPoint: "below" 278 0 basechar 0
AnchorPoint: "above" 278 1520 basechar 0
Fore
193 1556 m 1,0,-1
 377 1556 l 1,1,-1
 377 0 l 1,2,-1
 193 0 l 1,3,-1
 193 1556 l 1,0,-1
EndSplineSet
EndChar
StartChar: m
Encoding: 109 109 109
Width: 1995
Flags: W
AnchorPoint: "below" 1001 0 basechar 0
AnchorPoint: "above" 1001 1147 basechar 0
Fore
1065 905 m 1,0,1
 1134 1029 1134 1029 1230 1088 c 128,-1,2
 1326 1147 1326 1147 1456 1147 c 0,3,4
 1631 1147 1631 1147 1726 1024.5 c 128,-1,5
 1821 902 1821 902 1821 676 c 2,6,-1
 1821 0 l 1,7,-1
 1636 0 l 1,8,-1
 1636 670 l 2,9,10
 1636 831 1636 831 1579 909 c 128,-1,11
 1522 987 1522 987 1405 987 c 0,12,13
 1262 987 1262 987 1179 892 c 128,-1,14
 1096 797 1096 797 1096 633 c 2,15,-1
 1096 0 l 1,16,-1
 911 0 l 1,17,-1
 911 670 l 2,18,19
 911 832 911 832 854 909.5 c 128,-1,20
 797 987 797 987 678 987 c 0,21,22
 537 987 537 987 454 891.5 c 128,-1,23
 371 796 371 796 371 633 c 2,24,-1
 371 0 l 1,25,-1
 186 0 l 1,26,-1
 186 1120 l 1,27,-1
 371 1120 l 1,28,-1
 371 946 l 1,29,30
 434 1049 434 1049 522 1098 c 128,-1,31
 610 1147 610 1147 731 1147 c 0,32,33
 853 1147 853 1147 938.5 1085 c 128,-1,34
 1024 1023 1024 1023 1065 905 c 1,0,1
EndSplineSet
EndChar
StartChar: n
Encoding: 110 110 110
Width: 1298
Flags: W
AnchorPoint: "below" 678 0 basechar 0
AnchorPoint: "above" 649 1147 basechar 0
Fore
1124 676 m 2,0,-1
 1124 0 l 1,1,-1
 940 0 l 1,2,-1
 940 670 l 2,3,4
 940 829 940 829 878 908 c 128,-1,5
 816 987 816 987 692 987 c 0,6,7
 543 987 543 987 457 892 c 128,-1,8
 371 797 371 797 371 633 c 2,9,-1
 371 0 l 1,10,-1
 186 0 l 1,11,-1
 186 1120 l 1,12,-1
 371 1120 l 1,13,-1
 371 946 l 1,14,15
 437 1047 437 1047 526.5 1097 c 128,-1,16
 616 1147 616 1147 733 1147 c 0,17,18
 926 1147 926 1147 1025 1027.5 c 128,-1,19
 1124 908 1124 908 1124 676 c 2,0,-1
EndSplineSet
KernsSLIFO: 8222 -92 0 0 8221 -112 0 0 8220 -149 0 0
EndChar
StartChar: o
Encoding: 111 111 111
Width: 1253
Flags: W
AnchorPoint: "below" 637 0 basechar 0
AnchorPoint: "above" 637 1147 basechar 0
Fore
627 991 m 0,0,1
 479 991 479 991 393 875.5 c 128,-1,2
 307 760 307 760 307 559 c 0,3,4
 307 358 307 358 392.5 242.5 c 128,-1,5
 478 127 478 127 627 127 c 0,6,7
 774 127 774 127 860 243 c 128,-1,8
 946 359 946 359 946 559 c 0,9,10
 946 758 946 758 860 874.5 c 128,-1,11
 774 991 774 991 627 991 c 0,0,1
627 1147 m 0,12,13
 867 1147 867 1147 1004 991 c 128,-1,14
 1141 835 1141 835 1141 559 c 0,15,16
 1141 284 1141 284 1004 127.5 c 128,-1,17
 867 -29 867 -29 627 -29 c 0,18,19
 386 -29 386 -29 249.5 127.5 c 128,-1,20
 113 284 113 284 113 559 c 0,21,22
 113 835 113 835 249.5 991 c 128,-1,23
 386 1147 386 1147 627 1147 c 0,12,13
EndSplineSet
KernsSLIFO: 8222 -131 0 0 8221 -73 0 0 8220 -149 0 0 120 -63 0 0 46 -36 0 0 45 38 0 0
EndChar
StartChar: p
Encoding: 112 112 112
Width: 1300
Flags: W
AnchorPoint: "below" 678 -430 basechar 0
AnchorPoint: "above" 678 1147 basechar 0
Fore
371 168 m 1,0,-1
 371 -426 l 1,1,-1
 186 -426 l 1,2,-1
 186 1120 l 1,3,-1
 371 1120 l 1,4,-1
 371 950 l 1,5,6
 429 1050 429 1050 517.5 1098.5 c 128,-1,7
 606 1147 606 1147 729 1147 c 0,8,9
 933 1147 933 1147 1060.5 985 c 128,-1,10
 1188 823 1188 823 1188 559 c 0,11,12
 1188 295 1188 295 1060.5 133 c 128,-1,13
 933 -29 933 -29 729 -29 c 0,14,15
 606 -29 606 -29 517.5 19.5 c 128,-1,16
 429 68 429 68 371 168 c 1,0,-1
997 559 m 0,17,18
 997 762 997 762 913.5 877.5 c 128,-1,19
 830 993 830 993 684 993 c 0,20,21
 538 993 538 993 454.5 877.5 c 128,-1,22
 371 762 371 762 371 559 c 0,23,24
 371 356 371 356 454.5 240.5 c 128,-1,25
 538 125 538 125 684 125 c 0,26,27
 830 125 830 125 913.5 240.5 c 128,-1,28
 997 356 997 356 997 559 c 0,17,18
EndSplineSet
EndChar
StartChar: q
Encoding: 113 113 113
Width: 1300
Flags: W
AnchorPoint: "below" 648 -430 basechar 0
AnchorPoint: "above" 623 1147 basechar 0
Fore
303 559 m 0,0,1
 303 356 303 356 386.5 240.5 c 128,-1,2
 470 125 470 125 616 125 c 0,3,4
 762 125 762 125 846 240.5 c 128,-1,5
 930 356 930 356 930 559 c 0,6,7
 930 762 930 762 846 877.5 c 128,-1,8
 762 993 762 993 616 993 c 0,9,10
 470 993 470 993 386.5 877.5 c 128,-1,11
 303 762 303 762 303 559 c 0,0,1
930 168 m 1,12,13
 872 68 872 68 783.5 19.5 c 128,-1,14
 695 -29 695 -29 571 -29 c 0,15,16
 368 -29 368 -29 240.5 133 c 128,-1,17
 113 295 113 295 113 559 c 0,18,19
 113 823 113 823 240.5 985 c 128,-1,20
 368 1147 368 1147 571 1147 c 0,21,22
 695 1147 695 1147 783.5 1098.5 c 128,-1,23
 872 1050 872 1050 930 950 c 1,24,-1
 930 1120 l 1,25,-1
 1114 1120 l 1,26,-1
 1114 -426 l 1,27,-1
 930 -426 l 1,28,-1
 930 168 l 1,12,13
EndSplineSet
EndChar
StartChar: r
Encoding: 114 114 114
Width: 842
Flags: W
AnchorPoint: "below" 535 0 basechar 0
AnchorPoint: "above" 535 1147 basechar 0
Fore
842 948 m 1,0,1
 811 966 811 966 774.5 974.5 c 128,-1,2
 738 983 738 983 694 983 c 0,3,4
 538 983 538 983 454.5 881.5 c 128,-1,5
 371 780 371 780 371 590 c 2,6,-1
 371 0 l 1,7,-1
 186 0 l 1,8,-1
 186 1120 l 1,9,-1
 371 1120 l 1,10,-1
 371 946 l 1,11,12
 429 1048 429 1048 522 1097.5 c 128,-1,13
 615 1147 615 1147 748 1147 c 0,14,15
 767 1147 767 1147 790 1144.5 c 128,-1,16
 813 1142 813 1142 841 1137 c 1,17,-1
 842 948 l 1,0,1
EndSplineSet
KernsSLIFO: 242 -45 0 0 45 -131 0 0 8222 -311 0 0 235 -45 0 0 58 -36 0 0 233 -45 0 0 231 -45 0 0 341 -36 0 0 8221 86 0 0 232 -45 0 0 245 -45 0 0 269 -45 0 0 271 72 0 0 345 -36 0 0 241 -36 0 0 244 -45 0 0 287 -36 0 0 234 -45 0 0 246 -45 0 0 263 -45 0 0 46 -188 0 0 120 -55 0 0 101 -45 0 0 283 -45 0 0 99 -45 0 0 171 -73 0 0 100 -36 0 0 103 -36 0 0 104 -36 0 0 109 -36 0 0 111 -45 0 0 110 -36 0 0 113 -36 0 0 114 -36 0 0 328 -36 0 0 243 -45 0 0
EndChar
StartChar: s
Encoding: 115 115 115
Width: 1067
Flags: W
AnchorPoint: "below" 551 0 basechar 0
AnchorPoint: "above" 551 1147 basechar 0
Fore
907 1087 m 1,0,-1
 907 913 l 1,1,2
 829 953 829 953 745 973 c 128,-1,3
 661 993 661 993 571 993 c 0,4,5
 434 993 434 993 365.5 951 c 128,-1,6
 297 909 297 909 297 825 c 0,7,8
 297 761 297 761 346 724.5 c 128,-1,9
 395 688 395 688 543 655 c 2,10,-1
 606 641 l 2,11,12
 802 599 802 599 884.5 522.5 c 128,-1,13
 967 446 967 446 967 309 c 0,14,15
 967 153 967 153 843.5 62 c 128,-1,16
 720 -29 720 -29 504 -29 c 0,17,18
 414 -29 414 -29 316.5 -11.5 c 128,-1,19
 219 6 219 6 111 41 c 1,20,-1
 111 231 l 1,21,22
 213 178 213 178 312 151.5 c 128,-1,23
 411 125 411 125 508 125 c 0,24,25
 638 125 638 125 708 169.5 c 128,-1,26
 778 214 778 214 778 295 c 0,27,28
 778 370 778 370 727.5 410 c 128,-1,29
 677 450 677 450 506 487 c 2,30,-1
 442 502 l 1,31,32
 271 538 271 538 195 612.5 c 128,-1,33
 119 687 119 687 119 817 c 0,34,35
 119 975 119 975 231 1061 c 128,-1,36
 343 1147 343 1147 549 1147 c 0,37,38
 651 1147 651 1147 741 1132 c 128,-1,39
 831 1117 831 1117 907 1087 c 1,0,-1
EndSplineSet
EndChar
StartChar: t
Encoding: 116 116 116
Width: 803
Flags: W
AnchorPoint: "below" 500 0 basechar 0
AnchorPoint: "above" 282 1520 basechar 0
Fore
375 1438 m 1,0,-1
 375 1120 l 1,1,-1
 754 1120 l 1,2,-1
 754 977 l 1,3,-1
 375 977 l 1,4,-1
 375 369 l 2,5,6
 375 232 375 232 412.5 193 c 128,-1,7
 450 154 450 154 565 154 c 2,8,-1
 754 154 l 1,9,-1
 754 0 l 1,10,-1
 565 0 l 2,11,12
 352 0 352 0 271 79.5 c 128,-1,13
 190 159 190 159 190 369 c 2,14,-1
 190 977 l 1,15,-1
 55 977 l 1,16,-1
 55 1120 l 1,17,-1
 190 1120 l 1,18,-1
 190 1438 l 1,19,-1
 375 1438 l 1,0,-1
EndSplineSet
EndChar
StartChar: u
Encoding: 117 117 117
Width: 1298
Flags: W
AnchorPoint: "below" 678 0 basechar 0
AnchorPoint: "above" 637 1147 basechar 0
Fore
174 442 m 2,0,-1
 174 1120 l 1,1,-1
 358 1120 l 1,2,-1
 358 449 l 2,3,4
 358 290 358 290 420 210.5 c 128,-1,5
 482 131 482 131 606 131 c 0,6,7
 755 131 755 131 841.5 226 c 128,-1,8
 928 321 928 321 928 485 c 2,9,-1
 928 1120 l 1,10,-1
 1112 1120 l 1,11,-1
 1112 0 l 1,12,-1
 928 0 l 1,13,-1
 928 172 l 1,14,15
 861 70 861 70 772.5 20.5 c 128,-1,16
 684 -29 684 -29 567 -29 c 0,17,18
 374 -29 374 -29 274 91 c 128,-1,19
 174 211 174 211 174 442 c 2,0,-1
EndSplineSet
EndChar
StartChar: v
Encoding: 118 118 118
Width: 1212
Flags: W
AnchorPoint: "below" 606 0 basechar 0
AnchorPoint: "above" 606 1147 basechar 0
Fore
61 1120 m 1,0,-1
 256 1120 l 1,1,-1
 606 180 l 1,2,-1
 956 1120 l 1,3,-1
 1151 1120 l 1,4,-1
 731 0 l 1,5,-1
 481 0 l 1,6,-1
 61 1120 l 1,0,-1
EndSplineSet
KernsSLIFO: 8222 -272 0 0 8221 -36 0 0 187 -36 0 0 171 -36 0 0 58 -112 0 0 46 -159 0 0 45 -55 0 0
EndChar
StartChar: w
Encoding: 119 119 119
Width: 1675
Flags: W
AnchorPoint: "below" 839 0 basechar 0
AnchorPoint: "above" 839 1154 basechar 0
Fore
86 1120 m 1,0,-1
 270 1120 l 1,1,-1
 500 246 l 1,2,-1
 729 1120 l 1,3,-1
 946 1120 l 1,4,-1
 1176 246 l 1,5,-1
 1405 1120 l 1,6,-1
 1589 1120 l 1,7,-1
 1296 0 l 1,8,-1
 1079 0 l 1,9,-1
 838 918 l 1,10,-1
 596 0 l 1,11,-1
 379 0 l 1,12,-1
 86 1120 l 1,0,-1
EndSplineSet
KernsSLIFO: 8222 -215 0 0 187 -36 0 0 171 -36 0 0 58 -112 0 0 46 -188 0 0
EndChar
StartChar: x
Encoding: 120 120 120
Width: 1212
Flags: W
AnchorPoint: "below" 610 0 basechar 0
AnchorPoint: "above" 610 1147 basechar 0
Fore
1124 1120 m 1,0,-1
 719 575 l 1,1,-1
 1145 0 l 1,2,-1
 928 0 l 1,3,-1
 602 440 l 1,4,-1
 276 0 l 1,5,-1
 59 0 l 1,6,-1
 494 586 l 1,7,-1
 96 1120 l 1,8,-1
 313 1120 l 1,9,-1
 610 721 l 1,10,-1
 907 1120 l 1,11,-1
 1124 1120 l 1,0,-1
EndSplineSet
KernsSLIFO: 283 -63 0 0 269 -36 0 0 263 -36 0 0 245 -63 0 0 246 -63 0 0 244 -63 0 0 242 -63 0 0 243 -63 0 0 235 -63 0 0 234 -63 0 0 232 -63 0 0 233 -63 0 0 231 -36 0 0 111 -63 0 0 101 -63 0 0 99 -36 0 0
EndChar
StartChar: y
Encoding: 121 121 121
Width: 1212
Flags: W
AnchorPoint: "below" 608 -430 basechar 0
AnchorPoint: "above" 608 1154 basechar 0
Fore
659 -104 m 1,0,1
 581 -304 581 -304 507 -365 c 128,-1,2
 433 -426 433 -426 309 -426 c 2,3,-1
 162 -426 l 1,4,-1
 162 -272 l 1,5,-1
 270 -272 l 2,6,7
 346 -272 346 -272 388 -236 c 128,-1,8
 430 -200 430 -200 481 -66 c 1,9,-1
 514 18 l 1,10,-1
 61 1120 l 1,11,-1
 256 1120 l 1,12,-1
 606 244 l 1,13,-1
 956 1120 l 1,14,-1
 1151 1120 l 1,15,-1
 659 -104 l 1,0,1
EndSplineSet
KernsSLIFO: 8222 -301 0 0 187 -36 0 0 171 -36 0 0 58 -149 0 0 46 -292 0 0 45 -36 0 0
EndChar
StartChar: z
Encoding: 122 122 122
Width: 1075
Flags: W
AnchorPoint: "below" 535 0 basechar 0
AnchorPoint: "above" 535 1147 basechar 0
Fore
113 1120 m 1,0,-1
 987 1120 l 1,1,-1
 987 952 l 1,2,-1
 295 147 l 1,3,-1
 987 147 l 1,4,-1
 987 0 l 1,5,-1
 88 0 l 1,6,-1
 88 168 l 1,7,-1
 780 973 l 1,8,-1
 113 973 l 1,9,-1
 113 1120 l 1,0,-1
EndSplineSet
EndChar
StartChar: braceleft
Encoding: 123 123 123
Width: 1303
Flags: W
Fore
1047 -190 m 1,0,-1
 1047 -334 l 1,1,-1
 985 -334 l 2,2,3
 736 -334 736 -334 651.5 -260 c 128,-1,4
 567 -186 567 -186 567 35 c 2,5,-1
 567 274 l 2,6,7
 567 425 567 425 513 483 c 128,-1,8
 459 541 459 541 317 541 c 2,9,-1
 256 541 l 1,10,-1
 256 684 l 1,11,-1
 317 684 l 2,12,13
 460 684 460 684 513.5 741.5 c 128,-1,14
 567 799 567 799 567 948 c 2,15,-1
 567 1188 l 2,16,17
 567 1409 567 1409 651.5 1482.5 c 128,-1,18
 736 1556 736 1556 985 1556 c 2,19,-1
 1047 1556 l 1,20,-1
 1047 1413 l 1,21,-1
 979 1413 l 2,22,23
 838 1413 838 1413 795 1369 c 128,-1,24
 752 1325 752 1325 752 1184 c 2,25,-1
 752 936 l 2,26,27
 752 779 752 779 706.5 708 c 128,-1,28
 661 637 661 637 551 612 c 1,29,30
 662 585 662 585 707 514 c 128,-1,31
 752 443 752 443 752 287 c 2,32,-1
 752 39 l 2,33,34
 752 -102 752 -102 795 -146 c 128,-1,35
 838 -190 838 -190 979 -190 c 2,36,-1
 1047 -190 l 1,0,-1
EndSplineSet
EndChar
StartChar: bar
Encoding: 124 124 124
Width: 690
Flags: W
Fore
430 1565 m 1,0,-1
 430 -483 l 1,1,-1
 260 -483 l 1,2,-1
 260 1565 l 1,3,-1
 430 1565 l 1,0,-1
EndSplineSet
EndChar
StartChar: braceright
Encoding: 125 125 125
Width: 1303
Flags: W
Fore
256 -190 m 1,0,-1
 326 -190 l 2,1,2
 466 -190 466 -190 508.5 -147 c 128,-1,3
 551 -104 551 -104 551 39 c 2,4,-1
 551 287 l 2,5,6
 551 443 551 443 596 514 c 128,-1,7
 641 585 641 585 752 612 c 1,8,9
 641 637 641 637 596 708 c 128,-1,10
 551 779 551 779 551 936 c 2,11,-1
 551 1184 l 2,12,13
 551 1326 551 1326 508.5 1369.5 c 128,-1,14
 466 1413 466 1413 326 1413 c 2,15,-1
 256 1413 l 1,16,-1
 256 1556 l 1,17,-1
 319 1556 l 2,18,19
 568 1556 568 1556 651.5 1482.5 c 128,-1,20
 735 1409 735 1409 735 1188 c 2,21,-1
 735 948 l 2,22,23
 735 799 735 799 789 741.5 c 128,-1,24
 843 684 843 684 985 684 c 2,25,-1
 1047 684 l 1,26,-1
 1047 541 l 1,27,-1
 985 541 l 2,28,29
 843 541 843 541 789 483 c 128,-1,30
 735 425 735 425 735 274 c 2,31,-1
 735 35 l 2,32,33
 735 -186 735 -186 651.5 -260 c 128,-1,34
 568 -334 568 -334 319 -334 c 2,35,-1
 256 -334 l 1,36,-1
 256 -190 l 1,0,-1
EndSplineSet
EndChar
StartChar: asciitilde
Encoding: 126 126 126
Width: 1716
Flags: W
Fore
1499 817 m 1,0,-1
 1499 639 l 1,1,2
 1394 560 1394 560 1304.5 526 c 128,-1,3
 1215 492 1215 492 1118 492 c 0,4,5
 1008 492 1008 492 862 551 c 0,6,7
 851 555 851 555 846 557 c 0,8,9
 839 560 839 560 824 565 c 0,10,11
 669 627 669 627 575 627 c 0,12,13
 487 627 487 627 401 588.5 c 128,-1,14
 315 550 315 550 217 467 c 1,15,-1
 217 645 l 1,16,17
 322 724 322 724 411.5 758.5 c 128,-1,18
 501 793 501 793 598 793 c 0,19,20
 708 793 708 793 855 733 c 0,21,22
 865 729 865 729 870 727 c 0,23,24
 878 724 878 724 892 719 c 0,25,26
 1047 657 1047 657 1141 657 c 0,27,28
 1227 657 1227 657 1311.5 695 c 128,-1,29
 1396 733 1396 733 1499 817 c 1,0,-1
EndSplineSet
EndChar
StartChar: exclamdown
Encoding: 161 161 161
Width: 821
Flags: W
Fore
512 1239 m 1,0,-1
 309 1239 l 1,1,-1
 309 1493 l 1,2,-1
 512 1493 l 1,3,-1
 512 1239 l 1,0,-1
512 0 m 1,4,-1
 309 0 l 1,5,-1
 309 655 l 1,6,-1
 330 1012 l 1,7,-1
 492 1012 l 1,8,-1
 512 655 l 1,9,-1
 512 0 l 1,4,-1
EndSplineSet
EndChar
StartChar: cent
Encoding: 162 162 162
Width: 1303
Flags: W
Fore
678 131 m 1,0,-1
 678 987 l 1,1,2
 531 969 531 969 449 856 c 128,-1,3
 367 743 367 743 367 559 c 0,4,5
 367 374 367 374 449 261 c 128,-1,6
 531 148 531 148 678 131 c 1,0,-1
1059 1077 m 1,7,-1
 1059 905 l 1,8,9
 985 946 985 946 917 967 c 128,-1,10
 849 988 849 988 781 991 c 1,11,-1
 780 127 l 1,12,13
 850 132 850 132 918.5 153 c 128,-1,14
 987 174 987 174 1059 213 c 1,15,-1
 1059 43 l 1,16,17
 994 13 994 13 925.5 -4.5 c 128,-1,18
 857 -22 857 -22 780 -29 c 1,19,-1
 780 -313 l 1,20,-1
 678 -313 l 1,21,-1
 678 -25 l 1,22,23
 437 -5 437 -5 304.5 148.5 c 128,-1,24
 172 302 172 302 172 559 c 0,25,26
 172 817 172 817 304.5 970 c 128,-1,27
 437 1123 437 1123 678 1145 c 1,28,-1
 678 1432 l 1,29,-1
 780 1432 l 1,30,-1
 781 1145 l 1,31,32
 854 1141 854 1141 922.5 1124.5 c 128,-1,33
 991 1108 991 1108 1059 1077 c 1,7,-1
EndSplineSet
EndChar
StartChar: sterling
Encoding: 163 163 163
Width: 1303
Flags: W
Fore
1102 1460 m 1,0,-1
 1102 1278 l 1,1,2
 1026 1319 1026 1319 958 1339.5 c 128,-1,3
 890 1360 890 1360 829 1360 c 0,4,5
 681 1360 681 1360 623 1282.5 c 128,-1,6
 565 1205 565 1205 565 993 c 2,7,-1
 565 778 l 1,8,-1
 956 778 l 1,9,-1
 956 635 l 1,10,-1
 565 635 l 1,11,-1
 565 170 l 1,12,-1
 1122 170 l 1,13,-1
 1122 0 l 1,14,-1
 129 0 l 1,15,-1
 129 170 l 1,16,-1
 365 170 l 1,17,-1
 365 635 l 1,18,-1
 166 635 l 1,19,-1
 166 778 l 1,20,-1
 365 778 l 1,21,-1
 365 1016 l 2,22,23
 365 1277 365 1277 472 1398.5 c 128,-1,24
 579 1520 579 1520 811 1520 c 0,25,26
 872 1520 872 1520 947.5 1504.5 c 128,-1,27
 1023 1489 1023 1489 1102 1460 c 1,0,-1
EndSplineSet
EndChar
StartChar: currency
Encoding: 164 164 164
Width: 1303
Flags: W
Fore
891 993 m 1,0,-1
 1098 1202 l 1,1,-1
 1212 1087 l 1,2,-1
 1006 881 l 1,3,4
 1043 822 1043 822 1061 762.5 c 128,-1,5
 1079 703 1079 703 1079 641 c 0,6,7
 1079 578 1079 578 1060 520.5 c 128,-1,8
 1041 463 1041 463 1001 406 c 1,9,-1
 1210 199 l 1,10,-1
 1096 86 l 1,11,-1
 889 293 l 1,12,13
 830 253 830 253 772 234 c 128,-1,14
 714 215 714 215 653 215 c 0,15,16
 595 215 595 215 535 233.5 c 128,-1,17
 475 252 475 252 414 289 c 1,18,-1
 207 82 l 1,19,-1
 94 197 l 1,20,-1
 301 403 l 1,21,22
 264 465 264 465 245.5 524 c 128,-1,23
 227 583 227 583 227 641 c 0,24,25
 227 705 227 705 246 763 c 128,-1,26
 265 821 265 821 303 877 c 1,27,-1
 96 1083 l 1,28,-1
 211 1198 l 1,29,-1
 418 991 l 1,30,31
 473 1030 473 1030 531 1048.5 c 128,-1,32
 589 1067 589 1067 653 1067 c 0,33,34
 713 1067 713 1067 771.5 1049 c 128,-1,35
 830 1031 830 1031 891 993 c 1,0,-1
922 643 m 0,36,37
 922 755 922 755 844.5 832 c 128,-1,38
 767 909 767 909 653 909 c 0,39,40
 541 909 541 909 462 832 c 128,-1,41
 383 755 383 755 383 643 c 0,42,43
 383 529 383 529 461.5 451 c 128,-1,44
 540 373 540 373 653 373 c 0,45,46
 766 373 766 373 844 451.5 c 128,-1,47
 922 530 922 530 922 643 c 0,36,37
EndSplineSet
EndChar
StartChar: yen
Encoding: 165 165 165
Width: 1303
Flags: W
Fore
1165 455 m 1,0,-1
 752 455 l 1,1,-1
 752 0 l 1,2,-1
 551 0 l 1,3,-1
 551 455 l 1,4,-1
 135 455 l 1,5,-1
 135 578 l 1,6,-1
 551 578 l 1,7,-1
 551 629 l 1,8,-1
 467 784 l 1,9,-1
 135 784 l 1,10,-1
 135 907 l 1,11,-1
 399 907 l 1,12,-1
 82 1493 l 1,13,-1
 272 1493 l 1,14,-1
 651 793 l 1,15,-1
 1028 1493 l 1,16,-1
 1219 1493 l 1,17,-1
 901 907 l 1,18,-1
 1165 907 l 1,19,-1
 1165 784 l 1,20,-1
 834 784 l 1,21,-1
 750 629 l 1,22,-1
 750 578 l 1,23,-1
 1165 578 l 1,24,-1
 1165 455 l 1,0,-1
EndSplineSet
EndChar
StartChar: brokenbar
Encoding: 166 166 166
Width: 690
Flags: W
Fore
430 408 m 1,0,-1
 430 -350 l 1,1,-1
 260 -350 l 1,2,-1
 260 408 l 1,3,-1
 430 408 l 1,0,-1
430 1432 m 1,4,-1
 430 674 l 1,5,-1
 260 674 l 1,6,-1
 260 1432 l 1,7,-1
 430 1432 l 1,4,-1
EndSplineSet
EndChar
StartChar: section
Encoding: 167 167 167
Width: 1024
Flags: W
Fore
379 936 m 1,0,1
 316 890 316 890 285 845 c 128,-1,2
 254 800 254 800 254 754 c 0,3,4
 254 678 254 678 323.5 611.5 c 128,-1,5
 393 545 393 545 643 410 c 1,6,7
 706 455 706 455 737 500.5 c 128,-1,8
 768 546 768 546 768 592 c 0,9,10
 768 667 768 667 696.5 735 c 128,-1,11
 625 803 625 803 379 936 c 1,0,1
829 1462 m 1,12,-1
 829 1298 l 1,13,14
 746 1337 746 1337 674.5 1356.5 c 128,-1,15
 603 1376 603 1376 547 1376 c 0,16,17
 450 1376 450 1376 396 1336 c 128,-1,18
 342 1296 342 1296 342 1225 c 0,19,20
 342 1135 342 1135 548 1020 c 0,21,22
 574 1005 574 1005 588 997 c 0,23,24
 799 878 799 878 864.5 801 c 128,-1,25
 930 724 930 724 930 623 c 0,26,27
 930 533 930 533 884 463 c 128,-1,28
 838 393 838 393 745 340 c 1,29,30
 807 288 807 288 835.5 233.5 c 128,-1,31
 864 179 864 179 864 115 c 0,32,33
 864 -27 864 -27 762 -111 c 128,-1,34
 660 -195 660 -195 487 -195 c 0,35,36
 414 -195 414 -195 337 -180.5 c 128,-1,37
 260 -166 260 -166 172 -137 c 1,38,-1
 172 27 l 1,39,40
 259 -12 259 -12 333 -31.5 c 128,-1,41
 407 -51 407 -51 465 -51 c 0,42,43
 567 -51 567 -51 623.5 -9 c 128,-1,44
 680 33 680 33 680 109 c 0,45,46
 680 211 680 211 459 334 c 2,47,-1
 434 348 l 2,48,49
 220 468 220 468 156 544.5 c 128,-1,50
 92 621 92 621 92 723 c 0,51,52
 92 814 92 814 138.5 885.5 c 128,-1,53
 185 957 185 957 276 1006 c 1,54,55
 217 1050 217 1050 187.5 1106 c 128,-1,56
 158 1162 158 1162 158 1231 c 0,57,58
 158 1361 158 1361 258 1440.5 c 128,-1,59
 358 1520 358 1520 524 1520 c 0,60,61
 597 1520 597 1520 673.5 1505.5 c 128,-1,62
 750 1491 750 1491 829 1462 c 1,12,-1
EndSplineSet
EndChar
StartChar: dieresis
Encoding: 168 168 168
Width: 1024
Flags: W
Fore
606 1552 m 1,0,-1
 809 1552 l 1,1,-1
 809 1350 l 1,2,-1
 606 1350 l 1,3,-1
 606 1552 l 1,0,-1
215 1552 m 1,4,-1
 418 1552 l 1,5,-1
 418 1350 l 1,6,-1
 215 1350 l 1,7,-1
 215 1552 l 1,4,-1
EndSplineSet
LCarets: 0 65535 '    ' 1 0 
Ligature: 0 1 'liga' space uni0308
EndChar
StartChar: copyright
Encoding: 169 169 169
Width: 2048
Flags: W
Fore
1024 1485 m 0,0,1
 1176 1485 1176 1485 1307.5 1430 c 128,-1,2
 1439 1375 1439 1375 1548 1266 c 0,3,4
 1657 1157 1657 1157 1711 1026 c 128,-1,5
 1765 895 1765 895 1765 741 c 0,6,7
 1765 589 1765 589 1711 458.5 c 128,-1,8
 1657 328 1657 328 1548 219 c 0,9,10
 1439 110 1439 110 1307.5 55 c 128,-1,11
 1176 0 1176 0 1024 0 c 0,12,13
 872 0 872 0 740.5 55 c 128,-1,14
 609 110 609 110 500 219 c 0,15,16
 391 328 391 328 337 458.5 c 128,-1,17
 283 589 283 589 283 741 c 0,18,19
 283 895 283 895 337 1026 c 128,-1,20
 391 1157 391 1157 500 1266 c 0,21,22
 609 1375 609 1375 740.5 1430 c 128,-1,23
 872 1485 872 1485 1024 1485 c 0,0,1
1024 1382 m 0,24,25
 893 1382 893 1382 780 1335 c 128,-1,26
 667 1288 667 1288 573 1194 c 0,27,28
 479 1100 479 1100 431 985.5 c 128,-1,29
 383 871 383 871 383 741 c 0,30,31
 383 612 383 612 431 498.5 c 128,-1,32
 479 385 479 385 573 291 c 0,33,34
 667 197 667 197 780 149.5 c 128,-1,35
 893 102 893 102 1024 102 c 0,36,37
 1156 102 1156 102 1269.5 149.5 c 128,-1,38
 1383 197 1383 197 1477 291 c 0,39,40
 1570 384 1570 384 1616.5 497 c 128,-1,41
 1663 610 1663 610 1663 741 c 0,42,43
 1663 874 1663 874 1616 987.5 c 128,-1,44
 1569 1101 1569 1101 1477 1194 c 0,45,46
 1383 1288 1383 1288 1269.5 1335 c 128,-1,47
 1156 1382 1156 1382 1024 1382 c 0,24,25
1323 1137 m 1,48,-1
 1323 1008 l 1,49,50
 1257 1041 1257 1041 1192 1057 c 128,-1,51
 1127 1073 1127 1073 1061 1073 c 0,52,53
 912 1073 912 1073 828.5 985.5 c 128,-1,54
 745 898 745 898 745 741 c 0,55,56
 745 582 745 582 830.5 495 c 128,-1,57
 916 408 916 408 1071 408 c 0,58,59
 1135 408 1135 408 1196 423.5 c 128,-1,60
 1257 439 1257 439 1323 473 c 1,61,-1
 1323 346 l 1,62,63
 1256 317 1256 317 1187.5 303 c 128,-1,64
 1119 289 1119 289 1049 289 c 0,65,66
 833 289 833 289 707.5 411 c 128,-1,67
 582 533 582 533 582 741 c 0,68,69
 582 950 582 950 707.5 1071 c 128,-1,70
 833 1192 833 1192 1049 1192 c 0,71,72
 1122 1192 1122 1192 1190 1178 c 128,-1,73
 1258 1164 1258 1164 1323 1137 c 1,48,-1
EndSplineSet
EndChar
StartChar: ordfeminine
Encoding: 170 170 170
Width: 965
Flags: W
Fore
139 592 m 1,0,-1
 827 592 l 1,1,-1
 827 469 l 1,2,-1
 139 469 l 1,3,-1
 139 592 l 1,0,-1
825 1165 m 2,4,-1
 825 717 l 1,5,-1
 676 717 l 1,6,-1
 676 829 l 1,7,8
 632 766 632 766 560 732 c 128,-1,9
 488 698 488 698 395 698 c 0,10,11
 267 698 267 698 191 765.5 c 128,-1,12
 115 833 115 833 115 946 c 0,13,14
 115 1081 115 1081 210.5 1150 c 128,-1,15
 306 1219 306 1219 494 1219 c 2,16,-1
 676 1219 l 1,17,-1
 676 1223 l 2,18,19
 676 1314 676 1314 617.5 1359.5 c 128,-1,20
 559 1405 559 1405 442 1405 c 0,21,22
 380 1405 380 1405 312 1388 c 128,-1,23
 244 1371 244 1371 176 1337 c 1,24,-1
 176 1464 l 1,25,26
 249 1492 249 1492 321.5 1506 c 128,-1,27
 394 1520 394 1520 463 1520 c 0,28,29
 646 1520 646 1520 735.5 1432 c 128,-1,30
 825 1344 825 1344 825 1165 c 2,4,-1
549 1104 m 2,31,32
 388 1104 388 1104 325 1070.5 c 128,-1,33
 262 1037 262 1037 262 958 c 0,34,35
 262 894 262 894 311 855.5 c 128,-1,36
 360 817 360 817 442 817 c 0,37,38
 546 817 546 817 611 889 c 128,-1,39
 676 961 676 961 676 1075 c 2,40,-1
 676 1104 l 1,41,-1
 549 1104 l 2,31,32
EndSplineSet
EndChar
StartChar: guillemotleft
Encoding: 171 171 171
Width: 1253
Flags: W
Fore
1061 1059 m 1,0,-1
 1061 868 l 1,1,-1
 760 600 l 1,2,-1
 1061 332 l 1,3,-1
 1061 141 l 1,4,-1
 592 559 l 1,5,-1
 592 641 l 1,6,-1
 1061 1059 l 1,0,-1
627 1059 m 1,7,-1
 627 868 l 1,8,-1
 326 600 l 1,9,-1
 627 332 l 1,10,-1
 627 141 l 1,11,-1
 158 559 l 1,12,-1
 158 641 l 1,13,-1
 627 1059 l 1,7,-1
EndSplineSet
KernsSLIFO: 356 -112 0 0 270 -36 0 0 268 -36 0 0 262 -36 0 0 286 -36 0 0 253 -36 0 0 221 -149 0 0 376 -149 0 0 255 -36 0 0 198 151 0 0 199 -36 0 0 121 -36 0 0 119 -36 0 0 118 -36 0 0 89 -149 0 0 87 -36 0 0 86 -112 0 0 84 -112 0 0 74 -36 0 0 71 -36 0 0 68 -36 0 0 67 -36 0 0 66 -36 0 0
EndChar
StartChar: logicalnot
Encoding: 172 172 172
Width: 1716
Flags: W
Fore
217 862 m 1,0,-1
 1499 862 l 1,1,-1
 1499 287 l 1,2,-1
 1331 287 l 1,3,-1
 1331 692 l 1,4,-1
 217 692 l 1,5,-1
 217 862 l 1,0,-1
EndSplineSet
EndChar
StartChar: sfthyphen
Encoding: 173 173 173
Width: 739
Flags: W
Fore
100 643 m 1,0,-1
 639 643 l 1,1,-1
 639 479 l 1,2,-1
 100 479 l 1,3,-1
 100 643 l 1,0,-1
EndSplineSet
EndChar
StartChar: registered
Encoding: 174 174 174
Width: 2048
Flags: W
Fore
1024 1382 m 0,0,1
 893 1382 893 1382 780 1335 c 128,-1,2
 667 1288 667 1288 573 1194 c 0,3,4
 479 1100 479 1100 431 985.5 c 128,-1,5
 383 871 383 871 383 741 c 0,6,7
 383 612 383 612 431 498.5 c 128,-1,8
 479 385 479 385 573 291 c 0,9,10
 667 197 667 197 780 149.5 c 128,-1,11
 893 102 893 102 1024 102 c 0,12,13
 1156 102 1156 102 1269.5 149.5 c 128,-1,14
 1383 197 1383 197 1477 291 c 0,15,16
 1570 384 1570 384 1616.5 497 c 128,-1,17
 1663 610 1663 610 1663 741 c 0,18,19
 1663 874 1663 874 1616 987.5 c 128,-1,20
 1569 1101 1569 1101 1477 1194 c 0,21,22
 1383 1288 1383 1288 1269.5 1335 c 128,-1,23
 1156 1382 1156 1382 1024 1382 c 0,0,1
1024 1485 m 0,24,25
 1176 1485 1176 1485 1307.5 1430 c 128,-1,26
 1439 1375 1439 1375 1548 1266 c 0,27,28
 1657 1157 1657 1157 1711 1026 c 128,-1,29
 1765 895 1765 895 1765 741 c 0,30,31
 1765 589 1765 589 1711 458.5 c 128,-1,32
 1657 328 1657 328 1548 219 c 0,33,34
 1439 110 1439 110 1307.5 55 c 128,-1,35
 1176 0 1176 0 1024 0 c 0,36,37
 872 0 872 0 740.5 55 c 128,-1,38
 609 110 609 110 500 219 c 0,39,40
 391 328 391 328 337 458.5 c 128,-1,41
 283 589 283 589 283 741 c 0,42,43
 283 895 283 895 337 1026 c 128,-1,44
 391 1157 391 1157 500 1266 c 0,45,46
 609 1375 609 1375 740.5 1430 c 128,-1,47
 872 1485 872 1485 1024 1485 c 0,24,25
997 1071 m 2,48,-1
 874 1071 l 1,49,-1
 874 795 l 1,50,-1
 997 795 l 2,51,52
 1107 795 1107 795 1150.5 826 c 128,-1,53
 1194 857 1194 857 1194 932 c 0,54,55
 1194 1008 1194 1008 1150 1039.5 c 128,-1,56
 1106 1071 1106 1071 997 1071 c 2,48,-1
1004 1174 m 2,57,58
 1180 1174 1180 1174 1267 1114.5 c 128,-1,59
 1354 1055 1354 1055 1354 934 c 0,60,61
 1354 848 1354 848 1301.5 792 c 128,-1,62
 1249 736 1249 736 1153 719 c 1,63,64
 1177 711 1177 711 1210.5 672.5 c 128,-1,65
 1244 634 1244 634 1290 561 c 1,66,-1
 1427 338 l 1,67,-1
 1255 338 l 1,68,-1
 1126 547 l 2,69,70
 1067 643 1067 643 1030.5 668.5 c 128,-1,71
 994 694 994 694 940 694 c 2,72,-1
 874 694 l 1,73,-1
 874 338 l 1,74,-1
 719 338 l 1,75,-1
 719 1174 l 1,76,-1
 1004 1174 l 2,57,58
EndSplineSet
EndChar
StartChar: macron
Encoding: 175 175 175
Width: 1024
Flags: W
Fore
213 1526 m 1,0,-1
 811 1526 l 1,1,-1
 811 1378 l 1,2,-1
 213 1378 l 1,3,-1
 213 1526 l 1,0,-1
EndSplineSet
LCarets: 0 65535 '    ' 1 0 
Ligature: 0 1 'liga' space uni0304
EndChar
StartChar: degree
Encoding: 176 176 176
Width: 1024
Flags: W
Fore
512 1391 m 0,0,1
 432 1391 432 1391 377 1335.5 c 128,-1,2
 322 1280 322 1280 322 1200 c 0,3,4
 322 1121 322 1121 377 1066.5 c 128,-1,5
 432 1012 432 1012 512 1012 c 0,6,7
 592 1012 592 1012 647 1066.5 c 128,-1,8
 702 1121 702 1121 702 1200 c 0,9,10
 702 1279 702 1279 646.5 1335 c 128,-1,11
 591 1391 591 1391 512 1391 c 0,0,1
512 1520 m 0,12,13
 576 1520 576 1520 635 1495.5 c 128,-1,14
 694 1471 694 1471 737 1425 c 1,15,16
 783 1380 783 1380 806 1323 c 128,-1,17
 829 1266 829 1266 829 1200 c 0,18,19
 829 1068 829 1068 736.5 976.5 c 128,-1,20
 644 885 644 885 510 885 c 0,21,22
 375 885 375 885 285 975 c 128,-1,23
 195 1065 195 1065 195 1200 c 0,24,25
 195 1334 195 1334 287 1427 c 128,-1,26
 379 1520 379 1520 512 1520 c 0,12,13
EndSplineSet
EndChar
StartChar: plusminus
Encoding: 177 177 177
Width: 1716
Flags: W
Fore
942 1284 m 1,0,-1
 942 897 l 1,1,-1
 1499 897 l 1,2,-1
 1499 727 l 1,3,-1
 942 727 l 1,4,-1
 942 340 l 1,5,-1
 774 340 l 1,6,-1
 774 727 l 1,7,-1
 217 727 l 1,8,-1
 217 897 l 1,9,-1
 774 897 l 1,10,-1
 774 1284 l 1,11,-1
 942 1284 l 1,0,-1
217 170 m 1,12,-1
 1499 170 l 1,13,-1
 1499 0 l 1,14,-1
 217 0 l 1,15,-1
 217 170 l 1,12,-1
EndSplineSet
EndChar
StartChar: twosuperior
Encoding: 178 178 178
Width: 821
Flags: W
Fore
268 782 m 1,0,-1
 692 782 l 1,1,-1
 692 668 l 1,2,-1
 94 668 l 1,3,-1
 94 778 l 1,4,5
 128 809 128 809 191 865 c 0,6,7
 535 1170 535 1170 535 1264 c 0,8,9
 535 1330 535 1330 483 1370.5 c 128,-1,10
 431 1411 431 1411 346 1411 c 0,11,12
 294 1411 294 1411 233 1393.5 c 128,-1,13
 172 1376 172 1376 100 1341 c 1,14,-1
 100 1464 l 1,15,16
 177 1492 177 1492 243.5 1506 c 128,-1,17
 310 1520 310 1520 367 1520 c 0,18,19
 512 1520 512 1520 599 1454 c 128,-1,20
 686 1388 686 1388 686 1280 c 0,21,22
 686 1141 686 1141 355 857 c 0,23,24
 299 809 299 809 268 782 c 1,0,-1
EndSplineSet
EndChar
StartChar: threesuperior
Encoding: 179 179 179
Width: 821
Flags: W
Fore
524 1120 m 1,0,1
 616 1102 616 1102 666.5 1047.5 c 128,-1,2
 717 993 717 993 717 911 c 0,3,4
 717 787 717 787 622 720 c 128,-1,5
 527 653 527 653 350 653 c 0,6,7
 293 653 293 653 230.5 663.5 c 128,-1,8
 168 674 168 674 98 694 c 1,9,-1
 98 815 l 1,10,11
 150 788 150 788 209.5 775 c 128,-1,12
 269 762 269 762 336 762 c 0,13,14
 445 762 445 762 505 801.5 c 128,-1,15
 565 841 565 841 565 911 c 0,16,17
 565 985 565 985 509.5 1023 c 128,-1,18
 454 1061 454 1061 346 1061 c 2,19,-1
 260 1061 l 1,20,-1
 260 1169 l 1,21,-1
 354 1169 l 2,22,23
 448 1169 448 1169 496.5 1200.5 c 128,-1,24
 545 1232 545 1232 545 1292 c 0,25,26
 545 1350 545 1350 495 1380.5 c 128,-1,27
 445 1411 445 1411 350 1411 c 0,28,29
 310 1411 310 1411 259 1402 c 128,-1,30
 208 1393 208 1393 127 1370 c 1,31,-1
 127 1485 l 1,32,33
 200 1502 200 1502 264 1511 c 128,-1,34
 328 1520 328 1520 383 1520 c 0,35,36
 527 1520 527 1520 611.5 1461 c 128,-1,37
 696 1402 696 1402 696 1303 c 0,38,39
 696 1234 696 1234 651 1186 c 128,-1,40
 606 1138 606 1138 524 1120 c 1,0,1
EndSplineSet
EndChar
StartChar: acute
Encoding: 180 180 180
Width: 1024
Flags: W
Fore
651 1638 m 1,0,-1
 850 1638 l 1,1,-1
 524 1262 l 1,2,-1
 371 1262 l 1,3,-1
 651 1638 l 1,0,-1
EndSplineSet
LCarets: 0 65535 '    ' 1 0 
Ligature: 0 1 'liga' space acutecomb
EndChar
StartChar: mu
Encoding: 181 181 181
Width: 1303
Flags: W
Fore
174 -426 m 1,0,-1
 174 1120 l 1,1,-1
 358 1120 l 1,2,-1
 358 424 l 2,3,4
 358 279 358 279 427 205 c 128,-1,5
 496 131 496 131 631 131 c 0,6,7
 779 131 779 131 853.5 215 c 128,-1,8
 928 299 928 299 928 467 c 2,9,-1
 928 1120 l 1,10,-1
 1112 1120 l 1,11,-1
 1112 258 l 2,12,13
 1112 198 1112 198 1129.5 169.5 c 128,-1,14
 1147 141 1147 141 1184 141 c 0,15,16
 1193 141 1193 141 1209 146.5 c 128,-1,17
 1225 152 1225 152 1253 164 c 1,18,-1
 1253 16 l 1,19,20
 1212 -7 1212 -7 1175.5 -18 c 128,-1,21
 1139 -29 1139 -29 1104 -29 c 0,22,23
 1035 -29 1035 -29 994 10 c 128,-1,24
 953 49 953 49 938 129 c 1,25,26
 888 50 888 50 815.5 10.5 c 128,-1,27
 743 -29 743 -29 645 -29 c 0,28,29
 543 -29 543 -29 471.5 10 c 128,-1,30
 400 49 400 49 358 127 c 1,31,-1
 358 -426 l 1,32,-1
 174 -426 l 1,0,-1
EndSplineSet
EndChar
StartChar: paragraph
Encoding: 182 182 182
Width: 1303
Flags: W
Fore
633 1493 m 2,0,-1
 1081 1493 l 1,1,-1
 1081 -197 l 1,2,-1
 940 -197 l 1,3,-1
 940 1370 l 1,4,-1
 750 1370 l 1,5,-1
 750 -197 l 1,6,-1
 608 -197 l 1,7,-1
 608 649 l 1,8,9
 393 666 393 666 275.5 776.5 c 128,-1,10
 158 887 158 887 158 1071 c 0,11,12
 158 1261 158 1261 288 1377 c 128,-1,13
 418 1493 418 1493 633 1493 c 2,0,-1
EndSplineSet
EndChar
StartChar: periodcentered
Encoding: 183 183 183
Width: 651
Flags: W
Fore
219 838 m 1,0,-1
 430 838 l 1,1,-1
 430 584 l 1,2,-1
 219 584 l 1,3,-1
 219 838 l 1,0,-1
EndSplineSet
EndChar
StartChar: cedilla
Encoding: 184 184 184
Width: 1024
Flags: W
Fore
596 0 m 1,0,1
 651 -62 651 -62 678 -114.5 c 128,-1,2
 705 -167 705 -167 705 -215 c 0,3,4
 705 -304 705 -304 645 -349.5 c 128,-1,5
 585 -395 585 -395 467 -395 c 0,6,7
 421 -395 421 -395 377.5 -389 c 128,-1,8
 334 -383 334 -383 291 -371 c 1,9,-1
 291 -240 l 1,10,11
 325 -257 325 -257 362 -264.5 c 128,-1,12
 399 -272 399 -272 446 -272 c 0,13,14
 505 -272 505 -272 535 -248 c 128,-1,15
 565 -224 565 -224 565 -178 c 0,16,17
 565 -148 565 -148 543.5 -104.5 c 128,-1,18
 522 -61 522 -61 477 0 c 1,19,-1
 596 0 l 1,0,1
EndSplineSet
LCarets: 0 65535 '    ' 1 0 
Ligature: 0 1 'liga' space uni0327
EndChar
StartChar: onesuperior
Encoding: 185 185 185
Width: 821
Flags: W
Fore
156 778 m 1,0,-1
 360 778 l 1,1,-1
 360 1389 l 1,2,-1
 137 1348 l 1,3,-1
 137 1464 l 1,4,-1
 367 1503 l 1,5,-1
 504 1503 l 1,6,-1
 504 778 l 1,7,-1
 709 778 l 1,8,-1
 709 668 l 1,9,-1
 156 668 l 1,10,-1
 156 778 l 1,0,-1
EndSplineSet
EndChar
StartChar: ordmasculine
Encoding: 186 186 186
Width: 965
Flags: W
Fore
139 592 m 1,0,-1
 827 592 l 1,1,-1
 827 469 l 1,2,-1
 139 469 l 1,3,-1
 139 592 l 1,0,-1
483 1520 m 0,4,5
 662 1520 662 1520 765 1409.5 c 128,-1,6
 868 1299 868 1299 868 1108 c 0,7,8
 868 917 868 917 765 807.5 c 128,-1,9
 662 698 662 698 483 698 c 0,10,11
 304 698 304 698 200 808 c 128,-1,12
 96 918 96 918 96 1108 c 0,13,14
 96 1299 96 1299 200 1409.5 c 128,-1,15
 304 1520 304 1520 483 1520 c 0,4,5
483 1405 m 0,16,17
 378 1405 378 1405 315 1324.5 c 128,-1,18
 252 1244 252 1244 252 1108 c 0,19,20
 252 975 252 975 315.5 895 c 128,-1,21
 379 815 379 815 483 815 c 0,22,23
 588 815 588 815 650.5 895 c 128,-1,24
 713 975 713 975 713 1108 c 0,25,26
 713 1245 713 1245 651 1325 c 128,-1,27
 589 1405 589 1405 483 1405 c 0,16,17
EndSplineSet
EndChar
StartChar: guillemotright
Encoding: 187 187 187
Width: 1253
Flags: W
Fore
193 1059 m 1,0,-1
 662 641 l 1,1,-1
 662 559 l 1,2,-1
 193 141 l 1,3,-1
 193 332 l 1,4,-1
 494 600 l 1,5,-1
 193 868 l 1,6,-1
 193 1059 l 1,0,-1
627 1059 m 1,7,-1
 1096 641 l 1,8,-1
 1096 559 l 1,9,-1
 627 141 l 1,10,-1
 627 332 l 1,11,-1
 928 600 l 1,12,-1
 627 868 l 1,13,-1
 627 1059 l 1,7,-1
EndSplineSet
KernsSLIFO: 356 -188 0 0 270 -36 0 0 268 -36 0 0 262 -36 0 0 253 -36 0 0 221 -225 0 0 210 -36 0 0 212 -36 0 0 211 -36 0 0 193 -73 0 0 194 -73 0 0 376 -225 0 0 255 -36 0 0 213 -36 0 0 195 -73 0 0 192 -73 0 0 214 -36 0 0 199 -36 0 0 196 -73 0 0 121 -36 0 0 119 -36 0 0 118 -36 0 0 89 -225 0 0 88 -112 0 0 87 -112 0 0 86 -178 0 0 84 -188 0 0 79 -36 0 0 74 -36 0 0 68 -36 0 0 67 -36 0 0 66 -73 0 0 65 -73 0 0
EndChar
StartChar: questiondown
Encoding: 191 191 191
Width: 1087
Flags: W
Fore
500 1092 m 1,0,-1
 690 1092 l 1,1,-1
 690 936 l 2,2,3
 690 835 690 835 662.5 770 c 128,-1,4
 635 705 635 705 545 618 c 2,5,-1
 455 530 l 1,6,7
 397 477 397 477 371.5 430 c 128,-1,8
 346 383 346 383 346 334 c 0,9,10
 346 245 346 245 411.5 190 c 128,-1,11
 477 135 477 135 586 135 c 0,12,13
 664 135 664 135 754 170 c 128,-1,14
 844 205 844 205 940 272 c 1,15,-1
 940 84 l 1,16,17
 846 27 846 27 750 -1 c 128,-1,18
 654 -29 654 -29 551 -29 c 0,19,20
 367 -29 367 -29 255 68 c 128,-1,21
 143 165 143 165 143 324 c 0,22,23
 143 400 143 400 179.5 468.5 c 128,-1,24
 216 537 216 537 305 623 c 2,25,-1
 393 709 l 2,26,27
 441 756 441 756 460 782.5 c 128,-1,28
 479 809 479 809 487 834 c 0,29,30
 494 855 494 855 497 885 c 128,-1,31
 500 915 500 915 500 969 c 2,32,-1
 500 1092 l 1,0,-1
696 1239 m 1,33,-1
 494 1239 l 1,34,-1
 494 1493 l 1,35,-1
 696 1493 l 1,36,-1
 696 1239 l 1,33,-1
EndSplineSet
EndChar
StartChar: Aring
Encoding: 197 197 197
Width: 1401
Flags: W
Fore
852 1626 m 0,0,1
 852 1689 852 1689 807.5 1733.5 c 128,-1,2
 763 1778 763 1778 700 1778 c 0,3,4
 636 1778 636 1778 592.5 1734.5 c 128,-1,5
 549 1691 549 1691 549 1626 c 0,6,7
 549 1563 549 1563 593 1519 c 128,-1,8
 637 1475 637 1475 700 1475 c 0,9,10
 763 1475 763 1475 807.5 1519 c 128,-1,11
 852 1563 852 1563 852 1626 c 0,0,1
700 1294 m 1,12,-1
 428 551 l 1,13,-1
 973 551 l 1,14,-1
 700 1294 l 1,12,-1
549 1397 m 1,15,16
 488 1438 488 1438 457 1495.5 c 128,-1,17
 426 1553 426 1553 426 1626 c 0,18,19
 426 1741 426 1741 505.5 1821 c 128,-1,20
 585 1901 585 1901 700 1901 c 0,21,22
 814 1901 814 1901 894.5 1820.5 c 128,-1,23
 975 1740 975 1740 975 1626 c 0,24,25
 975 1556 975 1556 943.5 1497 c 128,-1,26
 912 1438 912 1438 852 1397 c 1,27,-1
 1384 0 l 1,28,-1
 1174 0 l 1,29,-1
 1038 383 l 1,30,-1
 365 383 l 1,31,-1
 229 0 l 1,32,-1
 16 0 l 1,33,-1
 549 1397 l 1,15,16
EndSplineSet
LCarets: 0 65535 '    ' 1 0 
Ligature: 0 0 'liga' A uni030A
EndChar
StartChar: AE
Encoding: 198 198 198
Width: 1995
Flags: W
Fore
1845 1493 m 1,0,-1
 1845 1323 l 1,1,-1
 1104 1323 l 1,2,-1
 1104 881 l 1,3,-1
 1815 881 l 1,4,-1
 1815 711 l 1,5,-1
 1104 711 l 1,6,-1
 1104 170 l 1,7,-1
 1864 170 l 1,8,-1
 1864 0 l 1,9,-1
 901 0 l 1,10,-1
 901 383 l 1,11,-1
 373 383 l 1,12,-1
 213 0 l 1,13,-1
 8 0 l 1,14,-1
 633 1493 l 1,15,-1
 1845 1493 l 1,0,-1
772 1335 m 1,16,-1
 442 551 l 1,17,-1
 901 551 l 1,18,-1
 901 1335 l 1,19,-1
 772 1335 l 1,16,-1
EndSplineSet
KernsSLIFO: 8222 -112 0 0 8221 -92 0 0 8220 -83 0 0
EndChar
StartChar: Eth
Encoding: 208 208 208
Width: 1587
Flags: W
Fore
211 1493 m 1,0,-1
 627 1493 l 2,1,2
 1060 1493 1060 1493 1263 1312.5 c 128,-1,3
 1466 1132 1466 1132 1466 748 c 0,4,5
 1466 362 1466 362 1262.5 181 c 128,-1,6
 1059 0 1059 0 627 0 c 2,7,-1
 211 0 l 1,8,-1
 211 700 l 1,9,-1
 10 700 l 1,10,-1
 10 844 l 1,11,-1
 211 844 l 1,12,-1
 211 1493 l 1,0,-1
414 1327 m 1,13,-1
 414 844 l 1,14,-1
 750 844 l 1,15,-1
 750 700 l 1,16,-1
 414 700 l 1,17,-1
 414 166 l 1,18,-1
 657 166 l 2,19,20
 966 166 966 166 1109.5 306 c 128,-1,21
 1253 446 1253 446 1253 748 c 0,22,23
 1253 1048 1253 1048 1109.5 1187.5 c 128,-1,24
 966 1327 966 1327 657 1327 c 2,25,-1
 414 1327 l 1,13,-1
EndSplineSet
KernsSLIFO: 7922 -112 0 0 562 -112 0 0 374 -112 0 0 260 -36 0 0 258 -36 0 0 256 -36 0 0 221 -112 0 0 193 -36 0 0 194 -36 0 0 8222 -188 0 0 376 -112 0 0 8221 -55 0 0 8220 -45 0 0 195 -36 0 0 192 -36 0 0 187 -36 0 0 171 -36 0 0 196 -36 0 0 89 -112 0 0 86 -36 0 0 65 -36 0 0
EndChar
StartChar: multiply
Encoding: 215 215 215
Width: 1716
Flags: W
Fore
1436 1100 m 1,0,-1
 979 641 l 1,1,-1
 1436 184 l 1,2,-1
 1317 63 l 1,3,-1
 858 522 l 1,4,-1
 399 63 l 1,5,-1
 281 184 l 1,6,-1
 737 641 l 1,7,-1
 281 1100 l 1,8,-1
 399 1221 l 1,9,-1
 858 762 l 1,10,-1
 1317 1221 l 1,11,-1
 1436 1100 l 1,0,-1
EndSplineSet
EndChar
StartChar: Oslash
Encoding: 216 216 216
Width: 1612
Flags: W
AnchorPoint: "above" 807 1520 basechar 0
Fore
1206 1112 m 1,0,-1
 489 266 l 1,1,2
 551 202 551 202 631.5 168.5 c 128,-1,3
 712 135 712 135 807 135 c 0,4,5
 1027 135 1027 135 1155.5 299 c 128,-1,6
 1284 463 1284 463 1284 745 c 0,7,8
 1284 857 1284 857 1264.5 949 c 128,-1,9
 1245 1041 1245 1041 1206 1112 c 1,0,-1
1124 1225 m 1,10,11
 1063 1289 1063 1289 982.5 1322.5 c 128,-1,12
 902 1356 902 1356 807 1356 c 0,13,14
 587 1356 587 1356 457.5 1192 c 128,-1,15
 328 1028 328 1028 328 745 c 0,16,17
 328 633 328 633 347.5 539 c 128,-1,18
 367 445 367 445 406 377 c 1,19,-1
 1124 1225 l 1,10,11
272 219 m 1,20,21
 194 321 194 321 154.5 453 c 128,-1,22
 115 585 115 585 115 745 c 0,23,24
 115 1099 115 1099 303.5 1309.5 c 128,-1,25
 492 1520 492 1520 807 1520 c 0,26,27
 937 1520 937 1520 1047.5 1481.5 c 128,-1,28
 1158 1443 1158 1443 1245 1368 c 1,29,-1
 1407 1559 l 1,30,-1
 1509 1470 l 1,31,-1
 1339 1272 l 1,32,33
 1417 1169 1417 1169 1457 1036 c 128,-1,34
 1497 903 1497 903 1497 745 c 0,35,36
 1497 392 1497 392 1309 181.5 c 128,-1,37
 1121 -29 1121 -29 807 -29 c 0,38,39
 679 -29 679 -29 568.5 8.5 c 128,-1,40
 458 46 458 46 367 121 c 1,41,-1
 205 -70 l 1,42,-1
 102 18 l 1,43,-1
 272 219 l 1,20,21
EndSplineSet
EndChar
StartChar: Thorn
Encoding: 222 222 222
Width: 1239
Flags: W
Fore
201 1493 m 1,0,-1
 403 1493 l 1,1,-1
 403 1229 l 1,2,-1
 657 1229 l 2,3,4
 908 1229 908 1229 1036.5 1116.5 c 128,-1,5
 1165 1004 1165 1004 1165 784 c 0,6,7
 1165 564 1165 564 1036.5 451 c 128,-1,8
 908 338 908 338 657 338 c 2,9,-1
 403 338 l 1,10,-1
 403 0 l 1,11,-1
 201 0 l 1,12,-1
 201 1493 l 1,0,-1
403 1063 m 1,13,-1
 403 504 l 1,14,-1
 657 504 l 2,15,16
 798 504 798 504 875 577 c 128,-1,17
 952 650 952 650 952 784 c 0,18,19
 952 918 952 918 875.5 990.5 c 128,-1,20
 799 1063 799 1063 657 1063 c 2,21,-1
 403 1063 l 1,13,-1
EndSplineSet
KernsSLIFO: 8222 -188 0 0 8220 -36 0 0 58 -73 0 0 46 -149 0 0
EndChar
StartChar: germandbls
Encoding: 223 223 223
Width: 1290
Flags: W
Fore
186 1137 m 2,0,1
 186 1337 186 1337 305.5 1446.5 c 128,-1,2
 425 1556 425 1556 643 1556 c 0,3,4
 851 1556 851 1556 960.5 1440 c 128,-1,5
 1070 1324 1070 1324 1073 1100 c 1,6,7
 922 1092 922 1092 838 1034.5 c 128,-1,8
 754 977 754 977 754 881 c 0,9,10
 754 834 754 834 783 793.5 c 128,-1,11
 812 753 812 753 877 711 c 2,12,-1
 934 674 l 2,13,14
 1100 568 1100 568 1148 497 c 128,-1,15
 1196 426 1196 426 1196 326 c 0,16,17
 1196 154 1196 154 1083.5 62.5 c 128,-1,18
 971 -29 971 -29 760 -29 c 0,19,20
 696 -29 696 -29 628 -16.5 c 128,-1,21
 560 -4 560 -4 487 20 c 1,22,-1
 487 184 l 1,23,24
 567 154 567 154 637 139.5 c 128,-1,25
 707 125 707 125 772 125 c 0,26,27
 888 125 888 125 948 172.5 c 128,-1,28
 1008 220 1008 220 1008 311 c 0,29,30
 1008 374 1008 374 978.5 416 c 128,-1,31
 949 458 949 458 848 520 c 2,32,-1
 756 575 l 2,33,34
 660 634 660 634 616.5 701.5 c 128,-1,35
 573 769 573 769 573 860 c 0,36,37
 573 987 573 987 656.5 1073 c 128,-1,38
 740 1159 740 1159 891 1188 c 1,39,40
 883 1291 883 1291 817.5 1347 c 128,-1,41
 752 1403 752 1403 639 1403 c 0,42,43
 509 1403 509 1403 441 1333.5 c 128,-1,44
 373 1264 373 1264 373 1133 c 2,45,-1
 373 0 l 1,46,-1
 186 0 l 1,47,-1
 186 1137 l 2,0,1
EndSplineSet
KernsSLIFO: 8222 -83 0 0 8221 -112 0 0 8220 -112 0 0 45 38 0 0
EndChar
StartChar: ae
Encoding: 230 230 230
Width: 2011
Flags: W
AnchorPoint: "below" 995 0 basechar 0
AnchorPoint: "above" 995 1147 basechar 0
Fore
1718 660 m 1,0,1
 1717 811 1717 811 1634.5 901 c 128,-1,2
 1552 991 1552 991 1415 991 c 0,3,4
 1262 991 1262 991 1169.5 904 c 128,-1,5
 1077 817 1077 817 1063 659 c 1,6,-1
 1718 660 l 1,0,1
995 963 m 1,7,8
 1069 1053 1069 1053 1175 1100 c 128,-1,9
 1281 1147 1281 1147 1413 1147 c 0,10,11
 1639 1147 1639 1147 1771 1001.5 c 128,-1,12
 1903 856 1903 856 1903 606 c 2,13,-1
 1903 516 l 1,14,-1
 1057 516 l 1,15,16
 1069 325 1069 325 1171 225 c 128,-1,17
 1273 125 1273 125 1456 125 c 0,18,19
 1560 125 1560 125 1660 151.5 c 128,-1,20
 1760 178 1760 178 1860 231 c 1,21,-1
 1860 57 l 1,22,23
 1760 15 1760 15 1656 -7 c 128,-1,24
 1552 -29 1552 -29 1446 -29 c 0,25,26
 1279 -29 1279 -29 1155 31.5 c 128,-1,27
 1031 92 1031 92 954 211 c 1,28,29
 881 91 881 91 773 31 c 128,-1,30
 665 -29 665 -29 522 -29 c 0,31,32
 333 -29 333 -29 228 64.5 c 128,-1,33
 123 158 123 158 123 326 c 0,34,35
 123 515 123 515 249.5 611 c 128,-1,36
 376 707 376 707 627 707 c 2,37,-1
 885 707 l 1,38,-1
 885 725 l 2,39,40
 885 852 885 852 801.5 921.5 c 128,-1,41
 718 991 718 991 567 991 c 0,42,43
 471 991 471 991 380 968 c 128,-1,44
 289 945 289 945 205 899 c 1,45,-1
 205 1069 l 1,46,47
 306 1108 306 1108 401 1127.5 c 128,-1,48
 496 1147 496 1147 586 1147 c 0,49,50
 728 1147 728 1147 834.5 1099 c 128,-1,51
 941 1051 941 1051 995 963 c 1,7,8
702 563 m 2,52,53
 479 563 479 563 393 512 c 128,-1,54
 307 461 307 461 307 338 c 0,55,56
 307 240 307 240 371.5 182.5 c 128,-1,57
 436 125 436 125 547 125 c 0,58,59
 700 125 700 125 792.5 233.5 c 128,-1,60
 885 342 885 342 885 522 c 2,61,-1
 885 563 l 1,62,-1
 702 563 l 2,52,53
EndSplineSet
EndChar
StartChar: eth
Encoding: 240 240 240
Width: 1253
Flags: W
AnchorPoint: "above" 637 1520 basechar 0
AnchorPoint: "below" 637 0 basechar 0
Fore
838 915 m 1,0,1
 788 932 788 932 744 940 c 128,-1,2
 700 948 700 948 659 948 c 0,3,4
 492 948 492 948 399.5 840 c 128,-1,5
 307 732 307 732 307 537 c 0,6,7
 307 349 307 349 394 238 c 128,-1,8
 481 127 481 127 627 127 c 0,9,10
 772 127 772 127 859 238 c 128,-1,11
 946 349 946 349 946 537 c 0,12,13
 946 659 946 659 919 753 c 128,-1,14
 892 847 892 847 838 915 c 1,0,1
901 1141 m 2,15,16
 1027 998 1027 998 1084 854 c 128,-1,17
 1141 710 1141 710 1141 537 c 0,18,19
 1141 282 1141 282 999 126.5 c 128,-1,20
 857 -29 857 -29 627 -29 c 0,21,22
 396 -29 396 -29 254.5 126.5 c 128,-1,23
 113 282 113 282 113 537 c 0,24,25
 113 787 113 787 251 942.5 c 128,-1,26
 389 1098 389 1098 610 1098 c 0,27,28
 628 1098 628 1098 654 1095.5 c 128,-1,29
 680 1093 680 1093 722 1088 c 1,30,-1
 563 1268 l 1,31,-1
 244 1161 l 1,32,-1
 211 1260 l 1,33,-1
 492 1352 l 1,34,-1
 311 1556 l 1,35,-1
 539 1556 l 1,36,-1
 666 1411 l 1,37,-1
 999 1522 l 1,38,-1
 1032 1425 l 1,39,-1
 737 1327 l 1,40,-1
 901 1141 l 2,15,16
EndSplineSet
KernsSLIFO: 8222 -73 0 0 8221 -112 0 0 8220 -92 0 0
EndChar
StartChar: divide
Encoding: 247 247 247
Width: 1716
Flags: W
Fore
735 1135 m 1,0,-1
 981 1135 l 1,1,-1
 981 889 l 1,2,-1
 735 889 l 1,3,-1
 735 1135 l 1,0,-1
735 395 m 1,4,-1
 981 395 l 1,5,-1
 981 150 l 1,6,-1
 735 150 l 1,7,-1
 735 395 l 1,4,-1
217 727 m 1,8,-1
 1499 727 l 1,9,-1
 1499 557 l 1,10,-1
 217 557 l 1,11,-1
 217 727 l 1,8,-1
EndSplineSet
EndChar
StartChar: oslash
Encoding: 248 248 248
Width: 1253
Flags: W
AnchorPoint: "below" 637 0 basechar 0
AnchorPoint: "above" 637 1147 basechar 0
Fore
905 801 m 1,0,-1
 418 209 l 1,1,2
 459 167 459 167 510.5 147 c 128,-1,3
 562 127 562 127 627 127 c 0,4,5
 774 127 774 127 860 243 c 128,-1,6
 946 359 946 359 946 559 c 0,7,8
 946 638 946 638 936 696.5 c 128,-1,9
 926 755 926 755 905 801 c 1,0,-1
834 909 m 1,10,11
 792 950 792 950 740.5 970.5 c 128,-1,12
 689 991 689 991 627 991 c 0,13,14
 476 991 476 991 391.5 873.5 c 128,-1,15
 307 756 307 756 307 545 c 0,16,17
 307 473 307 473 316.5 418 c 128,-1,18
 326 363 326 363 346 317 c 1,19,-1
 834 909 l 1,10,11
221 166 m 1,20,21
 167 243 167 243 140 341.5 c 128,-1,22
 113 440 113 440 113 559 c 0,23,24
 113 835 113 835 249.5 991 c 128,-1,25
 386 1147 386 1147 627 1147 c 0,26,27
 720 1147 720 1147 799.5 1121.5 c 128,-1,28
 879 1096 879 1096 946 1044 c 1,29,-1
 1085 1212 l 1,30,-1
 1180 1133 l 1,31,-1
 1034 954 l 1,32,33
 1087 877 1087 877 1114 778 c 128,-1,34
 1141 679 1141 679 1141 559 c 0,35,36
 1141 284 1141 284 1004 127.5 c 128,-1,37
 867 -29 867 -29 627 -29 c 0,38,39
 531 -29 531 -29 450.5 -3 c 128,-1,40
 370 23 370 23 307 74 c 1,41,-1
 168 -94 l 1,42,-1
 72 -16 l 1,43,-1
 221 166 l 1,20,21
EndSplineSet
EndChar
StartChar: thorn
Encoding: 254 254 254
Width: 1300
Flags: W
AnchorPoint: "above" 278 1520 basechar 0
Fore
371 168 m 1,0,-1
 371 -426 l 1,1,-1
 186 -426 l 1,2,-1
 186 1556 l 1,3,-1
 371 1556 l 1,4,-1
 371 950 l 1,5,6
 429 1050 429 1050 517.5 1098.5 c 128,-1,7
 606 1147 606 1147 729 1147 c 0,8,9
 933 1147 933 1147 1060.5 985 c 128,-1,10
 1188 823 1188 823 1188 559 c 0,11,12
 1188 295 1188 295 1060.5 133 c 128,-1,13
 933 -29 933 -29 729 -29 c 0,14,15
 606 -29 606 -29 517.5 19.5 c 128,-1,16
 429 68 429 68 371 168 c 1,0,-1
997 559 m 0,17,18
 997 762 997 762 913.5 877.5 c 128,-1,19
 830 993 830 993 684 993 c 0,20,21
 538 993 538 993 454.5 877.5 c 128,-1,22
 371 762 371 762 371 559 c 0,23,24
 371 356 371 356 454.5 240.5 c 128,-1,25
 538 125 538 125 684 125 c 0,26,27
 830 125 830 125 913.5 240.5 c 128,-1,28
 997 356 997 356 997 559 c 0,17,18
EndSplineSet
EndChar
StartChar: Dcroat
Encoding: 272 272 272
Width: 1587
Flags: W
Fore
211 1493 m 1,0,-1
 627 1493 l 2,1,2
 1060 1493 1060 1493 1263 1312.5 c 128,-1,3
 1466 1132 1466 1132 1466 748 c 0,4,5
 1466 362 1466 362 1262.5 181 c 128,-1,6
 1059 0 1059 0 627 0 c 2,7,-1
 211 0 l 1,8,-1
 211 700 l 1,9,-1
 10 700 l 1,10,-1
 10 844 l 1,11,-1
 211 844 l 1,12,-1
 211 1493 l 1,0,-1
414 1327 m 1,13,-1
 414 844 l 1,14,-1
 750 844 l 1,15,-1
 750 700 l 1,16,-1
 414 700 l 1,17,-1
 414 166 l 1,18,-1
 657 166 l 2,19,20
 966 166 966 166 1109.5 306 c 128,-1,21
 1253 446 1253 446 1253 748 c 0,22,23
 1253 1048 1253 1048 1109.5 1187.5 c 128,-1,24
 966 1327 966 1327 657 1327 c 2,25,-1
 414 1327 l 1,13,-1
EndSplineSet
KernsSLIFO: 221 -112 0 0 193 -36 0 0 194 -36 0 0 8222 -188 0 0 376 -112 0 0 8221 -55 0 0 8220 -45 0 0 195 -36 0 0 192 -36 0 0 187 -36 0 0 171 -36 0 0 196 -36 0 0 89 -112 0 0 86 -36 0 0 65 -36 0 0
EndChar
StartChar: dcroat
Encoding: 273 273 273
Width: 1300
Flags: W
Fore
930 950 m 1,0,-1
 930 1284 l 1,1,-1
 604 1284 l 1,2,-1
 604 1409 l 1,3,-1
 930 1409 l 1,4,-1
 930 1556 l 1,5,-1
 1114 1556 l 1,6,-1
 1114 1409 l 1,7,-1
 1268 1409 l 1,8,-1
 1268 1284 l 1,9,-1
 1114 1284 l 1,10,-1
 1114 0 l 1,11,-1
 930 0 l 1,12,-1
 930 168 l 1,13,14
 872 68 872 68 783.5 19.5 c 128,-1,15
 695 -29 695 -29 571 -29 c 0,16,17
 368 -29 368 -29 240.5 133 c 128,-1,18
 113 295 113 295 113 559 c 0,19,20
 113 823 113 823 240.5 985 c 128,-1,21
 368 1147 368 1147 571 1147 c 0,22,23
 695 1147 695 1147 783.5 1098.5 c 128,-1,24
 872 1050 872 1050 930 950 c 1,0,-1
303 559 m 0,25,26
 303 356 303 356 386.5 240.5 c 128,-1,27
 470 125 470 125 616 125 c 0,28,29
 762 125 762 125 846 240.5 c 128,-1,30
 930 356 930 356 930 559 c 0,31,32
 930 762 930 762 846 877.5 c 128,-1,33
 762 993 762 993 616 993 c 0,34,35
 470 993 470 993 386.5 877.5 c 128,-1,36
 303 762 303 762 303 559 c 0,25,26
EndSplineSet
EndChar
StartChar: Hbar
Encoding: 294 294 294
Width: 1876
Flags: W
AnchorPoint: "above" 938 1520 basechar 0
Fore
369 1493 m 1,0,-1
 571 1493 l 1,1,-1
 571 1269 l 1,2,-1
 1305 1269 l 1,3,-1
 1305 1493 l 1,4,-1
 1507 1493 l 1,5,-1
 1507 1269 l 1,6,-1
 1675 1269 l 1,7,-1
 1675 1105 l 1,8,-1
 1507 1105 l 1,9,-1
 1507 0 l 1,10,-1
 1305 0 l 1,11,-1
 1305 711 l 1,12,-1
 571 711 l 1,13,-1
 571 0 l 1,14,-1
 369 0 l 1,15,-1
 369 1105 l 1,16,-1
 201 1105 l 1,17,-1
 201 1269 l 1,18,-1
 369 1269 l 1,19,-1
 369 1493 l 1,0,-1
571 1105 m 1,20,-1
 571 881 l 1,21,-1
 1305 881 l 1,22,-1
 1305 1105 l 1,23,-1
 571 1105 l 1,20,-1
EndSplineSet
EndChar
StartChar: hbar
Encoding: 295 295 295
Width: 1423
Flags: W
AnchorPoint: "below" 720 0 basechar 0
AnchorPoint: "above" 337 1520 basechar 0
Fore
1183 676 m 2,0,-1
 1183 0 l 1,1,-1
 999 0 l 1,2,-1
 999 670 l 2,3,4
 999 829 999 829 937 908 c 128,-1,5
 875 987 875 987 751 987 c 0,6,7
 602 987 602 987 516 892 c 128,-1,8
 430 797 430 797 430 633 c 2,9,-1
 430 0 l 1,10,-1
 245 0 l 1,11,-1
 245 1270 l 1,12,-1
 120 1270 l 1,13,-1
 120 1434 l 1,14,-1
 245 1434 l 1,15,-1
 245 1556 l 1,16,-1
 430 1556 l 1,17,-1
 430 1434 l 1,18,-1
 782 1434 l 1,19,-1
 782 1270 l 1,20,-1
 430 1270 l 1,21,-1
 430 946 l 1,22,23
 496 1047 496 1047 585.5 1097 c 128,-1,24
 675 1147 675 1147 792 1147 c 0,25,26
 985 1147 985 1147 1084 1027.5 c 128,-1,27
 1183 908 1183 908 1183 676 c 2,0,-1
EndSplineSet
EndChar
StartChar: dotlessi
Encoding: 305 305 305
Width: 569
Flags: W
AnchorPoint: "above" 287 1147 basechar 0
Fore
193 1120 m 1,0,-1
 377 1120 l 1,1,-1
 377 0 l 1,2,-1
 193 0 l 1,3,-1
 193 1120 l 1,0,-1
EndSplineSet
EndChar
StartChar: kgreenlandic
Encoding: 312 312 312
Width: 1186
Flags: W
Fore
186 1120 m 1,0,-1
 371 1120 l 1,1,-1
 371 635 l 1,2,-1
 920 1120 l 1,3,-1
 1155 1120 l 1,4,-1
 561 594 l 1,5,-1
 1180 0 l 1,6,-1
 940 0 l 1,7,-1
 371 545 l 1,8,-1
 371 0 l 1,9,-1
 186 0 l 1,10,-1
 186 1120 l 1,0,-1
EndSplineSet
EndChar
StartChar: Lslash
Encoding: 321 321 321
Width: 1151
Flags: W
Fore
211 1493 m 1,0,-1
 414 1493 l 1,1,-1
 414 877 l 1,2,-1
 727 1096 l 1,3,-1
 807 985 l 1,4,-1
 414 711 l 1,5,-1
 414 170 l 1,6,-1
 1141 170 l 1,7,-1
 1141 0 l 1,8,-1
 211 0 l 1,9,-1
 211 571 l 1,10,-1
 63 465 l 1,11,-1
 -14 575 l 1,12,-1
 211 733 l 1,13,-1
 211 1493 l 1,0,-1
EndSplineSet
EndChar
StartChar: lslash
Encoding: 322 322 322
Width: 582
Flags: W
Fore
199 1556 m 1,0,-1
 383 1556 l 1,1,-1
 383 954 l 1,2,-1
 508 1044 l 1,3,-1
 584 938 l 1,4,-1
 383 797 l 1,5,-1
 383 0 l 1,6,-1
 199 0 l 1,7,-1
 199 666 l 1,8,-1
 76 578 l 1,9,-1
 2 684 l 1,10,-1
 199 825 l 1,11,-1
 199 1556 l 1,0,-1
EndSplineSet
EndChar
StartChar: Eng
Encoding: 330 330 330
Width: 1532
Flags: W
AnchorPoint: "above" 757 1506 basechar 0
Fore
213 1493 m 1,0,-1
 397 1493 l 1,1,-1
 1135 344 l 1,2,-1
 1135 1493 l 1,3,-1
 1319 1493 l 1,4,-1
 1319 -20 l 18,5,6
 1319 -234 1319 -234 1237 -330 c 0,7,8
 1156 -426 1156 -426 975 -426 c 2,9,-1
 721 -426 l 1,10,-1
 721 -270 l 1,11,-1
 954 -270 l 2,12,13
 1059 -270 1059 -270 1097 -222 c 0,14,15
 1135 -173 1135 -173 1135 0 c 1,16,-1
 397 1149 l 1,17,-1
 397 0 l 1,18,-1
 213 0 l 1,19,-1
 213 1493 l 1,0,-1
EndSplineSet
EndChar
StartChar: eng
Encoding: 331 331 331
Width: 1298
Flags: W
AnchorPoint: "below" 649 -430 basechar 0
AnchorPoint: "above" 649 1147 basechar 0
Fore
1124 676 m 2,0,-1
 1124 -20 l 2,1,2
 1124 -234 1124 -234 1042 -330 c 0,3,4
 961 -426 961 -426 780 -426 c 2,5,-1
 526 -426 l 1,6,-1
 526 -270 l 1,7,-1
 759 -270 l 2,8,9
 864 -270 864 -270 902 -222 c 0,10,11
 940 -173 940 -173 940 -20 c 2,12,-1
 940 670 l 2,13,14
 940 829 940 829 878 908 c 128,-1,15
 816 987 816 987 692 987 c 0,16,17
 543 987 543 987 457 892 c 128,-1,18
 371 797 371 797 371 633 c 2,19,-1
 371 0 l 1,20,-1
 186 0 l 1,21,-1
 186 1120 l 1,22,-1
 371 1120 l 1,23,-1
 371 946 l 1,24,25
 437 1047 437 1047 526 1097 c 0,26,27
 616 1147 616 1147 733 1147 c 0,28,29
 926 1147 926 1147 1025 1028 c 0,30,31
 1124 908 1124 908 1124 676 c 2,0,-1
EndSplineSet
EndChar
StartChar: OE
Encoding: 338 338 338
Width: 2191
Flags: W
Fore
2042 1493 m 1,0,-1
 2042 1323 l 1,1,-1
 1300 1323 l 1,2,-1
 1300 881 l 1,3,-1
 2011 881 l 1,4,-1
 2011 711 l 1,5,-1
 1300 711 l 1,6,-1
 1300 170 l 1,7,-1
 2060 170 l 1,8,-1
 2060 0 l 1,9,-1
 995 0 l 2,10,11
 562 0 562 0 338.5 190 c 128,-1,12
 115 380 115 380 115 748 c 0,13,14
 115 1113 115 1113 338.5 1303 c 128,-1,15
 562 1493 562 1493 995 1493 c 2,16,-1
 2042 1493 l 1,0,-1
1098 1323 m 1,17,-1
 969 1323 l 2,18,19
 648 1323 648 1323 488 1179.5 c 128,-1,20
 328 1036 328 1036 328 748 c 0,21,22
 328 459 328 459 488 314.5 c 128,-1,23
 648 170 648 170 969 170 c 2,24,-1
 1098 170 l 1,25,-1
 1098 1323 l 1,17,-1
EndSplineSet
EndChar
StartChar: oe
Encoding: 339 339 339
Width: 2095
Flags: W
AnchorPoint: "above" 1044 1147 basechar 0
Fore
1802 660 m 1,0,1
 1800 812 1800 812 1718 901.5 c 128,-1,2
 1636 991 1636 991 1499 991 c 0,3,4
 1346 991 1346 991 1253.5 904 c 128,-1,5
 1161 817 1161 817 1147 659 c 1,6,-1
 1802 660 l 1,0,1
1987 606 m 2,7,-1
 1987 516 l 1,8,-1
 1141 516 l 1,9,10
 1153 326 1153 326 1255 226.5 c 128,-1,11
 1357 127 1357 127 1540 127 c 0,12,13
 1646 127 1646 127 1746 153 c 128,-1,14
 1846 179 1846 179 1944 231 c 1,15,-1
 1944 57 l 1,16,17
 1844 15 1844 15 1740 -7 c 128,-1,18
 1636 -29 1636 -29 1530 -29 c 0,19,20
 1370 -29 1370 -29 1249 26 c 128,-1,21
 1128 81 1128 81 1047 190 c 1,22,23
 976 80 976 80 871.5 25.5 c 128,-1,24
 767 -29 767 -29 627 -29 c 0,25,26
 386 -29 386 -29 249.5 127.5 c 128,-1,27
 113 284 113 284 113 559 c 0,28,29
 113 835 113 835 249.5 991 c 128,-1,30
 386 1147 386 1147 627 1147 c 0,31,32
 767 1147 767 1147 872.5 1091.5 c 128,-1,33
 978 1036 978 1036 1044 928 c 1,34,35
 1122 1035 1122 1035 1238 1091 c 128,-1,36
 1354 1147 1354 1147 1497 1147 c 0,37,38
 1723 1147 1723 1147 1855 1001.5 c 128,-1,39
 1987 856 1987 856 1987 606 c 2,7,-1
627 991 m 0,40,41
 479 991 479 991 393 875.5 c 128,-1,42
 307 760 307 760 307 559 c 0,43,44
 307 358 307 358 392.5 242.5 c 128,-1,45
 478 127 478 127 627 127 c 0,46,47
 774 127 774 127 860 243 c 128,-1,48
 946 359 946 359 946 559 c 0,49,50
 946 758 946 758 860 874.5 c 128,-1,51
 774 991 774 991 627 991 c 0,40,41
EndSplineSet
EndChar
StartChar: Tbar
Encoding: 358 358 358
Width: 1251
Flags: W
TeX: 0 0 0 0
Fore
-6 1493 m 1,0,-1
 1257 1493 l 1,1,-1
 1257 1323 l 1,2,-1
 727 1323 l 1,3,-1
 727 747 l 1,4,-1
 992 747 l 1,5,-1
 992 577 l 1,6,-1
 727 577 l 1,7,-1
 727 0 l 1,8,-1
 524 0 l 1,9,-1
 524 577 l 1,10,-1
 259 577 l 1,11,-1
 259 747 l 1,12,-1
 524 747 l 1,13,-1
 524 1323 l 1,14,-1
 -6 1323 l 1,15,-1
 -6 1493 l 1,0,-1
EndSplineSet
EndChar
StartChar: tbar
Encoding: 359 359 359
Width: 803
Flags: W
TeX: 0 0 0 0
Fore
375 1438 m 1,0,-1
 375 1120 l 1,1,-1
 754 1120 l 1,2,-1
 754 977 l 1,3,-1
 375 977 l 1,4,-1
 375 744 l 1,5,-1
 565 744 l 1,6,-1
 565 602 l 1,7,-1
 375 602 l 1,8,-1
 375 369 l 2,9,10
 375 232 375 232 412 193 c 0,11,12
 450 154 450 154 565 154 c 2,13,-1
 754 154 l 1,14,-1
 754 0 l 1,15,-1
 565 0 l 2,16,17
 352 0 352 0 271 80 c 0,18,19
 190 159 190 159 190 369 c 2,20,-1
 190 602 l 1,21,-1
 55 602 l 1,22,-1
 55 744 l 1,23,-1
 190 744 l 1,24,-1
 190 977 l 1,25,-1
 55 977 l 1,26,-1
 55 1120 l 1,27,-1
 190 1120 l 1,28,-1
 190 1438 l 1,29,-1
 375 1438 l 1,0,-1
EndSplineSet
EndChar
StartChar: longs
Encoding: 383 383 383
Width: 721
Flags: W
TeX: 0 0 0 0
Fore
408 0 m 1,0,-1
 223 0 l 1,1,-1
 223 977 l 1,2,-1
 47 977 l 1,3,-1
 47 1120 l 1,4,-1
 223 1120 l 1,5,-1
 223 1198 l 2,6,7
 223 1385 223 1385 310 1470.5 c 128,-1,8
 397 1556 397 1556 586 1556 c 2,9,-1
 760 1556 l 1,10,-1
 760 1403 l 1,11,-1
 584 1403 l 2,12,13
 485 1403 485 1403 446.5 1363 c 0,14,15
 408 1321.93 408 1321.93 408 1219 c 2,16,-1
 408 0 l 1,0,-1
EndSplineSet
EndChar
StartChar: uni0180
Encoding: 384 384 384
Width: 1300
Flags: W
TeX: 117 0 0 0
AnchorPoint: "above" 278 1520 basechar 0
Fore
997 559 m 0,0,1
 997 762 997 762 913.5 877.5 c 0,2,3
 830 993 830 993 684 993 c 0,4,5
 538 993 538 993 454.5 877.5 c 0,6,7
 371 762 371 762 371 559 c 0,8,9
 371 356 371 356 454.5 240.5 c 0,10,11
 538 125 538 125 684 125 c 0,12,13
 830 125 830 125 913.5 240.5 c 0,14,15
 997 356 997 356 997 559 c 0,0,1
371 950 m 1,16,17
 429 1050.01 429 1050.01 517.5 1098.5 c 0,18,19
 606.009 1147 606.009 1147 729 1147 c 0,20,21
 933 1147 933 1147 1060.5 985 c 0,22,23
 1188 823 1188 823 1188 559 c 0,24,25
 1188 295 1188 295 1060.5 133 c 0,26,27
 933 -29 933 -29 729 -29 c 0,28,29
 606 -29 606 -29 517.5 19.5 c 0,30,31
 429 68 429 68 371 168 c 1,32,-1
 371 0 l 1,33,-1
 186 0 l 1,34,-1
 186 1284 l 1,35,-1
 32 1284 l 1,36,-1
 32 1409 l 1,37,-1
 186 1409 l 1,38,-1
 186 1556 l 1,39,-1
 371 1556 l 1,40,-1
 371 1409 l 1,41,-1
 696 1409 l 1,42,-1
 696 1284 l 1,43,-1
 371 1284 l 1,44,-1
 371 950 l 1,16,17
EndSplineSet
EndChar
StartChar: uni0181
Encoding: 385 385 385
Width: 1505
Flags: W
TeX: 117 0 0 0
Fore
503 713 m 1,0,-1
 503 166 l 1,1,-1
 827 166 l 2,2,3
 990.005 166 990.005 166 1068.5 233.5 c 0,4,5
 1147 301.009 1147 301.009 1147 440 c 0,6,7
 1147 579.992 1147 579.992 1068.5 646.5 c 0,8,9
 990.004 713 990.004 713 827 713 c 2,10,-1
 503 713 l 1,0,-1
817 1493 m 2,11,12
 1048.01 1493 1048.01 1493 1173 1397 c 0,13,14
 1298 1301 1298 1301 1298 1124 c 0,15,16
 1298 986.989 1298 986.989 1234 906 c 0,17,18
 1169.99 824.999 1169.99 824.999 1046 805 c 1,19,20
 1195 772.998 1195 772.998 1277.5 671.5 c 0,21,22
 1360 570 1360 570 1360 418 c 0,23,24
 1360 217.993 1360 217.993 1224 109 c 0,25,26
 1087.99 0 1087.99 0 837 0 c 2,27,-1
 301 0 l 1,28,-1
 301 1327 l 1,29,30
 159.494 1327 159.494 1327 99.5 1280 c 0,31,32
 51 1242 51 1242 51 1128 c 2,33,-1
 51 1079 l 1,34,-1
 -105 1079 l 1,35,-1
 -105 1149 l 2,36,37
 -105 1330.01 -105 1330.01 -9 1411.5 c 0,38,39
 87.0075 1493 87.0075 1493 301 1493 c 2,40,-1
 817 1493 l 2,11,12
503 1327 m 1,41,-1
 503 877 l 1,42,-1
 802 877 l 2,43,44
 950 877 950 877 1022.5 932.5 c 0,45,46
 1095 988.004 1095 988.004 1095 1102 c 0,47,48
 1095 1215 1095 1215 1022.5 1271 c 0,49,50
 949.988 1327 949.988 1327 802 1327 c 2,51,-1
 503 1327 l 1,41,-1
EndSplineSet
EndChar
StartChar: uni0183
Encoding: 387 387 387
Width: 1300
Flags: W
TeX: 117 0 0 0
Fore
371 950 m 1,0,1
 429 1050.01 429 1050.01 517.5 1098.5 c 0,2,3
 606.009 1147 606.009 1147 729 1147 c 0,4,5
 933 1147 933 1147 1060.5 985 c 0,6,7
 1188 823 1188 823 1188 559 c 0,8,9
 1188 295 1188 295 1060.5 133 c 0,10,11
 933 -29 933 -29 729 -29 c 0,12,13
 606 -29 606 -29 517.5 19.5 c 0,14,15
 429 68 429 68 371 168 c 1,16,-1
 371 0 l 1,17,-1
 186 0 l 1,18,-1
 186 1556 l 1,19,-1
 1032 1556 l 1,20,-1
 1032 1390 l 1,21,-1
 371 1390.55 l 1,22,-1
 371 950 l 1,0,1
997 559 m 0,23,24
 997 762 997 762 913.5 877.5 c 0,25,26
 830 993 830 993 684 993 c 0,27,28
 538 993 538 993 454.5 877.5 c 0,29,30
 371 762 371 762 371 559 c 0,31,32
 371 356 371 356 454.5 240.5 c 0,33,34
 538 125 538 125 684 125 c 0,35,36
 830 125 830 125 913.5 240.5 c 0,37,38
 997 356 997 356 997 559 c 0,23,24
EndSplineSet
EndChar
StartChar: uni0186
Encoding: 390 390 390
Width: 1430
Flags: W
TeX: 117 0 0 0
AnchorPoint: "above" 604 1520 basechar 0
Fore
115 1378 m 1,0,1
 219 1449 219 1449 337.5 1484.5 c 128,-1,2
 456 1520 456 1520 590 1520 c 0,3,4
 929 1520 929 1520 1124 1312.5 c 128,-1,5
 1319 1105 1319 1105 1319 745 c 0,6,7
 1319 386 1319 386 1124 178.5 c 128,-1,8
 929 -29 929 -29 590 -29 c 0,9,10
 458 -29 458 -29 339.5 7 c 128,-1,11
 221 43 221 43 115 115 c 1,12,-1
 115 326 l 1,13,14
 217 231 217 231 332.5 184 c 128,-1,15
 448 137 448 137 578 137 c 0,16,17
 834 137 834 137 970 293.5 c 128,-1,18
 1106 450 1106 450 1106 745 c 0,19,20
 1106 1041 1106 1041 970 1197.5 c 128,-1,21
 834 1354 834 1354 578 1354 c 0,22,23
 448 1354 448 1354 332.5 1307 c 128,-1,24
 217 1260 217 1260 115 1165 c 1,25,-1
 115 1378 l 1,0,1
EndSplineSet
EndChar
StartChar: uni0187
Encoding: 391 391 391
Width: 1430
Flags: W
TeX: 117 0 0 0
AnchorPoint: "above" 844 1520 basechar 0
Fore
1120.82 1476.79 m 1,0,1
 1136.79 1671.56 1136.79 1671.56 1219.5 1770 c 0,2,3
 1322 1892 1322 1892 1549 1892 c 2,4,-1
 1626 1892 l 1,5,-1
 1626 1722 l 1,6,-1
 1563 1722 l 2,7,8
 1429.01 1722 1429.01 1722 1374 1647 c 0,9,10
 1319 1572.01 1319 1572.01 1319 1378 c 2,11,-1
 1319 1165 l 1,12,13
 1216.97 1260.01 1216.97 1260.01 1101.5 1307 c 0,14,15
 985.958 1354 985.958 1354 856 1354 c 0,16,17
 600.014 1354 600.014 1354 464 1197.5 c 0,18,19
 328 1041.01 328 1041.01 328 745 c 0,20,21
 328 450 328 450 464 293.5 c 0,22,23
 600.001 137 600.001 137 856 137 c 0,24,25
 985.999 137 985.999 137 1101.5 184 c 0,26,27
 1217 230.999 1217 230.999 1319 326 c 1,28,-1
 1319 115 l 1,29,30
 1212.99 42.9998 1212.99 42.9998 1094.5 7 c 0,31,32
 976 -29 976 -29 844 -29 c 0,33,34
 505 -29 505 -29 310 178.5 c 0,35,36
 115 386 115 386 115 745 c 0,37,38
 115 1105.01 115 1105.01 310 1312.5 c 0,39,40
 505.014 1520 505.014 1520 844 1520 c 0,41,42
 978.032 1520 978.032 1520 1096.5 1484.5 c 0,43,44
 1108.79 1480.81 1108.79 1480.81 1120.82 1476.79 c 1,0,1
EndSplineSet
EndChar
StartChar: uni0188
Encoding: 392 392 392
Width: 1126
Flags: W
TeX: 117 0 0 0
Fore
816.594 1134.54 m 1,0,1
 826.397 1304.42 826.397 1304.42 896.5 1387 c 0,2,3
 978 1483 978 1483 1159 1483 c 2,4,-1
 1229 1483 l 1,5,-1
 1229 1327 l 1,6,-1
 1180 1327 l 2,7,8
 1075 1327 1075 1327 1037 1278.5 c 0,9,10
 999 1230 999 1230 999 1077 c 2,11,-1
 999 905 l 1,12,13
 921 948 921 948 842.5 969.5 c 0,14,15
 763.999 991 763.999 991 684 991 c 0,16,17
 505 991 505 991 406 877.5 c 0,18,19
 307 764 307 764 307 559 c 0,20,21
 307 354 307 354 406 240.5 c 0,22,23
 505 127 505 127 684 127 c 0,24,25
 763.996 127 763.996 127 842.5 148.5 c 0,26,27
 921 169.999 921 169.999 999 213 c 1,28,-1
 999 43 l 1,29,30
 922 7 922 7 839.5 -11 c 0,31,32
 757 -29 757 -29 664 -29 c 0,33,34
 411 -29 411 -29 262 130 c 0,35,36
 113 289.002 113 289.002 113 559 c 0,37,38
 113 832.993 113 832.993 263.5 990 c 0,39,40
 413.99 1147 413.99 1147 676 1147 c 0,41,42
 747.773 1147 747.773 1147 816.594 1134.54 c 1,0,1
EndSplineSet
EndChar
StartChar: uni018A
Encoding: 394 394 394
Width: 1687
Flags: W
TeX: 117 0 0 0
Fore
503 1327 m 1,0,-1
 503 166 l 1,1,-1
 747 166 l 2,2,3
 1055.99 166 1055.99 166 1199.5 306 c 0,4,5
 1343 445.992 1343 445.992 1343 748 c 0,6,7
 1343 1048 1343 1048 1199.5 1187.5 c 0,8,9
 1055.99 1327 1055.99 1327 747 1327 c 2,10,-1
 503 1327 l 1,0,-1
716 1493 m 2,11,12
 1150 1493 1150 1493 1353 1312.5 c 0,13,14
 1556 1132 1556 1132 1556 748 c 0,15,16
 1556 362 1556 362 1352 181 c 0,17,18
 1148 0 1148 0 716 0 c 2,19,-1
 301 0 l 1,20,-1
 301 1327 l 1,21,22
 159.494 1327 159.494 1327 99.5 1280 c 0,23,24
 51 1242 51 1242 51 1128 c 2,25,-1
 51 1079 l 1,26,-1
 -105 1079 l 1,27,-1
 -105 1149 l 2,28,29
 -105 1330.01 -105 1330.01 -9 1411.5 c 0,30,31
 87.0075 1493 87.0075 1493 301 1493 c 2,32,-1
 716 1493 l 2,11,12
EndSplineSet
EndChar
StartChar: uni018B
Encoding: 395 395 395
Width: 1405
Flags: W
TeX: 117 0 0 0
Fore
414 439 m 24,0,1
 414 301 414 301 493 234 c 0,2,3
 571.001 166 571.001 166 734 166 c 2,4,-1
 1058 166 l 1,5,-1
 1058 713 l 1,6,-1
 734 713 l 2,7,8
 571 713 571 713 493 646 c 0,9,10
 414 578 414 578 414 439 c 24,0,1
414 1493 m 25,11,-1
 1260 1493 l 1,12,-1
 1260 0 l 1,13,-1
 724 0 l 2,14,15
 473 0 473 0 337 109 c 0,16,17
 201 218 201 218 201 439 c 0,18,19
 201 661 201 661 337 770 c 0,20,21
 473 879 473 879 724 879 c 2,22,-1
 1058 879 l 1,23,-1
 1058 1327 l 1,24,-1
 414 1327 l 1,25,-1
 414 1493 l 25,11,-1
EndSplineSet
EndChar
StartChar: uni018C
Encoding: 396 396 396
Width: 1300
Flags: W
TeX: 117 0 0 0
Fore
930 950 m 1,0,-1
 930 1390.55 l 1,1,-1
 269 1390 l 1,2,-1
 269 1556 l 1,3,-1
 1114 1556 l 1,4,-1
 1114 0 l 1,5,-1
 930 0 l 1,6,-1
 930 168 l 1,7,8
 872 67.9995 872 67.9995 783.5 19.5 c 0,9,10
 695 -28.9995 695 -28.9995 572 -29 c 0,11,12
 368 -29 368 -29 240.5 133 c 0,13,14
 113 295 113 295 113 559 c 0,15,16
 113 823 113 823 240.5 985 c 0,17,18
 368 1147 368 1147 572 1147 c 0,19,20
 694.991 1147 694.991 1147 783.5 1098.5 c 0,21,22
 872 1050.01 872 1050.01 930 950 c 1,0,-1
304 559 m 0,23,24
 304 356 304 356 387.5 240.5 c 0,25,26
 471 125 471 125 617 125 c 0,27,28
 763 125 763 125 846.5 240.5 c 0,29,30
 930 356 930 356 930 559 c 0,31,32
 930 762 930 762 846.5 877.5 c 0,33,34
 763 993 763 993 617 993 c 0,35,36
 471 993 471 993 387.5 877.5 c 0,37,38
 304 762 304 762 304 559 c 0,23,24
EndSplineSet
EndChar
StartChar: uni018D
Encoding: 397 397 397
Width: 1253
Flags: W
TeX: 117 0 0 0
Fore
250 -203 m 17,0,1
 351.999 -273 351.999 -273 591 -273 c 0,2,3
 844 -273 844 -273 844 -156 c 0,4,5
 844 -64.0001 844 -64.0001 580 -16 c 0,6,7
 372.375 21 372.375 21 255 133 c 0,8,9
 113 268 113 268 113 545 c 0,10,11
 113 809.999 113 809.999 250 966 c 0,12,13
 386.995 1123 386.995 1123 627 1123 c 0,14,15
 866.004 1123 866.004 1123 1004 966 c 0,16,17
 1141 809.994 1141 809.994 1141 535 c 0,18,19
 1141 331.006 1141 331.006 1004 166 c 0,20,21
 951 101.999 951 101.999 876 66 c 1,22,23
 1032 -13.0001 1032 -13.0001 1032 -154 c 0,24,25
 1032 -426 1032 -426 591 -426 c 0,26,27
 370 -426 370 -426 250 -356 c 1,28,-1
 250 -203 l 17,0,1
738 116 m 1,29,30
 806 144.999 806 144.999 861 218 c 0,31,32
 947 331 947 331 947 535 c 0,33,34
 947 738 947 738 862 852 c 0,35,36
 776.001 967 776.001 967 627 967 c 0,37,38
 480 967 480 967 394 851 c 0,39,40
 308 735 308 735 308 545 c 0,41,42
 308 346 308 346 399 250 c 0,43,44
 496 146.999 496 146.999 622 136 c 0,45,46
 685.996 130 685.996 130 738 116 c 1,29,30
EndSplineSet
EndChar
StartChar: uni018E
Encoding: 398 398 398
Width: 1294
Flags: W
TeX: 117 0 0 0
AnchorPoint: "above" 670 1520 basechar 0
Fore
1163 1493 m 1,0,-1
 1163 0 l 1,11,-1
 201 0 l 1,10,-1
 201 170 l 1,9,-1
 961 170 l 1,8,-1
 961 711 l 1,7,-1
 250 711 l 1,6,-1
 250 881 l 1,5,-1
 961 881 l 1,4,-1
 961 1323 l 1,3,-1
 219 1323 l 1,2,-1
 219 1493 l 1,1,-1
 1163 1493 l 1,0,-1
EndSplineSet
EndChar
StartChar: uni018F
Encoding: 399 399 399
Width: 1612
Flags: W
TeX: 117 0 0 0
Fore
1283.93 780 m 8,0,-1
 115.47 780 l 17,1,2
 116 400 116 400 303.5 181 c 0,3,4
 484.952 -29 484.952 -29 807 -29 c 0,5,6
 1121 -29 1121 -29 1309 181.5 c 128,-1,7
 1497 392 1497 392 1497 745 c 24,8,9
 1497 1111 1497 1111 1299.5 1315.5 c 128,-1,10
 1102 1520 1102 1520 752 1520 c 0,11,12
 606 1520 606 1520 474.5 1484 c 128,-1,13
 343 1448 343 1448 232 1378 c 1,14,-1
 232 1163 l 1,15,16
 344 1258 344 1258 470 1306 c 128,-1,17
 596 1354 596 1354 735 1354 c 0,18,19
 1009 1354 1009 1354 1146.5 1201 c 0,20,21
 1283.93 1048.07 1283.93 1048.07 1283.93 780 c 8,0,-1
1276.3 614 m 17,22,23
 1252.54 422.851 1252.54 422.851 1155.5 299 c 0,24,25
 1027 135 1027 135 807 135 c 128,-1,26
 587 135 587 135 457.5 299 c 0,27,28
 359.703 422.851 359.703 422.851 335.761 614 c 9,29,-1
 1276.3 614 l 17,22,23
EndSplineSet
EndChar
StartChar: uni0190
Encoding: 400 400 400
Width: 1303
Flags: W
TeX: 117 0 0 0
AnchorPoint: "above" 700 1520 basechar 0
Fore
464 805 m 1,0,1
 333 838 333 838 262 923.5 c 128,-1,2
 191 1009 191 1009 191 1133 c 0,3,4
 191 1311 191 1311 325 1415.5 c 128,-1,5
 459 1520 459 1520 689 1520 c 0,6,7
 778 1520 778 1520 878.5 1504 c 128,-1,8
 979 1488 979 1488 1094 1456 c 1,9,-1
 1094 1276 l 1,10,11
 980 1314 980 1314 885 1332 c 128,-1,12
 790 1350 790 1350 707 1350 c 0,13,14
 555 1350 555 1350 473.5 1288.5 c 128,-1,15
 392 1227 392 1227 392 1112 c 0,16,17
 392 1000 392 1000 471 940.5 c 128,-1,18
 550 881 550 881 699 881 c 2,19,-1
 881 881 l 1,20,-1
 881 715 l 1,21,-1
 707 715 l 2,22,23
 542 715 542 715 449.5 640.5 c 128,-1,24
 357 566 357 566 357 434 c 0,25,26
 357 291 357 291 456.5 216 c 128,-1,27
 556 141 556 141 746 141 c 0,28,29
 855 141 855 141 955 166 c 128,-1,30
 1055 191 1055 191 1139 240 c 1,31,-1
 1139 45 l 1,32,33
 1033 8 1033 8 933.5 -10.5 c 128,-1,34
 834 -29 834 -29 740 -29 c 0,35,36
 460 -29 460 -29 308 92 c 128,-1,37
 156 213 156 213 156 434 c 0,38,39
 156 578 156 578 237.5 676 c 128,-1,40
 319 774 319 774 464 805 c 1,0,1
EndSplineSet
EndChar
StartChar: uni0191
Encoding: 401 401 401
Width: 1178
Flags: W
TeX: 117 0 0 0
AnchorPoint: "above" 670 1520 basechar 0
Fore
201 1493 m 1,0,-1
 1059 1493 l 1,1,-1
 1059 1323 l 1,2,-1
 403 1323 l 1,3,-1
 403 883 l 1,4,-1
 995 883 l 1,5,-1
 995 713 l 1,6,-1
 403 713 l 1,7,-1
 403 104 l 2,8,9
 403 -166.005 403 -166.005 300.5 -288 c 0,10,11
 197.996 -410 197.996 -410 -29 -410 c 2,12,-1
 -106 -410 l 1,13,-1
 -106 -240 l 1,14,-1
 -43 -240 l 2,15,16
 91 -240 91 -240 146 -165 c 0,17,18
 201 -90.0007 201 -90.0007 201 104 c 2,19,-1
 201 1493 l 1,0,-1
EndSplineSet
EndChar
StartChar: florin
Encoding: 402 402 402
Width: 1303
Flags: W
Fore
1282 1520 m 1,0,-1
 1282 1356 l 1,1,2
 1244 1385 1244 1385 1204 1399 c 128,-1,3
 1164 1413 1164 1413 1120 1413 c 0,4,5
 1024 1413 1024 1413 967 1352 c 128,-1,6
 910 1291 910 1291 885 1159 c 1,7,-1
 825 848 l 1,8,-1
 1112 848 l 1,9,-1
 1112 705 l 1,10,-1
 795 705 l 1,11,-1
 668 70 l 1,12,13
 610 -215 610 -215 516 -320.5 c 128,-1,14
 422 -426 422 -426 236 -426 c 0,15,16
 178 -426 178 -426 128 -415.5 c 128,-1,17
 78 -405 78 -405 31 -383 c 1,18,-1
 31 -217 l 1,19,20
 83 -250 83 -250 131.5 -266.5 c 128,-1,21
 180 -283 180 -283 227 -283 c 0,22,23
 324 -283 324 -283 378.5 -214.5 c 128,-1,24
 433 -146 433 -146 467 20 c 1,25,-1
 604 705 l 1,26,-1
 356 705 l 1,27,-1
 356 848 l 1,28,-1
 635 848 l 1,29,-1
 698 1178 l 1,30,31
 734 1361 734 1361 833 1458.5 c 128,-1,32
 932 1556 932 1556 1083 1556 c 0,33,34
 1136 1556 1136 1556 1186 1547 c 128,-1,35
 1236 1538 1236 1538 1282 1520 c 1,0,-1
EndSplineSet
EndChar
StartChar: uni0193
Encoding: 403 403 403
Width: 1587
Flags: W
TeX: 117 0 0 0
AnchorPoint: "above" 860 1520 basechar 0
Fore
1219 213 m 1,0,-1
 1219 614 l 1,1,-1
 889 614 l 1,2,-1
 889 780 l 1,3,-1
 1419 780 l 1,4,-1
 1419 139 l 1,5,6
 1302 56.0001 1302 56.0001 1161 13.5 c 0,7,8
 1020 -29 1020 -29 860 -29 c 0,9,10
 510 -29 510 -29 312.5 175.5 c 0,11,12
 115 379.999 115 379.999 115 745 c 0,13,14
 115 1111.01 115 1111.01 312.5 1315.5 c 0,15,16
 510.014 1520 510.014 1520 860 1520 c 0,17,18
 1005.99 1520 1005.99 1520 1137.5 1484 c 0,19,20
 1159.72 1477.92 1159.72 1477.92 1181.36 1470.86 c 1,21,22
 1196.56 1670.1 1196.56 1670.1 1280.5 1770 c 0,23,24
 1383 1892 1383 1892 1610 1892 c 2,25,-1
 1687 1892 l 1,26,-1
 1687 1722 l 1,27,-1
 1624 1722 l 2,28,29
 1490.01 1722 1490.01 1722 1435 1647 c 0,30,31
 1380 1572.01 1380 1572.01 1380 1378 c 2,32,-1
 1380 1163 l 1,33,34
 1267.95 1258.02 1267.95 1258.02 1142 1306 c 0,35,36
 1015.98 1354 1015.98 1354 877 1354 c 0,37,38
 603 1354 603 1354 465.5 1201 c 0,39,40
 328 1048 328 1048 328 745 c 0,41,42
 328 443 328 443 465.5 290 c 0,43,44
 603 137 603 137 877 137 c 0,45,46
 983.998 137 983.998 137 1068 155.5 c 0,47,48
 1151.99 173.997 1151.99 173.997 1219 213 c 1,0,-1
EndSplineSet
EndChar
StartChar: uni0194
Encoding: 404 404 404
Width: 1403
Flags: W
TeX: 0 0 0 0
Fore
832 650 m 1,0,1
 1159 201 1159 201 1156 -194 c 8,2,3
 1153 -430 1153 -430 740 -430 c 8,4,5
 332 -430 332 -430 300 -194 c 16,6,7
 251 172 251 172 594 657 c 1,8,-1
 129 1353 l 1,9,-1
 346 1353 l 1,10,-1
 717 798 l 1,11,-1
 1090 1353 l 1,12,-1
 1307 1353 l 1,13,-1
 832 650 l 1,0,1
702 495 m 1,14,15
 496 194 496 194 503 -130 c 8,16,17
 506 -268 506 -268 719 -268 c 16,18,19
 924 -268 924 -268 923 -130 c 16,20,21
 920 200 920 200 702 495 c 1,14,15
EndSplineSet
EndChar
StartChar: uni0195
Encoding: 405 405 405
Width: 1972
Flags: W
TeX: 117 0 0 0
Fore
1124 676 m 2,0,1
 1124 907.995 1124 907.995 1025 1027.5 c 0,2,3
 926.009 1147 926.009 1147 733 1147 c 0,4,5
 616.028 1147 616.028 1147 526.5 1097 c 0,6,7
 437.014 1047.01 437.014 1047.01 371 946 c 1,8,-1
 371 1556 l 1,9,-1
 186 1556 l 1,10,-1
 186 0 l 1,11,-1
 371 0 l 1,12,-1
 371 633 l 2,13,14
 371 797 371 797 457 892 c 0,15,16
 543 987 543 987 692 987 c 0,17,18
 815.999 987 815.999 987 878 908 c 0,19,20
 939.997 829.005 939.997 829.005 939.997 672.914 c 2,21,-1
 940 406 l 2,22,23
 940.018 191.979 940.018 191.979 1021 96 c 0,24,25
 1103.01 0 1103.01 0 1284 0 c 2,26,-1
 1354 0 l 2,27,28
 1578.99 0 1578.99 0 1721 146 c 2,29,30
 1721.74 146.767 l 1,31,32
 1722.49 147.535 l 1,33,34
 1723.23 148.303 l 1,35,36
 1723.96 149.073 l 1,37,38
 1724.7 149.843 l 1,39,40
 1725.55 150.735 l 1,41,42
 1726.28 151.507 l 1,43,44
 1727 152.279 l 1,45,46
 1727.73 153.052 l 1,47,48
 1728.45 153.826 l 1,49,-1
 1728.58 153.96 l 1,50,51
 1729.3 154.735 l 1,52,53
 1730.01 155.51 l 1,54,55
 1730.73 156.287 l 1,56,57
 1731.44 157.064 l 1,58,59
 1732.15 157.841 l 1,60,61
 1766.52 200.051 l 1,62,63
 1796.71 247.421 l 2,64,65
 1863 366.434 1863 366.434 1863 527 c 0,66,67
 1863 663 1863 663 1809 773 c 0,68,69
 1753.01 885.992 1753.01 885.992 1639 986 c 1,70,-1
 1317 986 l 1,71,72
 1362.99 974.005 1362.99 974.005 1439 930 c 0,73,74
 1516.4 885.191 1516.4 885.191 1570.56 812.749 c 0,75,76
 1586.3 791.69 1586.3 791.69 1610 756 c 0,77,78
 1676 656 1676 656 1676 510 c 0,79,80
 1676 351.994 1676 351.994 1588 254 c 0,81,82
 1500 157 1500 157 1356 157 c 2,83,-1
 1305 156 l 2,84,85
 1202 154.001 1202 154.001 1162 204 c 0,86,87
 1124 253.007 1124 253.007 1124 406 c 2,88,-1
 1124 676 l 2,0,1
EndSplineSet
EndChar
StartChar: uni0196
Encoding: 406 406 406
Width: 724
Flags: W
TeX: 117 0 0 0
AnchorPoint: "above" 303 1520 basechar 0
Fore
201 514 m 2,0,-1
 201 1493 l 1,1,-1
 403 1493 l 1,2,-1
 403 514 l 2,3,4
 403 319.999 403 319.999 458 245 c 0,5,6
 513 170 513 170 647 170 c 2,7,-1
 710 170 l 1,8,-1
 710 0 l 1,9,-1
 633 0 l 2,10,11
 406 0 406 0 303.5 122 c 0,12,13
 201 244 201 244 201 514 c 2,0,-1
EndSplineSet
EndChar
StartChar: uni0197
Encoding: 407 407 407
Width: 604
Flags: W
TeX: 117 0 0 0
AnchorPoint: "above" 303 1520 basechar 0
Fore
201 1493 m 1,0,-1
 403 1493 l 1,1,-1
 403 844 l 1,2,-1
 594 844 l 1,3,-1
 594 700 l 1,4,-1
 403 700 l 1,5,-1
 403 0 l 1,6,-1
 201 0 l 1,7,-1
 201 700 l 1,8,-1
 10 700 l 1,9,-1
 10 844 l 1,10,-1
 201 844 l 1,11,-1
 201 1493 l 1,0,-1
EndSplineSet
EndChar
StartChar: uni0198
Encoding: 408 408 408
Width: 1413
Flags: W
TeX: 117 0 0 0
AnchorPoint: "above" 670 1520 basechar 0
Fore
201 1493 m 1,0,-1
 403 1493 l 1,1,-1
 403 862 l 1,2,-1
 1000.44 1424.8 l 2,3,4
 1157.35 1572.58 1157.35 1572.58 1282 1579 c 0,5,6
 1407.76 1585.48 1407.76 1585.48 1531.85 1453.71 c 2,7,-1
 1579.84 1402.75 l 1,8,-1
 1466.27 1295.8 l 1,9,-1
 1432.68 1331.48 l 2,10,11
 1360.69 1407.92 1360.69 1407.92 1299.33 1402.33 c 0,12,13
 1228.7 1395.9 1228.7 1395.9 1126.59 1299.85 c 2,14,-1
 592 797 l 1,15,-1
 1386 0 l 1,16,-1
 1120 0 l 1,17,-1
 403 719 l 1,18,-1
 403 0 l 1,19,-1
 201 0 l 1,20,-1
 201 1493 l 1,0,-1
EndSplineSet
EndChar
StartChar: uni0199
Encoding: 409 409 409
Width: 1186
Flags: W
TeX: 117 0 0 0
AnchorPoint: "above" 278.5 1673 basechar 0
Fore
185.5 1198 m 2,0,1
 185.422 1383.94 185.422 1383.94 273.5 1470.5 c 0,2,3
 360.5 1556 360.5 1556 549.5 1556 c 2,4,-1
 723.5 1556 l 1,5,-1
 723.5 1403 l 1,6,-1
 547.5 1403 l 2,7,8
 448.496 1403 448.496 1403 410 1363 c 0,9,10
 371.589 1323.08 371.589 1323.08 371.5 1219 c 2,11,-1
 371 637 l 1,12,-1
 920 1120 l 1,13,-1
 1155 1120 l 1,14,-1
 561 596 l 1,15,-1
 1180 0 l 1,16,-1
 940 0 l 1,17,-1
 371 547 l 1,18,-1
 371 0 l 1,19,-1
 186 0 l 1,20,-1
 185.5 1198 l 2,0,1
EndSplineSet
EndChar
StartChar: uni019A
Encoding: 410 410 410
Width: 569
Flags: W
TeX: 117 0 0 0
AnchorPoint: "above" 278 1520 basechar 0
Fore
193 1556 m 1,0,-1
 377 1556 l 1,1,-1
 377 844 l 1,2,-1
 554 844 l 1,3,-1
 554 700 l 1,4,-1
 377 700 l 1,5,-1
 377 0 l 1,6,-1
 193 0 l 1,7,-1
 193 700 l 1,8,-1
 10 700 l 1,9,-1
 10 844 l 1,10,-1
 193 844 l 1,11,-1
 193 1556 l 1,0,-1
EndSplineSet
EndChar
StartChar: uni019B
Encoding: 411 411 411
Width: 1212
Flags: W
TeX: 117 0 0 0
AnchorPoint: "above" 642 1520 basechar 0
Fore
61 0 m 1,0,-1
 552 1074 l 1,1,-1
 481.176 1261.57 l 1,2,-1
 181 1161 l 1,3,-1
 148 1260 l 1,4,-1
 444.539 1358.6 l 1,5,-1
 370 1556 l 1,6,-1
 570 1556 l 1,7,-1
 621.714 1417.5 l 1,8,-1
 936 1522 l 1,9,-1
 969 1425 l 1,10,-1
 657.84 1320.75 l 1,11,-1
 1151 0 l 1,12,-1
 956 0 l 1,13,-1
 642 828 l 1,14,-1
 256 0 l 1,15,-1
 61 0 l 1,0,-1
EndSplineSet
EndChar
StartChar: uni019D
Encoding: 413 413 413
Width: 1532
Flags: W
TeX: 117 0 0 0
AnchorPoint: "above" 757 1506 basechar 0
Fore
201 1493 m 1,0,-1
 473 1493 l 1,1,-1
 1135 244 l 1,2,-1
 1135 1493 l 1,3,-1
 1331 1493 l 1,4,-1
 1331 0 l 1,5,-1
 1059 0 l 1,6,-1
 397 1249 l 1,7,-1
 397 104 l 2,8,9
 397 -169.951 397 -169.951 299.5 -286 c 0,10,11
 195.32 -410 195.32 -410 -29 -410 c 2,12,-1
 -106 -410 l 1,13,-1
 -106 -240 l 1,14,-1
 -43 -240 l 2,15,16
 91 -240 91 -240 146 -165 c 0,17,18
 201 -90.0007 201 -90.0007 201 104 c 2,19,-1
 201 1493 l 1,0,-1
EndSplineSet
EndChar
StartChar: uni01A4
Encoding: 420 420 420
Width: 1335
Flags: W
TeX: 117 0 0 0
AnchorPoint: "above" 770 1520 basechar 0
Fore
503 1327 m 1,0,-1
 503 766 l 1,1,-1
 757 766 l 2,2,3
 898 766 898 766 975 839 c 0,4,5
 1052 912 1052 912 1052 1047 c 0,6,7
 1052 1180.99 1052 1180.99 975 1254 c 0,8,9
 898.008 1327 898.008 1327 757 1327 c 2,10,-1
 503 1327 l 1,0,-1
757 1493 m 2,11,12
 1008.01 1493 1008.01 1493 1136.5 1379.5 c 0,13,14
 1265 1265.99 1265 1265.99 1265 1047 c 0,15,16
 1265 825.995 1265 825.995 1136.5 713 c 0,17,18
 1007.99 600 1007.99 600 757 600 c 2,19,-1
 503 600 l 1,20,-1
 503 0 l 1,21,-1
 301 0 l 1,22,-1
 301 1327 l 1,23,24
 172.811 1327 172.811 1327 99.5 1271 c 0,25,26
 51.0005 1233 51.0005 1233 51 1128 c 2,27,-1
 51 1079 l 1,28,-1
 -105 1079 l 1,29,-1
 -105 1149 l 2,30,31
 -105 1330 -105 1330 -9 1411.5 c 0,32,33
 87.0015 1493 87.0015 1493 301 1493 c 2,34,-1
 757 1493 l 2,11,12
EndSplineSet
EndChar
StartChar: uni01A5
Encoding: 421 421 421
Width: 1300
Flags: W
TeX: 117 0 0 0
Fore
997 559 m 0,0,1
 997 762 997 762 913.5 877.5 c 0,2,3
 830 993 830 993 684 993 c 0,4,5
 538 993 538 993 454.5 877.5 c 0,6,7
 371 762 371 762 371 559 c 0,8,9
 371 356 371 356 454.5 240.5 c 0,10,11
 538 125 538 125 684 125 c 0,12,13
 830 125 830 125 913.5 240.5 c 0,14,15
 997 356 997 356 997 559 c 0,0,1
370.996 1218.98 m 1,16,17
 371.006 1219.26 371.006 1219.26 371 950 c 1,18,19
 429 1050.01 429 1050.01 517.5 1098.5 c 0,20,21
 606.027 1147 606.027 1147 729 1147 c 0,22,23
 933 1147 933 1147 1060.5 985 c 0,24,25
 1188 823 1188 823 1188 559 c 0,26,27
 1188 295 1188 295 1060.5 133 c 0,28,29
 933 -29 933 -29 729 -29 c 0,30,31
 606 -29 606 -29 517.5 19.5 c 0,32,33
 429 68 429 68 371 168 c 1,34,-1
 371 -426 l 1,35,-1
 186 -426 l 1,36,-1
 185.505 1198 l 2,37,38
 185.563 1384.57 185.563 1384.57 272.998 1470.5 c 0,39,40
 359.998 1556 359.998 1556 548.998 1556 c 2,41,-1
 722.998 1556 l 1,42,-1
 722.998 1403 l 1,43,-1
 546.998 1403 l 2,44,45
 447.994 1403 447.994 1403 409.498 1363 c 0,46,47
 370.999 1323 370.999 1323 370.996 1218.98 c 1,16,17
EndSplineSet
EndChar
StartChar: uni01A7
Encoding: 423 423 423
Width: 1300
Flags: W
TeX: 117 0 0 0
AnchorPoint: "above" 659 1520 basechar 0
Fore
159 1444 m 1,0,-1
 273 1482 273 1482 382 1501 c 128,-1,39
 491 1520 491 1520 596 1520 c 0,37,38
 841 1520 841 1520 980.5 1406 c 128,-1,36
 1120 1292 1120 1292 1120 1094 c 0,34,35
 1120 923 1120 923 1019 827 c 128,-1,33
 918 731 918 731 692 686 c 2,31,32
 569 662 l 2,30,-1
 415 631 415 631 347.5 569 c 128,-1,29
 280 507 280 507 280 397 c 0,27,28
 280 271 280 271 374 203 c 128,-1,26
 468 135 468 135 641 135 c 0,24,25
 755 135 755 135 873 170 c 128,-1,23
 991 205 991 205 1114 274 c 1,21,22
 1114 66 l 1,20,-1
 986 19 986 19 866.5 -5 c 128,-1,19
 747 -29 747 -29 641 -29 c 0,17,18
 360 -29 360 -29 214.5 83 c 128,-1,16
 69 195 69 195 69 412 c 0,14,15
 69 594 69 594 176.5 702.5 c 128,-1,13
 284 811 284 811 510 854 c 1,11,12
 632 879 l 1,10,-1
 798 910 798 910 857.5 960.5 c 128,-1,9
 917 1011 917 1011 917 1110 c 0,7,8
 917 1228 917 1228 827.5 1292 c 128,-1,6
 738 1356 738 1356 573 1356 c 0,4,5
 478 1356 478 1356 376 1329 c 128,-1,3
 274 1302 274 1302 159 1247 c 1,1,2
 159 1444 l 1,0,-1
EndSplineSet
EndChar
StartChar: uni01A8
Encoding: 424 424 424
Width: 1067
Flags: W
TeX: 117 0 0 0
AnchorPoint: "above" 551 1147 basechar 0
Fore
131 1087 m 1,0,-1
 207 1117 207 1117 297 1132 c 128,-1,39
 387 1147 387 1147 489 1147 c 0,37,38
 695 1147 695 1147 807 1061 c 128,-1,36
 919 975 919 975 919 817 c 0,34,35
 919 687 919 687 843 612.5 c 128,-1,33
 767 538 767 538 596 502 c 1,31,32
 532 487 l 2,30,-1
 361 450 361 450 310.5 410 c 128,-1,29
 260 370 260 370 260 295 c 0,27,28
 260 214 260 214 330 169.5 c 128,-1,26
 400 125 400 125 530 125 c 0,24,25
 627 125 627 125 726 151.5 c 128,-1,23
 825 178 825 178 927 231 c 1,21,22
 927 41 l 1,20,-1
 819 6 819 6 721.5 -11.5 c 128,-1,19
 624 -29 624 -29 534 -29 c 0,17,18
 318 -29 318 -29 194.5 62 c 128,-1,16
 71 153 71 153 71 309 c 0,14,15
 71 446 71 446 153.5 522.5 c 128,-1,13
 236 599 236 599 432 641 c 2,11,12
 495 655 l 2,10,-1
 643 688 643 688 692 724.5 c 128,-1,9
 741 761 741 761 741 825 c 0,7,8
 741 909 741 909 672.5 951 c 128,-1,6
 604 993 604 993 467 993 c 0,4,5
 377 993 377 993 293 973 c 128,-1,3
 209 953 209 953 131 913 c 1,1,2
 131 1087 l 1,0,-1
EndSplineSet
EndChar
StartChar: uni01AB
Encoding: 427 427 427
Width: 803
Flags: W
TeX: 117 0 0 0
AnchorPoint: "above" 282 1520 basechar 0
Fore
375 1438 m 1,0,-1
 375 1120 l 1,1,-1
 754 1120 l 1,2,-1
 754 977 l 1,3,-1
 375 977 l 1,4,-1
 375 369 l 2,5,6
 375 232 375 232 412.5 193 c 0,7,8
 450 154 450 154 565 154 c 2,9,-1
 754 154 l 1,10,-1
 753.5 -20 l 2,11,12
 753.5 -233.999 753.5 -233.999 672 -330 c 0,13,14
 590.5 -426 590.5 -426 409.5 -426 c 2,15,-1
 339.5 -426 l 1,16,-1
 339.5 -270 l 1,17,-1
 388.5 -270 l 2,18,19
 493.5 -270 493.5 -270 531.5 -221.5 c 0,20,21
 569.5 -173 569.5 -173 569.5 -20 c 2,22,-1
 569.5 2.22045e-16 l 1,23,-1
 565 0 l 2,24,25
 352 0 352 0 271 79.5 c 0,26,27
 190 159 190 159 190 369 c 2,28,-1
 190 977 l 1,29,-1
 55 977 l 1,30,-1
 55 1120 l 1,31,-1
 190 1120 l 1,32,-1
 190 1438 l 1,33,-1
 375 1438 l 1,0,-1
EndSplineSet
EndChar
StartChar: uni01AC
Encoding: 428 428 428
Width: 1251
Flags: W
TeX: 117 0 0 0
AnchorPoint: "above" 627 1506 basechar 0
Fore
430 1323 m 2,0,-1
 524 1323 l 1,1,-1
 524 0 l 1,2,-1
 727 0 l 1,3,-1
 727 1323 l 1,4,-1
 1257 1323 l 1,5,-1
 1257 1493 l 1,6,-1
 430 1493 l 2,7,8
 216.008 1493 216.008 1493 120 1411.5 c 0,9,10
 24 1330.01 24 1330.01 24 1149 c 2,11,-1
 24 1079 l 1,12,-1
 180 1079 l 1,13,-1
 180 1128 l 2,14,15
 180 1233 180 1233 228.5 1271 c 0,16,17
 296.581 1323 296.581 1323 430 1323 c 2,0,-1
EndSplineSet
EndChar
StartChar: uni01AD
Encoding: 429 429 429
Width: 803
Flags: W
TeX: 117 0 0 0
AnchorPoint: "above" 282 1673 basechar 0
Fore
190 1198 m 2,0,1
 190 1385 190 1385 277 1470.5 c 0,2,3
 364 1556 364 1556 553 1556 c 2,4,-1
 727 1556 l 1,5,-1
 727 1403 l 1,6,-1
 551 1403 l 2,7,8
 451.996 1403 451.996 1403 413.5 1363 c 0,9,10
 375 1322.37 375 1322.37 375 1219 c 2,11,-1
 375 1120 l 1,12,-1
 754 1120 l 1,13,-1
 754 977 l 1,14,-1
 375 977 l 1,15,-1
 375 369 l 2,16,17
 375 232 375 232 412.5 193 c 0,18,19
 450 154 450 154 565 154 c 2,20,-1
 754 154 l 1,21,-1
 754 0 l 1,22,-1
 565 0 l 2,23,24
 352 0 352 0 271 79.5 c 0,25,26
 190 159 190 159 190 369 c 2,27,-1
 190 977 l 1,28,-1
 55 977 l 1,29,-1
 55 1120 l 1,30,-1
 190 1120 l 1,31,-1
 190 1198 l 2,0,1
EndSplineSet
EndChar
StartChar: uni01AE
Encoding: 430 430 430
Width: 1251
Flags: W
TeX: 117 0 0 0
AnchorPoint: "above" 627 1506 basechar 0
Fore
524 1323 m 1,0,-1
 -6 1323 l 1,1,-1
 -6 1493 l 1,2,-1
 1257 1493 l 1,3,-1
 1257 1323 l 1,4,-1
 727 1323 l 1,5,-1
 727 104 l 2,6,7
 727 -91.365 727 -91.365 781 -165 c 0,8,9
 836 -240 836 -240 970 -240 c 2,10,-1
 1033 -240 l 1,11,-1
 1033 -410 l 1,12,-1
 956 -410 l 2,13,14
 729 -410 729 -410 626.5 -288 c 0,15,16
 524 -166 524 -166 524 104 c 2,17,-1
 524 1323 l 1,0,-1
EndSplineSet
EndChar
StartChar: uni01B1
Encoding: 433 433 433
Width: 1565
Flags: W
TeX: 117 0 0 0
Fore
1487 1304 m 1,0,-1
 1487 1482 l 1,1,-1
 887 1482 l 1,2,-1
 887 1304 l 1,3,4
 1064 1207 1064 1207 1163 1041 c 0,5,6
 1262 875 1262 875 1262 673 c 0,7,8
 1262 433.01 1262 433.01 1130 288 c 0,9,10
 998.005 143 998.005 143 782 143 c 0,11,12
 566 143 566 143 433.5 288.5 c 128,-1,13
 301 434 301 434 301 673 c 0,14,15
 301 874.999 301 874.999 400.5 1041 c 0,16,17
 499.999 1207 499.999 1207 678 1304 c 1,18,-1
 678 1482 l 1,19,-1
 78 1482 l 1,20,-1
 78 1304 l 1,21,-1
 397 1304 l 1,22,23
 238.999 1165 238.999 1165 166.5 1016 c 0,24,25
 94.001 867 94.001 867 94 683 c 0,26,27
 94 364.99 94 364.99 285.5 168 c 0,28,29
 477.005 -29 477.005 -29 782 -29 c 0,30,31
 1085.01 -29 1085.01 -29 1277.5 167.5 c 0,32,33
 1470 364.01 1470 364.01 1470 673 c 0,34,35
 1470 866.989 1470 866.989 1399 1015 c 0,36,37
 1328.01 1162.98 1328.01 1162.98 1167 1304 c 1,38,-1
 1487 1304 l 1,0,-1
EndSplineSet
EndChar
StartChar: uni01B5
Encoding: 437 437 437
Width: 1403
Flags: W
TeX: 117 0 0 0
AnchorPoint: "above" 702 1520 basechar 0
Fore
115 1493 m 1,0,-1
 1288 1493 l 1,1,-1
 1288 1339 l 1,2,-1
 888.274 844 l 1,3,-1
 1169 844 l 1,4,-1
 1169 700 l 1,5,-1
 771.99 700 l 1,6,-1
 344 170 l 1,7,-1
 1311 170 l 1,8,-1
 1311 0 l 1,9,-1
 92 0 l 1,10,-1
 92 154 l 1,11,-1
 532.91 700 l 1,12,-1
 234 700 l 1,13,-1
 234 844 l 1,14,-1
 649.194 844 l 1,15,-1
 1036 1323 l 1,16,-1
 115 1323 l 1,17,-1
 115 1493 l 1,0,-1
EndSplineSet
EndChar
StartChar: uni01B6
Encoding: 438 438 438
Width: 1075
Flags: W
TeX: 117 0 0 0
AnchorPoint: "above" 535 1147 basechar 0
Fore
113 1120 m 1,0,-1
 987 1120 l 1,1,-1
 987 952 l 1,2,-1
 735.989 660 l 1,3,-1
 930 660 l 1,4,-1
 930 516 l 1,5,-1
 612.203 516 l 1,6,-1
 295 147 l 1,7,-1
 987 147 l 1,8,-1
 987 0 l 1,9,-1
 88 0 l 1,10,-1
 88 168 l 1,11,-1
 387.15 516 l 1,12,-1
 175 516 l 1,13,-1
 175 660 l 1,14,-1
 510.937 660 l 1,15,-1
 780 973 l 1,16,-1
 113 973 l 1,17,-1
 113 1120 l 1,0,-1
EndSplineSet
EndChar
StartChar: uni01B9
Encoding: 441 441 441
Width: 1183
Flags: W
TeX: 117 0 0 0
AnchorPoint: "below" 731 -430 basechar 0
AnchorPoint: "above" 653 1143 basechar 0
Fore
603 476 m 1,0,1
 497 476 497 476 369 420 c 0,2,3
 270.998 377.999 270.998 377.999 185 269 c 0,4,5
 104 165.001 104 165.001 104 27 c 0,6,7
 104 -110.638 104 -110.638 162.961 -209.492 c 2,8,9
 191.081 -250.259 l 2,10,11
 219.05 -285.584 219.05 -285.584 256 -315 c 0,12,13
 408 -436 408 -436 688 -436 c 0,14,15
 782 -436 782 -436 881 -418 c 0,16,17
 980.995 -399.001 980.995 -399.001 1087 -362 c 1,18,-1
 1087 -167 l 1,19,20
 1003 -215.999 1003 -215.999 903 -241 c 0,21,22
 803.001 -266 803.001 -266 694 -266 c 0,23,24
 504 -266 504 -266 405 -191 c 0,25,26
 305 -116 305 -116 305 27 c 0,27,28
 305 159 305 159 397 234 c 0,29,30
 490 308 490 308 655 308 c 2,31,-1
 829 308 l 1,32,-1
 829 474 l 1,33,-1
 399 973 l 1,34,-1
 1066 973 l 1,35,-1
 1066 1120 l 1,36,-1
 192 1120 l 1,37,-1
 192 952 l 1,38,-1
 603 476 l 1,0,1
EndSplineSet
EndChar
StartChar: uni01BB
Encoding: 443 443 443
Width: 1303
Flags: W
TeX: 117 0 0 0
Fore
393 170 m 1,0,-1
 1098 170 l 1,1,-1
 1098 0 l 1,2,-1
 150 0 l 1,3,-1
 150 170 l 1,4,-1
 463.5 489.5 l 1,5,-1
 578.55 607 l 1,6,-1
 234 607 l 1,7,-1
 234 751 l 1,8,-1
 715.649 751 l 1,9,10
 811.292 859.536 811.292 859.536 848.5 932.5 c 0,11,12
 887 1008 887 1008 887 1081 c 0,13,14
 887 1200 887 1200 803.5 1275 c 0,15,16
 720 1350 720 1350 586 1350 c 0,17,18
 490.999 1350 490.999 1350 385.5 1317 c 0,19,20
 279.998 1284 279.998 1284 160 1217 c 1,21,-1
 160 1421 l 1,22,23
 281.984 1469.99 281.984 1469.99 388 1495 c 0,24,25
 493.946 1520 493.946 1520 582 1520 c 0,26,27
 813.982 1520 813.982 1520 952 1404 c 0,28,29
 1090 1288.01 1090 1288.01 1090 1094 c 0,30,31
 1090 1002 1090 1002 1055.5 919.5 c 0,32,33
 1025.06 846.716 1025.06 846.716 950.673 751 c 1,34,-1
 1055 751 l 1,35,-1
 1055 607 l 1,36,-1
 818.777 607 l 1,37,-1
 771 557.5 l 1,38,-1
 393 170 l 1,0,-1
EndSplineSet
EndChar
StartChar: uni01C0
Encoding: 448 448 448
Width: 604
Flags: W
TeX: 117 0 0 0
Fore
201 1493 m 1,0,-1
 403 1493 l 1,1,-1
 403 -426 l 1,2,-1
 201 -426 l 1,3,-1
 201 1493 l 1,0,-1
EndSplineSet
EndChar
StartChar: uni01C2
Encoding: 450 450 450
Width: 940
Flags: W
TeX: 117 0 0 0
Fore
371 1493 m 1,0,-1
 573 1493 l 1,1,-1
 573 876 l 1,2,-1
 924 876 l 1,3,-1
 924 708 l 1,4,-1
 573 708 l 1,5,-1
 573 468 l 1,6,-1
 924 468 l 1,7,-1
 924 298 l 1,8,-1
 573 298 l 1,9,-1
 573 -426 l 1,10,-1
 371 -426 l 1,11,-1
 371 298 l 1,12,-1
 20 298 l 1,13,-1
 20 468 l 1,14,-1
 371 468 l 1,15,-1
 371 708 l 1,16,-1
 20 708 l 1,17,-1
 20 876 l 1,18,-1
 371 876 l 1,19,-1
 371 1493 l 1,0,-1
EndSplineSet
EndChar
StartChar: uni01F6
Encoding: 502 502 502
Width: 2279
Flags: W
TeX: 117 0 0 0
Fore
2093 1120 m 1,0,-1
 2093 442 l 2,1,2
 2093 219.119 2093 219.119 1993 91 c 0,3,4
 1897 -29 1897 -29 1615 -29 c 0,5,6
 1339.88 -29 1339.88 -29 1237 91 c 0,7,8
 1137 208.926 1137 208.926 1137 442 c 2,9,-1
 1137 711 l 1,10,-1
 403 711 l 1,11,-1
 403 0 l 1,12,-1
 201 0 l 1,13,-1
 201 1493 l 1,14,-1
 403 1493 l 1,15,-1
 403 881 l 1,16,-1
 1137 881 l 1,17,-1
 1137 1493 l 1,18,-1
 1339 1493 l 1,19,-1
 1339 449 l 2,20,21
 1339 290.007 1339 290.007 1401 210.5 c 0,22,23
 1462.13 132.105 1462.13 132.105 1615 131 c 0,24,25
 1763 131 1763 131 1829 210.5 c 0,26,27
 1891 285.188 1891 285.188 1891 449 c 2,28,-1
 1891 1120 l 1,29,-1
 2093 1120 l 1,0,-1
EndSplineSet
EndChar
StartChar: dotlessj
Encoding: 567 567 567
Width: 569
Flags: W
AnchorPoint: "above" 287 1147 basechar 0
Fore
193 1120 m 1,0,-1
 377 1120 l 1,1,-1
 377 -20 l 2,2,3
 377 -234 377 -234 295.5 -330 c 128,-1,4
 214 -426 214 -426 33 -426 c 2,5,-1
 -37 -426 l 1,6,-1
 -37 -270 l 1,7,-1
 12 -270 l 2,8,9
 117 -270 117 -270 155 -221.5 c 128,-1,10
 193 -173 193 -173 193 -20 c 2,11,-1
 193 1120 l 1,0,-1
EndSplineSet
EndChar
StartChar: uni0238
Encoding: 568 568 568
Width: 2044
Flags: W
TeX: 117 0 0 0
Fore
303 559 m 0,0,1
 303 356 303 356 386.5 240.5 c 0,2,3
 470 125 470 125 616 125 c 0,4,5
 762 125 762 125 846 240.5 c 0,6,7
 930 356 930 356 930 559 c 0,8,9
 930 762 930 762 846 877.5 c 0,10,11
 762 993 762 993 616 993 c 0,12,13
 470 993 470 993 386.5 877.5 c 0,14,15
 303 762 303 762 303 559 c 0,0,1
1115 950 m 1,16,17
 1173 1050 1173 1050 1261.5 1098.5 c 0,18,19
 1350 1147 1350 1147 1473 1147 c 0,20,21
 1677 1147 1677 1147 1804.5 985 c 0,22,23
 1932 823 1932 823 1932 559 c 0,24,25
 1932 295 1932 295 1804.5 133 c 0,26,27
 1677 -29 1677 -29 1473 -29 c 0,28,29
 1350 -29 1350 -29 1261.5 19.5 c 0,30,31
 1173 68 1173 68 1115 168 c 1,32,-1
 1115 0 l 1,33,-1
 1114 0 l 1,34,-1
 930 0 l 1,35,-1
 930 168 l 1,36,37
 872 68 872 68 783.5 19.5 c 0,38,39
 695 -29 695 -29 571 -29 c 0,40,41
 368 -29 368 -29 240.5 133 c 0,42,43
 113 295 113 295 113 559 c 0,44,45
 113 823 113 823 240.5 985 c 0,46,47
 368 1147 368 1147 571 1147 c 0,48,49
 695 1147 695 1147 783.5 1098.5 c 0,50,51
 872 1050 872 1050 930 950 c 1,52,-1
 930 1556 l 1,53,-1
 1114 1556 l 1,54,-1
 1115 1556 l 1,55,-1
 1115 950 l 1,16,17
1741 559 m 0,56,57
 1741 762 1741 762 1657.5 877.5 c 0,58,59
 1574 993 1574 993 1428 993 c 0,60,61
 1282 993 1282 993 1198.5 877.5 c 0,62,63
 1115 762 1115 762 1115 559 c 0,64,65
 1115 356 1115 356 1198.5 240.5 c 0,66,67
 1282 125 1282 125 1428 125 c 0,68,69
 1574 125 1574 125 1657.5 240.5 c 0,70,71
 1741 356 1741 356 1741 559 c 0,56,57
EndSplineSet
EndChar
StartChar: uni0239
Encoding: 569 569 569
Width: 2044
Flags: W
TeX: 117 0 0 0
Fore
1741 559 m 0,0,1
 1741 762 1741 762 1657.5 877.5 c 0,2,3
 1574 993 1574 993 1428 993 c 0,4,5
 1282 993 1282 993 1198.5 877.5 c 0,6,7
 1115 762 1115 762 1115 559 c 0,8,9
 1115 356 1115 356 1198.5 240.5 c 0,10,11
 1282 125 1282 125 1428 125 c 0,12,13
 1574 125 1574 125 1657.5 240.5 c 0,14,15
 1741 356 1741 356 1741 559 c 0,0,1
1115 168 m 1,16,-1
 1115 -426 l 1,17,-1
 1114 -426 l 1,18,-1
 930 -426 l 1,19,-1
 930 168 l 1,20,21
 872 68 872 68 783.5 19.5 c 0,22,23
 695 -29 695 -29 571 -29 c 0,24,25
 368 -29 368 -29 240.5 133 c 0,26,27
 113 295 113 295 113 559 c 0,28,29
 113 823 113 823 240.5 985 c 0,30,31
 368 1147 368 1147 571 1147 c 0,32,33
 695 1147 695 1147 783.5 1098.5 c 0,34,35
 872 1050 872 1050 930 950 c 1,36,-1
 930 1120 l 1,37,-1
 1114 1120 l 1,38,-1
 1115 1120 l 1,39,-1
 1115 950 l 1,40,41
 1173 1050 1173 1050 1261.5 1098.5 c 0,42,43
 1350 1147 1350 1147 1473 1147 c 0,44,45
 1677 1147 1677 1147 1804.5 985 c 0,46,47
 1932 823 1932 823 1932 559 c 0,48,49
 1932 295 1932 295 1804.5 133 c 0,50,51
 1677 -29 1677 -29 1473 -29 c 0,52,53
 1350 -29 1350 -29 1261.5 19.5 c 0,54,55
 1173 68 1173 68 1115 168 c 1,16,-1
303 559 m 0,56,57
 303 356 303 356 386.5 240.5 c 0,58,59
 470 125 470 125 616 125 c 0,60,61
 762 125 762 125 846 240.5 c 0,62,63
 930 356 930 356 930 559 c 0,64,65
 930 762 930 762 846 877.5 c 0,66,67
 762 993 762 993 616 993 c 0,68,69
 470 993 470 993 386.5 877.5 c 0,70,71
 303 762 303 762 303 559 c 0,56,57
EndSplineSet
EndChar
StartChar: uni0250
Encoding: 592 592 592
Width: 1255
Flags: W
AnchorPoint: "below" 596 0 basechar 0
AnchorPoint: "above" 596 1147 basechar 0
Fore
490 555 m 2,0,1
 713 555 713 555 799 606 c 128,-1,2
 885 657 885 657 885 780 c 0,3,4
 885 878 885 878 820 936 c 0,5,6
 756 993 756 993 645 993 c 0,7,8
 492 993 492 993 400 884 c 0,9,10
 307 776 307 776 307 596 c 2,11,-1
 307 555 l 1,12,-1
 490 555 l 2,0,1
123 479 m 2,13,-1
 123 1118 l 1,14,-1
 307 1118 l 1,15,-1
 307 948 l 1,16,17
 370 1050 370 1050 464 1098 c 0,18,19
 558 1147 558 1147 694 1147 c 0,20,21
 866 1147 866 1147 968 1050 c 0,22,23
 1069 954 1069 954 1069 792 c 0,24,25
 1069 603 1069 603 942 507 c 0,26,27
 816 411 816 411 565 411 c 2,28,-1
 307 411 l 1,29,-1
 307 393 l 2,30,31
 307 266 307 266 390 196 c 0,32,33
 474 127 474 127 625 127 c 0,34,35
 721 127 721 127 812 150 c 128,-1,36
 903 173 903 173 987 219 c 1,37,-1
 987 49 l 1,38,39
 886 10 886 10 791 -10 c 0,40,41
 696 -29 696 -29 606 -29 c 0,42,43
 363 -29 363 -29 243 97 c 128,-1,44
 123 223 123 223 123 479 c 2,13,-1
EndSplineSet
EndChar
StartChar: uni0251
Encoding: 593 593 593
Width: 1300
Flags: W
TeX: 0 0 0 0
AnchorPoint: "below" 596 0 basechar 0
AnchorPoint: "above" 596 1147 basechar 0
Fore
930 950 m 1,0,-1
 930 1120 l 1,1,-1
 1114 1120 l 1,2,-1
 1114 0 l 1,3,-1
 930 0 l 1,4,-1
 930 168 l 1,5,6
 872 68 872 68 784 20 c 0,7,8
 695 -29 695 -29 571 -29 c 0,9,10
 368 -29 368 -29 240 133 c 0,11,12
 113 295 113 295 113 559 c 128,-1,13
 113 823 113 823 240 985 c 0,14,15
 368 1147 368 1147 571 1147 c 0,16,17
 695 1147 695 1147 784 1098 c 0,18,19
 872 1050 872 1050 930 950 c 1,0,-1
303 559 m 0,20,21
 303 356 303 356 386 240 c 0,22,23
 470 125 470 125 616 125 c 128,-1,24
 762 125 762 125 846 240 c 0,25,26
 930 356 930 356 930 559 c 128,-1,27
 930 762 930 762 846 878 c 0,28,29
 762 993 762 993 616 993 c 128,-1,30
 470 993 470 993 386 878 c 0,31,32
 303 762 303 762 303 559 c 0,20,21
EndSplineSet
EndChar
StartChar: uni0252
Encoding: 594 594 594
Width: 1300
Flags: W
TeX: 0 0 0 0
AnchorPoint: "below" 653 0 basechar 0
AnchorPoint: "above" 653 1147 basechar 0
Fore
297 168 m 1,0,-1
 297 -2 l 1,1,-1
 113 -2 l 1,2,-1
 113 1118 l 1,3,-1
 297 1118 l 1,4,-1
 297 950 l 1,5,6
 355 1050 355 1050 444 1098 c 0,7,8
 532 1147 532 1147 656 1147 c 0,9,10
 859 1147 859 1147 986 985 c 0,11,12
 1114 823 1114 823 1114 559 c 128,-1,13
 1114 295 1114 295 986 133 c 0,14,15
 859 -29 859 -29 656 -29 c 0,16,17
 532 -29 532 -29 444 20 c 0,18,19
 355 68 355 68 297 168 c 1,0,-1
924 559 m 0,20,21
 924 762 924 762 840 878 c 0,22,23
 757 993 757 993 611 993 c 128,-1,24
 465 993 465 993 381 878 c 0,25,26
 297 762 297 762 297 559 c 128,-1,27
 297 356 297 356 381 240 c 0,28,29
 465 125 465 125 611 125 c 128,-1,30
 757 125 757 125 840 240 c 0,31,32
 924 356 924 356 924 559 c 0,20,21
EndSplineSet
EndChar
StartChar: uni0253
Encoding: 595 595 595
Width: 1300
Flags: W
TeX: 0 0 0 0
AnchorPoint: "below" 653 0 basechar 0
AnchorPoint: "above" 278 1520 basechar 0
Fore
997 559 m 0,0,1
 997 762 997 762 914 878 c 0,2,3
 830 993 830 993 684 993 c 128,-1,4
 538 993 538 993 454 878 c 0,5,6
 371 762 371 762 371 559 c 128,-1,7
 371 356 371 356 454 240 c 0,8,9
 538 125 538 125 684 125 c 128,-1,10
 830 125 830 125 914 240 c 0,11,12
 997 356 997 356 997 559 c 0,0,1
370 950 m 1,13,14
 428 1050 428 1050 518 1098 c 0,15,16
 606 1147 606 1147 729 1147 c 0,17,18
 933 1147 933 1147 1060 985 c 0,19,20
 1188 823 1188 823 1188 559 c 128,-1,21
 1188 295 1188 295 1060 133 c 0,22,23
 933 -29 933 -29 729 -29 c 0,24,25
 606 -29 606 -29 518 20 c 0,26,27
 429 68 429 68 371 168 c 1,28,-1
 371 0 l 1,29,-1
 186 0 l 1,30,-1
 186 1002 l 1,31,-1
 186 1150 l 2,32,33
 186 1364 186 1364 268 1460 c 0,34,35
 349 1556 349 1556 530 1556 c 2,36,-1
 784 1556 l 1,37,-1
 784 1400 l 1,38,-1
 551 1400 l 2,39,40
 442 1400 442 1400 408 1352 c 0,41,42
 370 1300 370 1300 370 1150 c 2,43,-1
 370 1002 l 1,44,-1
 370 950 l 1,13,14
EndSplineSet
EndChar
StartChar: uni0254
Encoding: 596 596 596
Width: 1126
Flags: W
AnchorPoint: "below" 433 0 basechar 0
AnchorPoint: "above" 433 1145 basechar 0
Fore
113 1077 m 1,0,1
 189 1112 189 1112 270 1130 c 0,2,3
 351 1147 351 1147 436 1147 c 0,4,5
 698 1147 698 1147 848 990 c 0,6,7
 999 833 999 833 999 559 c 0,8,9
 999 289 999 289 850 130 c 128,-1,10
 701 -29 701 -29 448 -29 c 0,11,12
 355 -29 355 -29 272 -11 c 0,13,14
 190 7 190 7 113 43 c 1,15,-1
 113 213 l 1,16,17
 191 170 191 170 270 148 c 0,18,19
 348 127 348 127 428 127 c 0,20,21
 607 127 607 127 706 240 c 0,22,23
 805 354 805 354 805 559 c 0,24,25
 805 764 805 764 706 878 c 0,26,27
 607 991 607 991 428 991 c 0,28,29
 348 991 348 991 270 970 c 0,30,31
 191 948 191 948 113 905 c 1,32,-1
 113 1077 l 1,0,1
EndSplineSet
EndChar
StartChar: uni0255
Encoding: 597 597 597
Width: 1126
Flags: W
TeX: 0 0 0 0
AnchorPoint: "below" 678 0 basechar 0
AnchorPoint: "above" 678 1147 basechar 0
Fore
549 146 m 1,0,1
 607.462 127 607.462 127 684 127 c 0,2,3
 830 127 830 127 830 184 c 0,4,5
 828.5 259 828.5 259 698 259 c 0,6,7
 597.213 259 597.213 259 549 146 c 1,0,1
513 -16 m 1,8,9
 507 -73 507 -73 507 -141 c 1,10,-1
 354 -144 l 1,11,12
 354 -40 354 -40 366 44 c 1,13,14
 308.902 78.5596 308.902 78.5596 262 130 c 0,15,16
 113 291.04 113 291.04 113 559 c 0,17,18
 113 833.02 113 833.02 264 990 c 0,19,20
 413.524 1147 413.524 1147 676 1147 c 0,21,22
 758.545 1147 758.545 1147 842 1130 c 0,23,24
 919.829 1112.7 919.829 1112.7 999 1077 c 1,25,-1
 999 905 l 1,26,27
 924.125 946.757 924.125 946.757 842 970 c 0,28,29
 764 991 764 991 684 991 c 0,30,31
 505.44 991 505.44 991 406 878 c 0,32,33
 307 764 307 764 307 559 c 0,34,35
 307 354 307 354 406 240 c 0,36,37
 410 235 410 235 419 226 c 1,38,39
 503.239 402 503.239 402 699 402 c 0,40,41
 997.5 402 997.5 402 999 156 c 0,42,43
 1000.5 -33 1000.5 -33 666 -33 c 0,44,45
 585.636 -33 585.636 -33 513 -16 c 1,8,9
EndSplineSet
EndChar
StartChar: uni0256
Encoding: 598 598 598
Width: 1300
Flags: W
TeX: 0 0 0 0
AnchorPoint: "below" 596 -430 basechar 0
AnchorPoint: "above" 1022 1520 basechar 0
Fore
303 559 m 0,0,1
 303 356 303 356 386 240 c 0,2,3
 470.001 125 470.001 125 616 125 c 0,4,5
 761.999 125 761.999 125 846 240 c 0,6,7
 930 356.001 930 356.001 930 559 c 0,8,9
 930 761.999 930 761.999 846 878 c 0,10,11
 761.999 993 761.999 993 616 993 c 0,12,13
 470.001 993 470.001 993 386 878 c 0,14,15
 303 762 303 762 303 559 c 0,0,1
930 950 m 1,16,-1
 930 1556 l 1,17,-1
 1114 1556 l 1,18,-1
 1114 -20 l 2,19,20
 1114 -173.002 1114 -173.002 1152 -222 c 0,21,22
 1190 -270 1190 -270 1295 -270 c 2,23,-1
 1344 -270 l 1,24,-1
 1344 -426 l 1,25,-1
 1274 -426 l 2,26,27
 1093 -426 1093 -426 1012 -330 c 0,28,29
 930 -233.999 930 -233.999 930 -20 c 2,30,-1
 930 128 l 1,31,-1
 930 168 l 1,32,33
 872.001 68.0011 872.001 68.0011 784 20 c 0,34,35
 694.997 -29 694.997 -29 571 -29 c 0,36,37
 368.001 -29 368.001 -29 240 133 c 0,38,39
 113 295.001 113 295.001 113 559 c 0,40,41
 113 822.999 113 822.999 240 985 c 0,42,43
 368.001 1147 368.001 1147 571 1147 c 0,44,45
 694.997 1147 694.997 1147 784 1098 c 0,46,47
 872.001 1050 872.001 1050 930 950 c 1,16,-1
EndSplineSet
EndChar
StartChar: uni0257
Encoding: 599 599 599
Width: 1489
Flags: W
TeX: 0 0 0 0
AnchorPoint: "below" 596 0 basechar 0
AnchorPoint: "above" 1022 1520 basechar 0
Fore
1114 1002 m 1,0,-1
 1114 0 l 1,1,-1
 930 0 l 1,2,-1
 930 168 l 1,3,4
 872 68 872 68 784 20 c 0,5,6
 695 -29 695 -29 571 -29 c 0,7,8
 368 -29 368 -29 240 133 c 0,9,10
 113 295 113 295 113 559 c 128,-1,11
 113 823 113 823 240 985 c 0,12,13
 368 1147 368 1147 571 1147 c 0,14,15
 695 1147 695 1147 784 1098 c 0,16,17
 872 1050 872 1050 930 950 c 1,18,-1
 930 1002 l 1,19,-1
 930 1150 l 2,20,21
 930 1364 930 1364 1012 1460 c 0,22,23
 1093 1556 1093 1556 1274 1556 c 2,24,-1
 1528 1556 l 1,25,-1
 1528 1400 l 1,26,-1
 1295 1400 l 2,27,28
 1186 1400 1186 1400 1152 1352 c 0,29,30
 1114 1300 1114 1300 1114 1150 c 2,31,-1
 1114 1002 l 1,0,-1
303 559 m 0,32,33
 303 356 303 356 386 240 c 0,34,35
 470 125 470 125 616 125 c 128,-1,36
 762 125 762 125 846 240 c 0,37,38
 930 356 930 356 930 559 c 128,-1,39
 930 762 930 762 846 878 c 0,40,41
 762 993 762 993 616 993 c 128,-1,42
 470 993 470 993 386 878 c 0,43,44
 303 762 303 762 303 559 c 0,32,33
EndSplineSet
EndChar
StartChar: uni0258
Encoding: 600 600 600
Width: 1260
Flags: W
AnchorPoint: "below" 611 0 basechar 0
AnchorPoint: "above" 611 1147 basechar 0
Fore
113 606 m 2,0,1
 113 856 113 856 244 1002 c 0,2,3
 376 1147 376 1147 602 1147 c 0,4,5
 854 1147 854 1147 1002 986 c 0,6,7
 1151 824 1151 824 1151 549 c 0,8,9
 1151 283 1151 283 994 127 c 0,10,11
 838 -29 838 -29 570 -29 c 0,12,13
 463 -29 463 -29 359 -7 c 128,-1,14
 255 15 255 15 156 57 c 1,15,-1
 156 231 l 1,16,17
 254 179 254 179 354 153 c 0,18,19
 453 127 453 127 559 127 c 0,20,21
 742 127 742 127 844 226 c 0,22,23
 947 326 947 326 959 516 c 1,24,-1
 113 516 l 1,25,-1
 113 606 l 2,0,1
297 660 m 1,26,-1
 953 659 l 1,27,28
 939 817 939 817 846 904 c 0,29,30
 754 991 754 991 600 991 c 0,31,32
 464 991 464 991 382 901 c 0,33,34
 299 811 299 811 297 660 c 1,26,-1
EndSplineSet
EndChar
StartChar: uni0259
Encoding: 601 601 601
Width: 1260
Flags: W
AnchorPoint: "below" 594 0 basechar 0
AnchorPoint: "above" 594 1147 basechar 0
Fore
113 512 m 2,0,-1
 113 602 l 1,1,-1
 959 602 l 1,2,3
 947 792 947 792 844 892 c 0,4,5
 742 991 742 991 559 991 c 0,6,7
 453 991 453 991 354 965 c 0,8,9
 254 939 254 939 156 887 c 1,10,-1
 156 1061 l 1,11,12
 255 1103 255 1103 359 1125 c 128,-1,13
 463 1147 463 1147 570 1147 c 0,14,15
 838 1147 838 1147 994 991 c 0,16,17
 1151 835 1151 835 1151 569 c 0,18,19
 1151 294 1151 294 1002 132 c 0,20,21
 854 -29 854 -29 602 -29 c 0,22,23
 376 -29 376 -29 244 116 c 0,24,25
 113 262 113 262 113 512 c 2,0,-1
297 458 m 1,26,27
 299 307 299 307 382 217 c 0,28,29
 464 127 464 127 600 127 c 0,30,31
 754 127 754 127 846 214 c 0,32,33
 939 301 939 301 953 459 c 1,34,-1
 297 458 l 1,26,27
EndSplineSet
EndChar
StartChar: uni025A
Encoding: 602 602 602
Width: 1629
Flags: W
TeX: 0 0 0 0
AnchorPoint: "below" 606 0 basechar 0
AnchorPoint: "above" 606 1147 basechar 0
Fore
846 214 m 1,0,1
 948.001 352.001 948.001 352.001 946 559 c 0,2,3
 946.631 621.088 946.631 621.088 936.732 677.116 c 1,4,-1
 319.812 320.668 l 1,5,6
 349.718 252.429 349.718 252.429 382 217 c 0,7,8
 463.999 127 463.999 127 600 127 c 0,9,10
 767.666 127 767.666 127 846 214 c 1,0,1
1120.18 783.111 m 1,11,12
 1151 686.852 1151 686.852 1151 569 c 0,13,14
 1151 293.999 1151 293.999 1002 132 c 0,15,16
 854.002 -29 854.002 -29 602 -29 c 0,17,18
 374.102 -29 374.102 -29 244 116 c 0,19,20
 151.638 219.33 151.638 219.33 124.375 375.314 c 1,21,-1
 890.361 818.253 l 1,22,23
 870.665 857.132 870.665 857.132 844 892 c 0,24,25
 768.338 991.984 768.338 991.984 559 991 c 0,26,27
 451.069 990.493 451.069 990.493 354 965 c 0,28,29
 254.001 938.999 254.001 938.999 156 887 c 1,30,-1
 156 1061 l 1,31,32
 255.006 1103 255.006 1103 359 1125 c 0,33,34
 463.006 1147 463.006 1147 570 1147 c 0,35,36
 838 1147 838 1147 994 991 c 0,37,38
 1029.57 955.655 1029.57 955.655 1057.08 914.662 c 1,39,-1
 1260 1032 l 1,40,-1
 1444 1032 l 1,41,-1
 1444 884 l 2,42,43
 1444 730.998 1444 730.998 1482 682 c 0,44,45
 1520 634 1520 634 1625 634 c 2,46,-1
 1668 634 l 1,47,-1
 1668 478 l 1,48,-1
 1604 478 l 2,49,50
 1429.47 478 1429.47 478 1342 574 c 0,51,52
 1260 664 1260 664 1260.18 864 c 1,53,-1
 1120.18 783.111 l 1,11,12
EndSplineSet
EndChar
StartChar: uni025D
Encoding: 605 605 605
Width: 1567
Flags: W
TeX: 0 0 0 0
AnchorPoint: "below" 546 0 basechar 0
AnchorPoint: "above" 546 1147 basechar 0
Fore
727 607 m 1,0,1
 859.001 583.999 859.001 583.999 933 510 c 0,2,3
 1008 435.999 1008 435.999 1008 327 c 0,4,5
 1008 161.002 1008 161.002 869 69 c 0,6,7
 730.999 -22 730.999 -22 476 -22 c 0,8,9
 390.993 -22 390.993 -22 300 -8 c 0,10,11
 208.999 6.0013 208.999 6.0013 113 34 c 1,12,-1
 113 207 l 1,13,14
 188.998 173.002 188.998 173.002 280 156 c 0,15,16
 370.999 138 370.999 138 471 138 c 0,17,18
 643.998 138 643.998 138 734 190 c 0,19,20
 825 243.002 825 243.002 825 341 c 0,21,22
 825 422 825 422 740 477 c 0,23,24
 655.999 532 655.999 532 506 532 c 2,25,-1
 348 532 l 1,26,-1
 348 676 l 1,27,-1
 513 676 l 2,28,29
 649.002 676 649.002 676 721 720 c 0,30,31
 793 762.999 793 762.999 793 824 c 0,32,33
 793 898.002 793 898.002 719 941 c 0,34,35
 643.998 984 643.998 984 506 984 c 0,36,37
 431 984 431 984 344 972 c 0,38,39
 258.013 959.003 258.013 959.003 154 932 c 1,40,-1
 154 1099 l 1,41,42
 258.999 1123 258.999 1123 350 1135 c 0,43,44
 442.001 1147 442.001 1147 522 1147 c 0,45,46
 731.997 1147 731.997 1147 854 1068 c 0,47,48
 954.093 1003.19 954.093 1003.19 972.066 901.352 c 1,49,-1
 1198 1032 l 1,50,-1
 1382 1032 l 1,51,-1
 1382 884 l 2,52,53
 1382 730.998 1382 730.998 1420 682 c 0,54,55
 1458 634 1458 634 1563 634 c 2,56,-1
 1606 634 l 1,57,-1
 1606 478 l 1,58,-1
 1542 478 l 2,59,60
 1367.47 478 1367.47 478 1280 574 c 0,61,62
 1198 664 1198 664 1198.18 864 c 1,63,-1
 918 702.115 l 1,64,-1
 917.267 703.401 l 1,65,-1
 911 697 l 2,66,67
 845.998 631.998 845.998 631.998 727 607 c 1,0,1
EndSplineSet
EndChar
StartChar: uni025E
Encoding: 606 606 606
Width: 1396
Flags: W
TeX: 0 0 0 0
AnchorPoint: "below" 764 0 basechar 0
AnchorPoint: "above" 764 1147 basechar 0
Fore
773 984 m 0,0,1
 321 984 321 984 320 566 c 1,2,3
 320 120 320 120 773 119 c 0,4,5
 930 119 930 119 1003 173 c 0,6,7
 1088 237 1088 237 1088 311 c 0,8,9
 1088 389 1088 389 1009 443 c 0,10,11
 966 473 966 473 781 473 c 2,12,-1
 599 473 l 9,13,-1
 599 630 l 1,14,-1
 781 630 l 2,15,16
 966 630 966 630 1009 660 c 0,17,18
 1088 715 1088 715 1088 792 c 128,-1,19
 1088 869 1088 869 1003 930 c 0,20,21
 927 984 927 984 773 984 c 0,0,1
480 1099 m 0,22,23
 592 1144 592 1144 791 1145 c 0,24,25
 1021 1145 1021 1145 1155 1059 c 0,26,27
 1289 972 1289 972 1289 824 c 0,28,29
 1289 721 1289 721 1218 650 c 128,-1,30
 1147 579 1147 579 1016 552 c 1,31,32
 1147 524 1147 524 1218 453 c 128,-1,33
 1289 382 1289 382 1289 279 c 0,34,35
 1289 131 1289 131 1155 45 c 0,36,37
 1021 -42 1021 -42 791 -42 c 0,38,39
 595 -44 595 -44 480 18 c 0,40,41
 113 212 113 212 113 556 c 0,42,43
 113 953 113 953 480 1099 c 0,22,23
EndSplineSet
EndChar
StartChar: uni025F
Encoding: 607 607 607
Width: 668
Flags: W
AnchorPoint: "above" 287 1147 basechar 0
AnchorPoint: "below" 287 -430 basechar 0
Fore
193 1120 m 1,0,-1
 377 1120 l 1,1,-1
 377 616 l 1,2,-1
 540 616 l 1,3,-1
 540 452 l 1,4,-1
 377 452 l 1,5,-1
 377 -20 l 2,6,7
 377 -234 377 -234 295.5 -330 c 0,8,9
 214 -426 214 -426 33 -426 c 2,10,-1
 -37 -426 l 1,11,-1
 -37 -270 l 1,12,-1
 12 -270 l 2,13,14
 117 -270 117 -270 155 -221.5 c 0,15,16
 193 -173 193 -173 193 -20 c 2,17,-1
 193 452 l 1,18,-1
 12 452 l 1,19,-1
 12 616 l 1,20,-1
 193 616 l 1,21,-1
 193 1120 l 1,0,-1
EndSplineSet
EndChar
StartChar: uni0260
Encoding: 608 608 608
Width: 1305
Flags: W
TeX: 0 0 0 0
AnchorPoint: "below" 618 -430 basechar 0
AnchorPoint: "above" 618 1520 basechar 0
Fore
930 573 m 2,0,-1
 930 993 l 1,1,-1
 616 993 l 2,2,3
 468 993 468 993 386 883 c 0,4,5
 303 773 303 773 303 573 c 0,6,7
 303 374 303 374 386 264 c 0,8,9
 468 154 468 154 616 154 c 0,10,11
 765 154 765 154 848 264 c 0,12,13
 930 374 930 374 930 573 c 2,0,-1
930 1120 m 1,14,-1
 930 1150 l 2,15,16
 930 1364 930 1364 1012 1460 c 0,17,18
 1093 1556 1093 1556 1274 1556 c 2,19,-1
 1344 1556 l 1,20,-1
 1344 1400 l 1,21,-1
 1295 1400 l 2,22,23
 1190 1400 1190 1400 1152 1352 c 0,24,25
 1114 1303 1114 1303 1114 1150 c 2,26,-1
 1114 1120 l 1,27,-1
 1114 1077 l 1,28,-1
 1114 139 l 2,29,30
 1114 -146.501 1114 -146.501 987 -286 c 0,31,32
 859.544 -426 859.544 -426 598 -426 c 0,33,34
 501 -426 501 -426 415 -412 c 0,35,36
 329 -397 329 -397 248 -367 c 1,37,-1
 248 -188 l 1,38,39
 329 -232 329 -232 408 -253 c 0,40,41
 487 -274 487 -274 569 -274 c 0,42,43
 750 -274 750 -274 840 -180 c 0,44,45
 930 -85 930 -85 930 106 c 2,46,-1
 930 197 l 1,47,48
 873 98 873 98 784 49 c 0,49,50
 695 0 695 0 571 0 c 0,51,52
 365 0 365 0 239 157 c 0,53,54
 113 314 113 314 113 573 c 0,55,56
 113 805.999 113 805.999 239 963 c 0,57,58
 364.999 1120 364.999 1120 571 1120 c 2,59,-1
 930 1120 l 1,14,-1
EndSplineSet
EndChar
StartChar: uni0261
Encoding: 609 609 609
Width: 1300
Flags: W
TeX: 0 0 0 0
AnchorPoint: "below" 618 -430 basechar 0
AnchorPoint: "above" 618 1147 basechar 0
Fore
930 573 m 1,0,-1
 930 993 l 1,1,-1
 616 993 l 1,2,3
 468 993 468 993 386 883 c 0,4,5
 303 773 303 773 303 573 c 0,6,7
 303 374 303 374 386 264 c 0,8,9
 468 154 468 154 616 154 c 0,10,11
 765 154 765 154 848 264 c 0,12,13
 930 374 930 374 930 573 c 1,0,-1
1114 1120 m 1,14,-1
 1114 139 l 2,15,16
 1114 -147 1114 -147 987 -286 c 0,17,18
 860 -426 860 -426 598 -426 c 0,19,20
 501 -426 501 -426 415 -412 c 0,21,22
 329 -397 329 -397 248 -367 c 1,23,-1
 248 -188 l 1,24,25
 329 -232 329 -232 408 -253 c 128,-1,26
 487 -274 487 -274 569 -274 c 0,27,28
 750 -274 750 -274 840 -180 c 0,29,30
 930 -85 930 -85 930 106 c 2,31,-1
 930 197 l 1,32,33
 873 98 873 98 784 49 c 128,-1,34
 695 0 695 0 571 0 c 0,35,36
 365 0 365 0 239 157 c 128,-1,37
 113 314 113 314 113 573 c 0,38,39
 113 806 113 806 239 963 c 0,40,41
 364.998 1120 364.998 1120 571 1120 c 2,42,-1
 1114 1120 l 1,14,-1
EndSplineSet
EndChar
StartChar: uni0262
Encoding: 610 610 610
Width: 1289
Flags: W
TeX: 0 0 0 0
AnchorPoint: "below" 678 0 basechar 0
AnchorPoint: "above" 678 1147 basechar 0
Fore
937 178 m 0,1,-1
 937 460 l 1,2,-1
 782 460 l 1,3,-1
 782 600 l 1,4,-1
 1103 600 l 1,5,-1
 1103 72 l 1,6,7
 1031 38 1031 38 944 18 c 0,8,9
 866 0 866 0 664 0 c 0,10,11
 411 0 411 0 262 159 c 128,-1,12
 113 318 113 318 113 588 c 0,13,14
 113 862 113 862 264 1019 c 0,15,16
 414 1176 414 1176 676 1176 c 0,17,18
 738 1176 738 1176 842 1158 c 0,19,20
 946 1141 946 1141 1073 1066 c 1,21,-1
 1073 894 l 1,22,23
 953 971 953 971 842 998 c 0,24,25
 755 1020 755 1020 684 1020 c 0,26,27
 505 1020 505 1020 406 906 c 0,28,29
 307 793 307 793 307 588 c 128,-1,30
 307 383 307 383 406 270 c 0,31,32
 505 156 505 156 684 156 c 0,33,34
 857 156 857 156 937 178 c 0,1,-1
EndSplineSet
EndChar
StartChar: uni0263
Encoding: 611 611 611
Width: 1403
Flags: W
TeX: 0 0 0 0
AnchorPoint: "below" 726 -430 basechar 0
AnchorPoint: "above" 726 1147 basechar 0
Fore
841 572 m 1,0,1
 1124 126.136 1124 126.136 1124 -194 c 0,2,3
 1124 -425.749 1124 -425.749 740 -430 c 0,4,5
 317.421 -434.857 317.421 -434.857 316 -194 c 0,6,7
 313.852 147.713 313.852 147.713 603 579 c 1,8,-1
 206 1120 l 1,9,-1
 423 1120 l 1,10,-1
 726 720 l 1,11,-1
 1017 1120 l 1,12,-1
 1234 1120 l 1,13,-1
 841 572 l 1,0,1
720 452 m 1,14,15
 500 144 500 144 503 -130 c 0,16,17
 505.49 -268.01 505.49 -268.01 719 -268 c 16,18,19
 922.448 -267.986 922.448 -267.986 923 -130 c 0,20,21
 924 120 924 120 720 452 c 1,14,15
EndSplineSet
EndChar
StartChar: uni0264
Encoding: 612 612 612
Width: 1212
Flags: W
TeX: 0 0 0 0
AnchorPoint: "below" 610 0 basechar 0
AnchorPoint: "above" 610 1147 basechar 0
Fore
494 586 m 1,0,-1
 96 1120 l 1,1,-1
 313 1120 l 1,2,-1
 610 721 l 1,3,-1
 907 1120 l 1,4,-1
 1124 1120 l 1,5,-1
 719 575 l 1,6,7
 898 334 898 334 898 167.25 c 0,8,9
 899.399 0.00109955 899.399 0.00109955 612.25 0 c 0,10,11
 310 0 310 0 310 167.25 c 0,12,13
 310 344 310 344 494 586 c 1,0,-1
602 440 m 1,14,15
 484.375 282 484.375 282 484.375 222.75 c 0,16,17
 483.903 119.241 483.903 119.241 607 119.25 c 16,18,19
 720.625 119.25 720.625 119.25 720.625 222.75 c 0,20,21
 720.625 286 720.625 286 602 440 c 1,14,15
EndSplineSet
EndChar
StartChar: uni0265
Encoding: 613 613 613
Width: 1298
Flags: W
AnchorPoint: "below" 637 -430 basechar 0
AnchorPoint: "above" 637 1147 basechar 0
Fore
174 442 m 2,0,-1
 174 1120 l 1,1,-1
 358 1120 l 1,2,-1
 358 449 l 2,3,4
 358 290 358 290 420 210 c 0,5,6
 482 131 482 131 606 131 c 0,7,8
 755 131 755 131 842 226 c 0,9,10
 928 321 928 321 928 485 c 2,11,-1
 928 1120 l 1,12,-1
 1112 1120 l 1,13,-1
 1112 -426 l 1,14,-1
 928 -426 l 1,15,-1
 928 172 l 1,16,17
 861 70 861 70 772 20 c 0,18,19
 684 -29 684 -29 567 -29 c 0,20,21
 374 -29 374 -29 274 91 c 128,-1,22
 174 211 174 211 174 442 c 2,0,-1
EndSplineSet
EndChar
StartChar: uni0266
Encoding: 614 614 614
Width: 1298
Flags: W
AnchorPoint: "below" 678 0 basechar 0
AnchorPoint: "above" 278 1520 basechar 0
Fore
370 946 m 1,0,-1
 371 946 l 1,1,2
 437 1047 437 1047 526 1097 c 0,3,4
 616 1147 616 1147 733 1147 c 0,5,6
 926 1147 926 1147 1025 1028 c 0,7,8
 1124 908 1124 908 1124 676 c 2,9,-1
 1124 0 l 1,10,-1
 940 0 l 1,11,-1
 940 670 l 2,12,13
 940 829 940 829 878 908 c 128,-1,14
 816 987 816 987 692 987 c 0,15,16
 543 987 543 987 457 892 c 128,-1,17
 371 797 371 797 371 633 c 2,18,-1
 371 0 l 1,19,-1
 186 0 l 1,20,-1
 186 1002 l 1,21,-1
 186 1150 l 2,22,23
 186 1364 186 1364 268 1460 c 0,24,25
 349 1556 349 1556 530 1556 c 2,26,-1
 784 1556 l 1,27,-1
 784 1400 l 1,28,-1
 551 1400 l 2,29,30
 446 1400 446 1400 408 1352 c 0,31,32
 370 1303 370 1303 370 1150 c 2,33,-1
 370 946 l 1,0,-1
EndSplineSet
EndChar
StartChar: uni0267
Encoding: 615 615 615
Width: 1298
Flags: W
AnchorPoint: "below" 678 -430 basechar 0
AnchorPoint: "above" 278 1520 basechar 0
Fore
370 946 m 1,0,-1
 371 946 l 1,1,2
 436.999 1047 436.999 1047 526 1097 c 0,3,4
 615.998 1147 615.998 1147 733 1147 c 0,5,6
 926.001 1147 926.001 1147 1025 1028 c 0,7,8
 1124 908 1124 908 1124 676 c 2,9,-1
 1124 -20 l 2,10,11
 1124 -233.999 1124 -233.999 1042 -330 c 0,12,13
 961 -426 961 -426 780 -426 c 2,14,-1
 526 -426 l 1,15,-1
 526 -270 l 1,16,-1
 759 -270 l 2,17,18
 863.999 -270 863.999 -270 902 -222 c 0,19,20
 940 -173.002 940 -173.002 940 -20 c 2,21,-1
 940 670 l 2,22,23
 940 829.002 940 829.002 878 908 c 0,24,25
 815.998 987 815.998 987 692 987 c 0,26,27
 543 987 543 987 457 892 c 0,28,29
 371 797 371 797 371 633 c 2,30,-1
 371 0 l 1,31,-1
 186 0 l 1,32,-1
 186 1002 l 1,33,-1
 186 1150 l 2,34,35
 186 1364 186 1364 268 1460 c 0,36,37
 349 1556 349 1556 530 1556 c 2,38,-1
 784 1556 l 1,39,-1
 784 1400 l 1,40,-1
 551 1400 l 2,41,42
 446.001 1400 446.001 1400 408 1352 c 0,43,44
 370 1303 370 1303 370 1150 c 2,45,-1
 370 946 l 1,0,-1
EndSplineSet
EndChar
StartChar: uni0268
Encoding: 616 616 616
Width: 761
Flags: W
AnchorPoint: "below" 383 0 basechar 0
AnchorPoint: "above" 383 1583 basechar 0
Fore
116.5 452 m 1,0,-1
 116.5 616 l 1,1,-1
 296.5 616 l 1,2,-1
 296.5 1120 l 1,3,-1
 480.5 1120 l 1,4,-1
 480.5 616 l 1,5,-1
 644.5 616 l 1,6,-1
 644.5 452 l 1,7,-1
 480.5 452 l 1,8,-1
 480.5 0 l 1,9,-1
 296.5 0 l 1,10,-1
 296.5 452 l 1,11,-1
 116.5 452 l 1,0,-1
296.5 1556 m 1,12,-1
 480.5 1556 l 1,13,-1
 480.5 1323 l 1,14,-1
 296.5 1323 l 1,15,-1
 296.5 1556 l 1,12,-1
EndSplineSet
EndChar
StartChar: uni0269
Encoding: 617 617 617
Width: 793
Flags: W
TeX: 0 0 0 0
AnchorPoint: "below" 287 0 basechar 0
AnchorPoint: "above" 287 1147 basechar 0
Fore
377 1120 m 1,0,-1
 377 406 l 2,1,2
 377 253 377 253 415 204 c 0,3,4
 453 156 453 156 558 156 c 2,5,-1
 607 156 l 1,6,-1
 607 0 l 1,7,-1
 537 0 l 2,8,9
 356 0 356 0 274 96 c 0,10,11
 193 192 193 192 193 406 c 2,12,-1
 193 1120 l 1,13,-1
 377 1120 l 1,0,-1
EndSplineSet
EndChar
StartChar: uni026A
Encoding: 618 618 618
Width: 761
Flags: W
TeX: 0 0 0 0
AnchorPoint: "below" 384 0 basechar 0
AnchorPoint: "above" 384 1147 basechar 0
Fore
116 956 m 1,0,-1
 116 1120 l 1,1,-1
 644 1120 l 1,2,-1
 644 956 l 1,3,-1
 476 956 l 1,4,-1
 476 164 l 1,5,-1
 644 164 l 1,6,-1
 644 0 l 1,7,-1
 116 0 l 1,8,-1
 116 164 l 1,9,-1
 292 164 l 1,10,-1
 292 956 l 1,11,-1
 116 956 l 1,0,-1
EndSplineSet
EndChar
StartChar: uni026B
Encoding: 619 619 619
Width: 998
Flags: W
AnchorPoint: "below" 510 0 basechar 0
AnchorPoint: "above" 510 1520 basechar 0
Fore
418 1556 m 1,0,-1
 602 1556 l 1,1,-1
 602 768.679 l 1,2,3
 603.534 767.776 603.534 767.776 605 767 c 0,4,5
 622.001 758 622.001 758 635 758 c 0,6,7
 673 758 673 758 691 795 c 0,8,9
 708.999 830.998 708.999 830.998 711 913 c 1,10,-1
 836 913 l 1,11,12
 833.999 777.998 833.999 777.998 783 705 c 0,13,14
 732.001 631 732.001 631 641 631 c 0,15,16
 620.638 631 620.638 631 602 635.019 c 1,17,-1
 602 0 l 1,18,-1
 418 0 l 1,19,-1
 418 770.082 l 1,20,21
 412.092 774.303 412.092 774.303 407 777 c 0,22,23
 389.999 786 389.999 786 377 786 c 0,24,25
 339 786 339 786 321 749 c 0,26,27
 303.001 713.002 303.001 713.002 301 631 c 1,28,-1
 176 631 l 1,29,30
 178.001 766.002 178.001 766.002 229 839 c 0,31,32
 279.999 913 279.999 913 371 913 c 0,33,34
 395.776 913 395.776 913 418 907.049 c 1,35,-1
 418 1556 l 1,0,-1
EndSplineSet
EndChar
StartChar: uni026C
Encoding: 620 620 620
Width: 998
Flags: W
TeX: 0 0 0 0
AnchorPoint: "below" 510 0 basechar 0
AnchorPoint: "above" 510 1520 basechar 0
Fore
418 1556 m 1,0,-1
 602 1556 l 1,1,-1
 602 786 l 1,2,-1
 852 786 l 1,3,-1
 852 626 l 1,4,-1
 602 626 l 1,5,-1
 602 0 l 1,6,-1
 418 0 l 1,7,-1
 418 595.868 l 1,8,9
 417.581 611.304 417.581 611.304 416.986 626 c 1,10,-1
 356 626 l 2,11,12
 76.001 626 76.001 626 77 815 c 0,13,14
 77.999 1061 77.999 1061 323 1061 c 0,15,16
 376.179 1061 376.179 1061 418 1036.1 c 1,17,-1
 418 1556 l 1,0,-1
401.797 786 m 1,18,19
 378.574 918 378.574 918 324 918 c 0,20,21
 246.999 918 246.999 918 246 843 c 0,22,23
 246 786 246 786 338 786 c 2,24,-1
 401.797 786 l 1,18,19
EndSplineSet
EndChar
StartChar: uni026D
Encoding: 621 621 621
Width: 570
Flags: W
AnchorPoint: "below" 278 -430 basechar 0
AnchorPoint: "above" 278 1520 basechar 0
Fore
193 128 m 1,0,-1
 193 1556 l 1,1,-1
 377 1556 l 1,2,-1
 377 128 l 1,3,-1
 377 -20 l 2,4,5
 377 -173 377 -173 415 -222 c 0,6,7
 453 -270 453 -270 558 -270 c 2,8,-1
 607 -270 l 1,9,-1
 607 -426 l 1,10,-1
 537 -426 l 2,11,12
 356 -426 356 -426 275 -330 c 0,13,14
 193 -234 193 -234 193 -20 c 2,15,-1
 193 128 l 1,0,-1
EndSplineSet
EndChar
StartChar: uni026E
Encoding: 622 622 622
Width: 1446
Flags: W
TeX: 0 0 0 0
AnchorPoint: "below" 750 -430 basechar 0
AnchorPoint: "above" 278 1520 basechar 0
Fore
835 476 m 1,0,1
 939.678 476 939.678 476 1069 420 c 0,2,3
 1167.52 377.337 1167.52 377.337 1253 269 c 0,4,5
 1334 165 1334 165 1334 27 c 0,6,7
 1334 -194 1334 -194 1182 -315 c 0,8,9
 1030 -436 1030 -436 750 -436 c 0,10,11
 656 -436 656 -436 557 -418 c 0,12,13
 457 -399 457 -399 351 -362 c 1,14,-1
 351 -167 l 1,15,16
 435 -216 435 -216 535 -241 c 0,17,18
 635 -266 635 -266 744 -266 c 0,19,20
 933.502 -266 933.502 -266 1033 -191 c 0,21,22
 1133 -115.622 1133 -115.622 1133 27 c 0,23,24
 1133 159 1133 159 1041 234 c 0,25,26
 950.227 308 950.227 308 783 308 c 2,27,-1
 609 308 l 1,28,-1
 609 474 l 1,29,-1
 1039 973 l 1,30,-1
 377 973 l 1,31,-1
 377 0 l 1,32,-1
 193 0 l 1,33,-1
 193 1556 l 1,34,-1
 377 1556 l 1,35,-1
 377 1120 l 1,36,-1
 1246 1120 l 1,37,-1
 1246 952 l 1,38,-1
 835 476 l 1,0,1
EndSplineSet
EndChar
StartChar: uni026F
Encoding: 623 623 623
Width: 1995
Flags: W
AnchorPoint: "below" 1001 0 basechar 0
AnchorPoint: "above" 1001 1147 basechar 0
Fore
942 216 m 1,0,1
 873 92 873 92 777 34 c 0,2,3
 681 -26 681 -26 551 -26 c 0,4,5
 376 -26 376 -26 281 97 c 128,-1,6
 186 220 186 220 186 446 c 2,7,-1
 186 1122 l 1,8,-1
 371 1122 l 1,9,-1
 371 452 l 2,10,11
 371 290 371 290 428 212 c 128,-1,12
 485 134 485 134 602 134 c 0,13,14
 745 134 745 134 828 230 c 0,15,16
 911 324 911 324 911 488 c 2,17,-1
 911 1122 l 1,18,-1
 1096 1122 l 1,19,-1
 1096 452 l 2,20,21
 1096 290 1096 290 1153 212 c 128,-1,22
 1210 134 1210 134 1329 134 c 0,23,24
 1470 134 1470 134 1553 230 c 128,-1,25
 1636 326 1636 326 1636 488 c 2,26,-1
 1636 1122 l 1,27,-1
 1821 1122 l 1,28,-1
 1821 2 l 1,29,-1
 1636 2 l 1,30,-1
 1636 176 l 1,31,32
 1573 72 1573 72 1485 24 c 0,33,34
 1397 -26 1397 -26 1276 -26 c 0,35,36
 1154 -26 1154 -26 1068 36 c 0,37,38
 983 98 983 98 942 216 c 1,0,1
EndSplineSet
EndChar
StartChar: uni0270
Encoding: 624 624 624
Width: 1995
Flags: W
AnchorPoint: "below" 1001 -430 basechar 0
AnchorPoint: "above" 1001 1147 basechar 0
Fore
942 216 m 1,0,1
 873 92 873 92 777 33 c 128,-1,2
 681 -26 681 -26 551 -26 c 0,3,4
 376 -26 376 -26 281 96 c 0,5,6
 186 219 186 219 186 445 c 2,7,-1
 186 1121 l 1,8,-1
 371 1121 l 1,9,-1
 371 451 l 2,10,11
 371 290 371 290 428 212 c 128,-1,12
 485 134 485 134 602 134 c 0,13,14
 745 134 745 134 828 229 c 128,-1,15
 911 324 911 324 911 488 c 2,16,-1
 911 1121 l 1,17,-1
 1096 1121 l 1,18,-1
 1096 451 l 2,19,20
 1096 289 1096 289 1153 212 c 0,21,22
 1210 134 1210 134 1329 134 c 0,23,24
 1470 134 1470 134 1553 230 c 0,25,26
 1636 325 1636 325 1636 488 c 2,27,-1
 1636 1121 l 1,28,-1
 1821 1121 l 1,29,-1
 1821 -426 l 1,30,-1
 1636 -426 l 1,31,-1
 1636 175 l 1,32,33
 1573 72 1573 72 1485 23 c 128,-1,34
 1397 -26 1397 -26 1276 -26 c 0,35,36
 1154 -26 1154 -26 1068 36 c 0,37,38
 983 98 983 98 942 216 c 1,0,1
EndSplineSet
EndChar
StartChar: uni0271
Encoding: 625 625 625
Width: 1995
Flags: W
AnchorPoint: "below" 1001 -430 basechar 0
AnchorPoint: "above" 1001 1147 basechar 0
Fore
1065 905 m 1,0,1
 1134 1029 1134 1029 1230 1088 c 0,2,3
 1326 1147 1326 1147 1456 1147 c 0,4,5
 1631 1147 1631 1147 1726 1024 c 0,6,7
 1821 902 1821 902 1821 676 c 2,8,-1
 1821 -20 l 2,9,10
 1821 -233.999 1821 -233.999 1739 -330 c 0,11,12
 1658 -426 1658 -426 1477 -426 c 2,13,-1
 1223 -426 l 1,14,-1
 1223 -270 l 1,15,-1
 1456 -270 l 2,16,17
 1561 -270 1561 -270 1599 -222 c 0,18,19
 1637 -173.002 1637 -173.002 1637 -20 c 1,20,21
 1634.69 65.9575 1634.69 65.9575 1636.69 480.41 c 0,22,23
 1637.22 590.006 1637.22 590.006 1636 670 c 0,24,25
 1636 831 1636 831 1579 909 c 0,26,27
 1522 987 1522 987 1405 987 c 0,28,29
 1262 987 1262 987 1179 892 c 0,30,31
 1096 797 1096 797 1096 633 c 2,32,-1
 1096 0 l 1,33,-1
 911 0 l 1,34,-1
 911 670 l 2,35,36
 911 832 911 832 854 910 c 0,37,38
 797.001 987 797.001 987 678 987 c 0,39,40
 537 987 537 987 454 892 c 0,41,42
 371 796.001 371 796.001 371 633 c 2,43,-1
 371 0 l 1,44,-1
 186 0 l 1,45,-1
 186 1120 l 1,46,-1
 371 1120 l 1,47,-1
 371 946 l 1,48,49
 434.001 1049 434.001 1049 522 1098 c 0,50,51
 610.001 1147 610.001 1147 731 1147 c 0,52,53
 853.002 1147 853.002 1147 938 1085 c 0,54,55
 1024 1023 1024 1023 1065 905 c 1,0,1
EndSplineSet
EndChar
StartChar: uni0272
Encoding: 626 626 626
Width: 1323
Flags: W
AnchorPoint: "below" 649 -430 basechar 0
AnchorPoint: "above" 649 1147 basechar 0
Fore
377 -20 m 1,0,1
 377 -234 377 -234 296 -330 c 0,2,3
 214 -426 214 -426 33 -426 c 2,4,-1
 -37 -426 l 1,5,-1
 -37 -270 l 1,6,-1
 12 -270 l 2,7,8
 117 -270 117 -270 155 -222 c 0,9,10
 193 -173 193 -173 193 -20 c 1,11,-1
 193 1120 l 1,12,-1
 378 1120 l 1,13,-1
 378 946 l 1,14,15
 444 1047 444 1047 534 1097 c 0,16,17
 623 1147 623 1147 740 1147 c 0,18,19
 933 1147 933 1147 1032 1028 c 0,20,21
 1131 908 1131 908 1131 676 c 2,22,-1
 1131 0 l 1,23,-1
 947 0 l 1,24,-1
 947 670 l 2,25,26
 947 829 947 829 885 908 c 128,-1,27
 823 987 823 987 699 987 c 0,28,29
 550 987 550 987 464 892 c 128,-1,30
 378 797 378 797 378 633 c 2,31,-1
 377 -20 l 1,0,1
EndSplineSet
EndChar
StartChar: uni0273
Encoding: 627 627 627
Width: 1315
Flags: W
AnchorPoint: "below" 649 -430 basechar 0
AnchorPoint: "above" 649 1147 basechar 0
Fore
940 670 m 2,0,1
 940 829.002 940 829.002 878 908 c 0,2,3
 815.998 987 815.998 987 692 987 c 0,4,5
 543 987 543 987 457 892 c 0,6,7
 371 797 371 797 371 633 c 2,8,-1
 371 0 l 1,9,-1
 186 0 l 1,10,-1
 186 1120 l 1,11,-1
 371 1120 l 1,12,-1
 371 946 l 1,13,14
 436.999 1047 436.999 1047 526 1097 c 0,15,16
 615.998 1147 615.998 1147 733 1147 c 0,17,18
 926.001 1147 926.001 1147 1025 1028 c 0,19,20
 1124 908 1124 908 1124 676 c 2,21,-1
 1124 -20 l 2,22,23
 1124 -173.002 1124 -173.002 1162 -222 c 0,24,25
 1200 -270 1200 -270 1305 -270 c 2,26,-1
 1354 -270 l 1,27,-1
 1354 -426 l 1,28,-1
 1284 -426 l 2,29,30
 1103 -426 1103 -426 1022 -330 c 0,31,32
 940 -233.999 940 -233.999 940 -20 c 2,33,-1
 940 670 l 2,0,1
EndSplineSet
EndChar
StartChar: uni0274
Encoding: 628 628 628
Width: 1298
Flags: W
TeX: 0 0 0 0
AnchorPoint: "below" 649 0 basechar 0
AnchorPoint: "above" 649 1147 basechar 0
Fore
179 1147 m 1,0,-1
 451 1147 l 1,1,-1
 928 244 l 1,2,-1
 928 1147 l 1,3,-1
 1124 1147 l 1,4,-1
 1124 0 l 1,5,-1
 852 0 l 1,6,-1
 375 903 l 1,7,-1
 375 0 l 1,8,-1
 179 0 l 1,9,-1
 179 1147 l 1,0,-1
EndSplineSet
EndChar
StartChar: uni0275
Encoding: 629 629 629
Width: 1253
Flags: W
AnchorPoint: "below" 637 0 basechar 0
AnchorPoint: "above" 637 1147 basechar 0
Fore
627 1147 m 0,0,1
 866.999 1147 866.999 1147 1004 991 c 0,2,3
 1141 835.001 1141 835.001 1141 559 c 0,4,5
 1141 283.999 1141 283.999 1004 128 c 0,6,7
 866.998 -29 866.998 -29 627 -29 c 0,8,9
 386 -29 386 -29 250 128 c 0,10,11
 113 283.999 113 283.999 113 559 c 0,12,13
 113 835.001 113 835.001 250 991 c 0,14,15
 385.999 1147 385.999 1147 627 1147 c 0,0,1
627 991 m 0,16,17
 479.002 991 479.002 991 393 876 c 0,18,19
 318.446 775.44 318.446 775.44 308.523 611 c 1,20,-1
 944.446 611 l 1,21,22
 934.44 773.593 934.44 773.593 860 874 c 0,23,24
 773.999 991 773.999 991 627 991 c 0,16,17
938.325 447 m 1,25,-1
 314.513 447 l 1,26,27
 332.27 323.514 332.27 323.514 392 242 c 0,28,29
 478.002 127 478.002 127 627 127 c 0,30,31
 774 127 774 127 860 243 c 0,32,33
 920.309 324.346 920.309 324.346 938.325 447 c 1,25,-1
EndSplineSet
EndChar
StartChar: uni0276
Encoding: 630 630 630
Width: 1757
Flags: W
TeX: 0 0 0 0
AnchorPoint: "below" 1165 0 basechar 0
AnchorPoint: "above" 1165 1147 basechar 0
Fore
1558 1120 m 1,0,-1
 1558 966 l 1,1,-1
 1002 966 l 1,2,-1
 1002 675 l 1,3,-1
 1535 675 l 1,4,-1
 1535 520 l 1,5,-1
 1002 520 l 1,6,-1
 1002 156 l 1,7,-1
 1572 156 l 1,8,-1
 1572 0 l 1,9,-1
 773 0 l 2,10,11
 448 0 448 0 281 142 c 0,12,13
 113 285 113 285 113 561 c 0,14,15
 113 835 113 835 281 977 c 0,16,17
 448 1120 448 1120 773 1120 c 2,18,-1
 1558 1120 l 1,0,-1
815 990 m 1,19,-1
 778 990 l 2,20,21
 538 990 538 990 418 882 c 0,22,23
 298 775 298 775 298 559 c 0,24,25
 298 342 298 342 418 234 c 0,26,27
 538 125 538 125 778 125 c 2,28,-1
 815 125 l 1,29,-1
 815 990 l 1,19,-1
EndSplineSet
EndChar
StartChar: uni0277
Encoding: 631 631 631
Width: 1491
Flags: W
TeX: 0 0 0 0
AnchorPoint: "below" 745 0 basechar 0
AnchorPoint: "above" 745 1147 basechar 0
Fore
398 780 m 0,0,1
 339 684 339 684 336 664 c 0,2,3
 312 552 312 552 316 486 c 0,4,5
 325 319 325 319 370 256 c 0,6,7
 430 171 430 171 508 171 c 0,8,9
 585 171 585 171 640 250 c 0,10,11
 670 293 670 293 670 478 c 2,12,-1
 670 660 l 1,13,-1
 826 660 l 17,14,-1
 826 478 l 2,15,16
 826 293 826 293 856 250 c 0,17,18
 911 171 911 171 988 171 c 0,19,20
 1063 171 1063 171 1126 256 c 0,21,22
 1162 304 1162 304 1180 486 c 0,23,24
 1175 561 1175 561 1160 664 c 0,25,26
 1157 687 1157 687 1097 780 c 0,27,28
 992 940 992 940 738 940 c 0,29,30
 496 940 496 940 398 780 c 0,0,1
205 780 m 0,32,33
 300 1148 300 1148 748 1147 c 0,34,35
 1168 1145 1168 1145 1286 780 c 8,36,37
 1324 660 1324 660 1328 658 c 0,38,39
 1342 557 1342 557 1342 468 c 0,40,41
 1342 238 1342 238 1255 104 c 128,-1,42
 1168 -30 1168 -30 1021 -30 c 0,43,44
 918 -30 918 -30 847 41 c 128,-1,45
 776 112 776 112 748 243 c 1,46,47
 720 112 720 112 649 41 c 128,-1,48
 578 -30 578 -30 475 -30 c 0,49,50
 328 -30 328 -30 241 104 c 0,51,52
 144 253 144 253 154 468 c 0,53,54
 157 487 157 487 168 658 c 0,55,56
 190 724 190 724 205 780 c 0,32,33
EndSplineSet
EndChar
StartChar: uni0278
Encoding: 632 632 632
Width: 1253
Flags: W
TeX: 0 0 0 0
AnchorPoint: "below" 624 -430 basechar 0
AnchorPoint: "above" 624 1520 basechar 0
Fore
532 1391 m 1,0,-1
 292 1391 l 1,1,-1
 292 1555 l 1,2,-1
 956 1555 l 1,5,-1
 956 1391 l 1,6,-1
 716 1391 l 1,7,-1
 716 1141.16 l 1,8,9
 893.502 1116.82 893.502 1116.82 1004 991 c 0,10,11
 1141 835.001 1141 835.001 1141 559 c 0,12,13
 1141 283.999 1141 283.999 1004 128 c 0,14,15
 893.501 1.37128 893.501 1.37128 716 -23.1247 c 1,16,-1
 716 -261 l 1,17,-1
 956 -261 l 1,18,-1
 956 -425 l 1,19,-1
 292 -425 l 1,22,-1
 292 -261 l 1,23,-1
 532 -261 l 1,24,-1
 532 -22.3133 l 1,25,26
 357.933 3.40106 357.933 3.40106 250 128 c 0,27,28
 113 283.999 113 283.999 113 559 c 0,29,30
 113 835.001 113 835.001 250 991 c 0,31,32
 357.932 1114.81 357.932 1114.81 532 1140.36 c 1,33,-1
 532 1391 l 1,0,-1
716 978.674 m 1,34,-1
 716 139.221 l 1,35,36
 801.914 164.651 801.914 164.651 860 243 c 0,37,38
 946 359 946 359 946 559 c 0,39,40
 946 758 946 758 860 874 c 0,41,42
 801.913 953.024 801.913 953.024 716 978.674 c 1,34,-1
532 140.591 m 1,43,-1
 532 977.23 l 1,44,45
 449.242 951.206 449.242 951.206 393 876 c 0,46,47
 307 760 307 760 307 559 c 0,48,49
 307 358.002 307 358.002 392 242 c 0,50,51
 448.436 166.534 448.436 166.534 532 140.591 c 1,43,-1
EndSplineSet
EndChar
StartChar: uni0279
Encoding: 633 633 633
Width: 961
Flags: W
AnchorPoint: "below" 678 0 basechar 0
AnchorPoint: "above" 676 1147 basechar 0
Fore
113 172 m 1,0,1
 144 154 144 154 180 146 c 0,2,3
 217 137 217 137 261 137 c 0,4,5
 417 137 417 137 500 238 c 0,6,7
 584 340 584 340 584 530 c 2,8,-1
 584 1120 l 1,9,-1
 769 1120 l 1,10,-1
 769 0 l 1,11,-1
 584 0 l 1,12,-1
 584 174 l 1,13,14
 526 72 526 72 433 22 c 0,15,16
 340 -27 340 -27 207 -27 c 0,17,18
 188 -27 188 -27 165 -24 c 0,19,20
 142 -22 142 -22 114 -17 c 1,21,-1
 113 172 l 1,0,1
EndSplineSet
EndChar
StartChar: uni027A
Encoding: 634 634 634
Width: 961
Flags: W
AnchorPoint: "below" 678 0 basechar 0
AnchorPoint: "above" 676 1520 basechar 0
Fore
113 172 m 1,0,1
 144 154 144 154 180 146 c 0,2,3
 217 137 217 137 261 137 c 0,4,5
 420 137 420 137 500 238 c 0,6,7
 584 343 584 343 584 530 c 2,8,-1
 584 1546 l 1,9,-1
 769 1546 l 1,10,-1
 769 0 l 1,11,-1
 584 0 l 1,12,-1
 584 174 l 1,13,14
 526 72 526 72 433 22 c 0,15,16
 340 -27 340 -27 207 -27 c 0,17,18
 188 -27 188 -27 165 -24 c 0,19,20
 142 -22 142 -22 114 -17 c 1,21,-1
 113 172 l 1,0,1
EndSplineSet
EndChar
StartChar: uni027B
Encoding: 635 635 635
Width: 960
Flags: W
AnchorPoint: "below" 678 -430 basechar 0
AnchorPoint: "above" 676 1147 basechar 0
Fore
113 172 m 1,0,1
 143.996 154.002 143.996 154.002 180 146 c 0,2,3
 216.999 137 216.999 137 261 137 c 0,4,5
 417 137 417 137 500 238 c 0,6,7
 584 340 584 340 584 530 c 2,8,-1
 584 1120 l 1,9,-1
 769 1120 l 1,10,-1
 769 -20 l 2,11,12
 769 -173.002 769 -173.002 807 -222 c 0,13,14
 845.001 -270 845.001 -270 950 -270 c 2,15,-1
 999 -270 l 1,16,-1
 999 -426 l 1,17,-1
 929 -426 l 2,18,19
 748 -426 748 -426 667 -330 c 0,20,21
 585 -233.999 585 -233.999 585 -20 c 1,22,23
 584 174 l 1,24,25
 526.002 72.0022 526.002 72.0022 433 22 c 0,26,27
 339.998 -27 339.998 -27 207 -27 c 0,28,29
 188.001 -27 188.001 -27 165 -24 c 0,30,31
 141.978 -21.9972 141.978 -21.9972 114 -17 c 1,32,-1
 113 172 l 1,0,1
EndSplineSet
EndChar
StartChar: uni027C
Encoding: 636 636 636
Width: 961
Flags: W
AnchorPoint: "below" 213 -430 basechar 0
AnchorPoint: "above" 535 1147 basechar 0
Fore
769 948 m 1,0,1
 738 966 738 966 702 974 c 0,2,3
 665 983 665 983 621 983 c 0,4,5
 465 983 465 983 382 882 c 0,6,7
 298 780 298 780 298 590 c 2,8,-1
 298 -426 l 1,9,-1
 113 -426 l 1,10,-1
 113 1120 l 1,11,-1
 298 1120 l 1,12,-1
 298 946 l 1,13,14
 356 1048 356 1048 449 1098 c 0,15,16
 542 1147 542 1147 675 1147 c 0,17,18
 694 1147 694 1147 717 1144 c 0,19,20
 740 1142 740 1142 768 1137 c 1,21,-1
 769 948 l 1,0,1
EndSplineSet
EndChar
StartChar: uni027D
Encoding: 637 637 637
Width: 961
Flags: W
AnchorPoint: "below" 535 -430 basechar 0
AnchorPoint: "above" 535 1147 basechar 0
Fore
769 948 m 1,0,1
 738.004 965.998 738.004 965.998 702 974 c 0,2,3
 665.001 983 665.001 983 621 983 c 0,4,5
 465 983 465 983 382 882 c 0,6,7
 298 780.999 298 780.999 298 590 c 2,8,-1
 298 0 l 1,9,-1
 296 -3.55271e-15 l 1,10,-1
 296 -20 l 2,11,12
 296 -173.002 296 -173.002 334 -222 c 0,13,14
 372.001 -270 372.001 -270 477 -270 c 2,15,-1
 710 -270 l 1,16,-1
 710 -426 l 1,17,-1
 456 -426 l 2,18,19
 275 -426 275 -426 194 -330 c 0,20,21
 112 -233.999 112 -233.999 112 -20 c 1,22,-1
 112 1120 l 1,23,-1
 298 1120 l 1,24,-1
 298 946 l 1,25,26
 355.998 1048 355.998 1048 449 1098 c 0,27,28
 542.002 1147 542.002 1147 675 1147 c 0,29,30
 693.999 1147 693.999 1147 717 1144 c 0,31,32
 740.022 1142 740.022 1142 768 1137 c 1,33,-1
 769 948 l 1,0,1
EndSplineSet
EndChar
StartChar: uni027E
Encoding: 638 638 638
Width: 1086
Flags: W
AnchorPoint: "below" 387 0 basechar 0
AnchorPoint: "above" 624 1147 basechar 0
Fore
296 741 m 2,0,1
 296 1029.58 296 1029.58 453.847 1110.19 c 0,2,3
 525.924 1147 525.924 1147 640 1147 c 2,4,-1
 894 1147 l 1,5,-1
 894 991 l 1,6,-1
 661 991 l 2,7,8
 556 991 556 991 518 943 c 0,9,10
 479 893 479 893 480 741 c 2,11,-1
 481 590 l 1,12,-1
 481 164 l 1,13,-1
 644 164 l 1,14,-1
 644 0 l 1,15,-1
 116 0 l 1,16,-1
 116 164 l 1,17,-1
 296 164 l 1,18,-1
 296 741 l 2,0,1
EndSplineSet
EndChar
StartChar: uni027F
Encoding: 639 639 639
Width: 1086
Flags: W
AnchorPoint: "below" 628 0 basechar 0
AnchorPoint: "above" 386 1147 basechar 0
Fore
714 741 m 2,0,-1
 714 164 l 1,1,-1
 894 164 l 1,2,-1
 894 0 l 1,3,-1
 366 0 l 1,4,-1
 366 164 l 1,5,-1
 529 164 l 1,6,-1
 529 590 l 1,7,-1
 530 741 l 2,8,9
 531 893 531 893 492 943 c 0,10,11
 454 991 454 991 349 991 c 2,12,-1
 116 991 l 1,13,-1
 116 1147 l 1,14,-1
 370 1147 l 2,15,16
 484.076 1147 484.076 1147 556.153 1110.19 c 0,17,18
 714 1029.58 714 1029.58 714 741 c 2,0,-1
EndSplineSet
EndChar
StartChar: uni0280
Encoding: 640 640 640
Width: 1232
Flags: W
AnchorPoint: "below" 435 0 basechar 0
AnchorPoint: "above" 435 1147 basechar 0
Fore
652 525 m 1,0,1
 707 508 707 508 760 454 c 0,2,3
 812 400 812 400 865 306 c 1,4,-1
 1039 0 l 1,5,-1
 844 0 l 1,6,-1
 682 287 l 1,7,8
 619 400 619 400 560 436 c 0,9,10
 501 473 501 473 404 473 c 2,11,-1
 235 473 l 1,12,-1
 235 0 l 1,13,-1
 50 0 l 1,14,-1
 50 1120 l 1,15,-1
 438 1120 l 2,16,17
 655 1120 655 1120 763 1040 c 0,18,19
 870 959 870 959 870 797 c 0,20,21
 870 692 870 692 814 622 c 128,-1,22
 758 552 758 552 652 525 c 1,0,1
235 965 m 1,23,-1
 235 628 l 1,24,-1
 433 628 l 2,25,26
 552 628 552 628 615 671 c 0,27,28
 679 714 679 714 679 797 c 0,29,30
 679 881 679 881 615 923 c 0,31,32
 552 965 552 965 433 965 c 2,33,-1
 235 965 l 1,23,-1
EndSplineSet
EndChar
StartChar: uni0281
Encoding: 641 641 641
Width: 1232
Flags: W
AnchorPoint: "below" 457 0 basechar 0
AnchorPoint: "above" 457 1147 basechar 0
Fore
652 595 m 1,0,1
 758 568 758 568 814 498 c 128,-1,2
 870 428 870 428 870 323 c 0,3,4
 870 161 870 161 763 80 c 0,5,6
 655 0 655 0 438 0 c 2,7,-1
 50 0 l 1,8,-1
 50 1120 l 1,9,-1
 235 1120 l 1,10,-1
 235 647 l 1,11,-1
 404 647 l 2,12,13
 501 647 501 647 560 684 c 0,14,15
 619 720 619 720 682 833 c 1,16,-1
 844 1120 l 1,17,-1
 1039 1120 l 1,18,-1
 865 814 l 1,19,20
 812 720 812 720 760 666 c 0,21,22
 707 612 707 612 652 595 c 1,0,1
235 155 m 1,23,-1
 433 155 l 2,24,25
 552 155 552 155 615 197 c 0,26,27
 679 239 679 239 679 323 c 0,28,29
 679 406 679 406 615 449 c 0,30,31
 552 492 552 492 433 492 c 2,32,-1
 235 492 l 1,33,-1
 235 155 l 1,23,-1
EndSplineSet
EndChar
StartChar: uni0282
Encoding: 642 642 642
Width: 1067
Flags: W
TeX: 0 0 0 0
AnchorPoint: "below" 551 -430 basechar 0
AnchorPoint: "above" 551 1147 basechar 0
Fore
907 1087 m 1,0,-1
 907 913 l 1,1,2
 829 952.999 829 952.999 745 973 c 0,3,4
 661.004 993 661.004 993 571 993 c 0,5,6
 434.001 993 434.001 993 366 951 c 0,7,8
 297 909 297 909 297 825 c 0,9,10
 297 761 297 761 346 724 c 0,11,12
 394.998 688.001 394.998 688.001 543 655 c 2,13,-1
 606 641 l 2,14,15
 802.003 598.999 802.003 598.999 884 522 c 0,16,17
 967 446.002 967 446.002 967 309 c 0,18,19
 967 152.999 967 152.999 844 62 c 0,20,21
 720 -29 720 -29 504 -29 c 0,22,23
 413.995 -29 413.995 -29 316 -12 c 2,24,-1
 295 -7.92992 l 1,25,-1
 295 -20 l 2,26,27
 295 -173.002 295 -173.002 333 -222 c 0,28,29
 371.001 -270 371.001 -270 476 -270 c 2,30,-1
 709 -270 l 1,31,-1
 709 -426 l 1,32,-1
 455 -426 l 2,33,34
 274 -426 274 -426 193 -330 c 0,35,36
 111 -233.999 111 -233.999 111 -20 c 2,37,-1
 111 41 l 1,38,-1
 111 231 l 1,39,40
 212.992 178.003 212.992 178.003 312 152 c 0,41,42
 411 125 411 125 508 125 c 0,43,44
 638.001 125 638.001 125 708 170 c 0,45,46
 778 214.002 778 214.002 778 295 c 0,47,48
 778 370.002 778 370.002 728 410 c 0,49,50
 676.997 450.002 676.997 450.002 506 487 c 2,51,-1
 442 502 l 1,52,53
 270.997 538.001 270.997 538.001 195 612 c 0,54,55
 119 687.001 119 687.001 119 817 c 0,56,57
 119 974.998 119 974.998 231 1061 c 0,58,59
 342.998 1147 342.998 1147 549 1147 c 0,60,61
 651 1147 651 1147 741 1132 c 0,62,63
 831.002 1117 831.002 1117 907 1087 c 1,0,-1
EndSplineSet
EndChar
StartChar: uni0283
Encoding: 643 643 643
Width: 688
Flags: W
AnchorPoint: "below" 278 -430 basechar 0
AnchorPoint: "above" 278 1520 basechar 0
Fore
193 -20 m 0,0,1
 192 604 192 604 190 1198 c 0,2,3
 190 1379 190 1379 277 1470 c 0,4,5
 358 1556 358 1556 553 1556 c 2,6,-1
 727 1556 l 1,7,-1
 727 1403 l 1,8,-1
 551 1403 l 2,9,10
 452 1403 452 1403 414 1363 c 0,11,12
 375 1323 375 1323 375 1219 c 1,13,-1
 377 -20 l 2,14,15
 377 -234 377 -234 296 -330 c 0,16,17
 214 -426 214 -426 33 -426 c 2,18,-1
 -37 -426 l 1,19,-1
 -37 -270 l 1,20,-1
 12 -270 l 2,21,22
 117 -270 117 -270 155 -222 c 0,23,24
 193 -173 193 -173 193 -20 c 0,0,1
EndSplineSet
EndChar
StartChar: uni0284
Encoding: 644 644 644
Width: 780
Flags: W
AnchorPoint: "below" 372 -430 basechar 0
AnchorPoint: "above" 372 1520 basechar 0
Fore
469.997 452 m 1,0,-1
 469 -20 l 2,1,2
 469 -234 469 -234 387.5 -330 c 0,3,4
 306 -426 306 -426 125 -426 c 2,5,-1
 55 -426 l 1,6,-1
 55 -270 l 1,7,-1
 104 -270 l 2,8,9
 209 -270 209 -270 247 -221.5 c 1,10,11
 260.74 -197.782 l 2,12,13
 284.997 -142.252 284.997 -142.252 284.997 -20 c 2,14,-1
 284.997 452 l 1,15,-1
 104 452 l 1,16,-1
 104 616 l 1,17,-1
 284.997 616 l 1,18,-1
 284.997 977 l 1,19,-1
 108.997 977 l 1,20,-1
 108.997 1120 l 1,21,-1
 284.997 1120 l 1,22,-1
 284.997 1198 l 2,23,24
 284.997 1385 284.997 1385 371.997 1470.5 c 0,25,26
 458.997 1556 458.997 1556 647.997 1556 c 2,27,-1
 821.997 1556 l 1,28,-1
 821.997 1403 l 1,29,-1
 645.997 1403 l 2,30,31
 546.997 1403 546.997 1403 508.497 1363 c 0,32,33
 469.997 1321.93 469.997 1321.93 469.997 1219 c 2,34,-1
 469.997 616 l 1,35,-1
 632 616 l 1,36,-1
 632 452 l 1,37,-1
 469.997 452 l 1,0,-1
EndSplineSet
EndChar
StartChar: uni0285
Encoding: 645 645 645
Width: 945
Flags: W
AnchorPoint: "below" 497 -430 basechar 0
AnchorPoint: "above" 497 1147 basechar 0
Fore
589 -20 m 0,0,1
 589 -173 589 -173 627 -222 c 0,2,3
 665 -270 665 -270 770 -270 c 2,4,-1
 819 -270 l 1,5,-1
 819 -426 l 1,6,-1
 749 -426 l 2,7,8
 568 -426 568 -426 486 -330 c 0,9,10
 404 -233 404 -233 405 -20 c 2,11,-1
 407 788 l 1,12,13
 407 892 407 892 368 932 c 0,14,15
 330 972 330 972 231 972 c 2,16,-1
 55 972 l 1,17,-1
 55 1125 l 1,18,-1
 229 1125 l 2,19,20
 424 1125 424 1125 505 1039 c 0,21,22
 598 942 598 942 592 767 c 0,23,24
 589 678 589 678 589 -20 c 0,0,1
EndSplineSet
EndChar
StartChar: uni0286
Encoding: 646 646 646
Width: 688
Flags: W
TeX: 0 0 0 0
AnchorPoint: "below" 278 -430 basechar 0
AnchorPoint: "above" 278 1520 basechar 0
Fore
180 -154 m 1,0,-1
 1 -154 l 2,1,2
 -118 -154 -118 -154 -115 -205 c 0,3,4
 -111.977 -270 -111.977 -270 12 -270 c 0,5,6
 122 -270 122 -270 155 -222 c 1,7,8
 172.943 -199.163 172.943 -199.163 180 -154 c 1,0,-1
377 -0 m 1,9,-1
 558 0 l 1,10,-1
 558 -155 l 1,11,-1
 367 -155 l 1,12,13
 349.218 -266.139 349.218 -266.139 296 -330 c 0,14,15
 213.5 -426 213.5 -426 33 -426 c 0,16,17
 -270 -426 -270 -426 -270 -210 c 0,18,19
 -270 0 -270 0 0 0 c 2,20,-1
 190 0 l 1,21,-1
 190 1198 l 2,22,23
 190 1378.5 190 1378.5 277 1470 c 0,24,25
 358.474 1556 358.474 1556 553 1556 c 2,26,-1
 727 1556 l 1,27,-1
 727 1403 l 1,28,-1
 551 1403 l 2,29,30
 451.037 1403 451.037 1403 414 1363 c 0,31,32
 375 1322.5 375 1322.5 375 1219 c 1,33,-1
 377 -0 l 1,9,-1
EndSplineSet
EndChar
StartChar: uni0287
Encoding: 647 647 647
Width: 803
Flags: W
AnchorPoint: "below" 526 -430 basechar 0
AnchorPoint: "above" 526 1147 basechar 0
Fore
434 -318 m 1,0,-1
 434 0 l 1,1,-1
 55 0 l 1,2,-1
 55 143 l 1,3,-1
 434 143 l 1,4,-1
 434 751 l 2,5,6
 434 888 434 888 396 927 c 0,7,8
 359 966 359 966 244 966 c 2,9,-1
 55 966 l 1,10,-1
 55 1120 l 1,11,-1
 244 1120 l 2,12,13
 457 1120 457 1120 538 1040 c 0,14,15
 619 961 619 961 619 751 c 2,16,-1
 619 143 l 1,17,-1
 754 143 l 1,18,-1
 754 0 l 1,19,-1
 619 0 l 1,20,-1
 619 -318 l 1,21,-1
 434 -318 l 1,0,-1
EndSplineSet
EndChar
StartChar: uni0288
Encoding: 648 648 648
Width: 803
Flags: W
AnchorPoint: "below" 500 -430 basechar 0
AnchorPoint: "above" 282 1520 basechar 0
Fore
375 1438 m 1,0,-1
 375 1120 l 1,1,-1
 754 1120 l 1,2,-1
 754 977 l 1,3,-1
 375 977 l 1,4,-1
 375 -56 l 2,5,6
 375 -193 375 -193 412 -232 c 0,7,8
 450 -271 450 -271 565 -271 c 2,9,-1
 754 -271 l 1,10,-1
 754 -425 l 1,11,-1
 565 -425 l 2,12,13
 352 -425 352 -425 271 -346 c 128,-1,14
 190 -267 190 -267 190 -56 c 2,15,-1
 190 977 l 1,16,-1
 55 977 l 1,17,-1
 55 1120 l 1,18,-1
 190 1120 l 1,19,-1
 190 1438 l 1,20,-1
 375 1438 l 1,0,-1
EndSplineSet
EndChar
StartChar: uni0289
Encoding: 649 649 649
Width: 1298
Flags: W
AnchorPoint: "below" 637 0 basechar 0
AnchorPoint: "above" 637 1147 basechar 0
Fore
0 452 m 1,0,-1
 0 616 l 1,1,-1
 174 616 l 1,2,-1
 174 1120 l 1,3,-1
 358 1120 l 1,4,-1
 358 616 l 1,5,-1
 928 616 l 1,6,-1
 928 1120 l 1,7,-1
 1112 1120 l 1,8,-1
 1112 616 l 1,9,-1
 1298 616 l 1,10,-1
 1298 452 l 1,11,-1
 1112 452 l 1,12,-1
 1112 0 l 1,13,-1
 928 0 l 1,14,-1
 928 172 l 1,15,16
 861.002 70.0015 861.002 70.0015 772 20 c 0,17,18
 683.999 -29 683.999 -29 567 -29 c 0,19,20
 373.999 -29 373.999 -29 274 91 c 0,21,22
 174 211.001 174 211.001 174 442 c 2,23,-1
 174 452 l 1,24,-1
 0 452 l 1,0,-1
927.091 452 m 1,25,-1
 358 452 l 1,26,-1
 358 449 l 2,27,28
 358 290 358 290 420 210 c 0,29,30
 482.002 131 482.002 131 606 131 c 0,31,32
 755.001 131 755.001 131 842 226 c 0,33,34
 919.156 311.231 919.156 311.231 927.091 452 c 1,25,-1
EndSplineSet
EndChar
StartChar: uni028A
Encoding: 650 650 650
Width: 1265
Flags: W
TeX: 0 0 0 0
AnchorPoint: "below" 637 0 basechar 0
AnchorPoint: "above" 637 1147 basechar 0
Fore
113 956 m 1,0,-1
 113 1120 l 1,1,-1
 555 1120 l 1,2,-1
 555 900 l 1,3,4
 446 831 446 831 383 726 c 0,5,6
 317 615 317 615 317 480 c 0,7,8
 317 321 317 321 405 224 c 128,-1,9
 493 127 493 127 637 127 c 128,-1,10
 781 127 781 127 869 224 c 0,11,12
 957 322 957 322 957 480 c 0,13,14
 957 626 957 626 891 726 c 0,15,16
 820 837 820 837 720 900 c 1,17,-1
 720 1120 l 1,18,-1
 1156 1120 l 1,19,-1
 1156 956 l 1,20,-1
 920 956 l 1,21,22
 1034 856 1034 856 1090 743 c 0,23,24
 1144 633 1144 633 1144 497 c 0,25,26
 1144 262 1144 262 1002 116 c 128,-1,27
 860 -30 860 -30 635 -30 c 128,-1,28
 410 -30 410 -30 268 115 c 0,29,30
 126 261 126 261 126 489 c 0,31,32
 126 636 126 636 178 743 c 0,33,34
 231 852 231 852 350 956 c 1,35,-1
 113 956 l 1,0,-1
EndSplineSet
EndChar
StartChar: uni028B
Encoding: 651 651 651
Width: 1225
Flags: W
TeX: 0 0 0 0
AnchorPoint: "below" 637 0 basechar 0
AnchorPoint: "above" 637 1147 basechar 0
Fore
570 986 m 0,0,-1
 892 986 l 1,1,-1
 892 986 l 1,2,3
 1006 886 1006 886 1062 773 c 0,4,5
 1116 663 1116 663 1116 527 c 0,6,7
 1116 292 1116 292 974 146 c 128,-1,8
 832 0 832 0 607 0 c 0,9,-1
 537 0 l 2,10,11
 356 0 356 0 274 96 c 0,12,13
 193 192 193 192 193 406 c 2,14,-1
 193 1120 l 1,15,-1
 377 1120 l 1,16,-1
 377 406 l 2,17,18
 377 253 377 253 415 204 c 0,19,20
 455 154 455 154 558 156 c 2,21,-1
 609 157 l 0,22,23
 753 157 753 157 841 254 c 0,24,25
 929 352 929 352 929 510 c 0,26,27
 929 656 929 656 863 756 c 0,28,29
 784 875 784 875 692 930 c 16,30,31
 616 974 616 974 570 986 c 0,0,-1
EndSplineSet
EndChar
StartChar: uni028C
Encoding: 652 652 652
Width: 1212
Flags: W
AnchorPoint: "below" 606 0 basechar 0
AnchorPoint: "above" 606 1147 basechar 0
Fore
1151 0 m 1,0,-1
 956 0 l 1,1,-1
 606 940 l 1,2,-1
 256 0 l 1,3,-1
 61 0 l 1,4,-1
 481 1120 l 1,5,-1
 731 1120 l 1,6,-1
 1151 0 l 1,0,-1
EndSplineSet
EndChar
StartChar: uni028D
Encoding: 653 653 653
Width: 1675
Flags: W
AnchorPoint: "below" 839 0 basechar 0
AnchorPoint: "above" 839 1154 basechar 0
Fore
1589 0 m 1,0,-1
 1405 0 l 1,1,-1
 1175 874 l 1,2,-1
 946 0 l 1,3,-1
 729 0 l 1,4,-1
 499 874 l 1,5,-1
 270 0 l 1,6,-1
 86 0 l 1,7,-1
 379 1120 l 1,8,-1
 596 1120 l 1,9,-1
 837 202 l 1,10,-1
 1079 1120 l 1,11,-1
 1296 1120 l 1,12,-1
 1589 0 l 1,0,-1
EndSplineSet
EndChar
StartChar: uni028E
Encoding: 654 654 654
Width: 1212
Flags: W
AnchorPoint: "below" 606 0 basechar 0
AnchorPoint: "above" 606 1520 basechar 0
Fore
553 1224 m 1,0,1
 631 1424 631 1424 705 1485 c 128,-1,2
 779 1546 779 1546 903 1546 c 2,3,-1
 1050 1546 l 1,4,-1
 1050 1392 l 1,5,-1
 942 1392 l 2,6,7
 866 1392 866 1392 824 1356 c 128,-1,8
 782 1320 782 1320 731 1186 c 1,9,-1
 698 1102 l 1,10,-1
 1151 0 l 1,11,-1
 956 0 l 1,12,-1
 606 876 l 1,13,-1
 256 0 l 1,14,-1
 61 0 l 1,15,-1
 553 1224 l 1,0,1
EndSplineSet
EndChar
StartChar: uni028F
Encoding: 655 655 655
Width: 1251
Flags: W
TeX: 0 0 0 0
AnchorPoint: "below" 612 0 basechar 0
AnchorPoint: "above" 612 1154 basechar 0
Fore
102 1149 m 1,0,-1
 319 1149 l 1,1,-1
 612 693 l 1,2,-1
 914 1149 l 1,3,-1
 1131 1149 l 1,4,-1
 712 525 l 1,5,-1
 712 0 l 1,6,-1
 509 0 l 1,7,-1
 509 525 l 1,8,-1
 102 1149 l 1,0,-1
EndSplineSet
EndChar
StartChar: uni0290
Encoding: 656 656 656
Width: 1075
Flags: W
TeX: 0 0 0 0
AnchorPoint: "below" 535 -430 basechar 0
AnchorPoint: "above" 535 1147 basechar 0
Fore
113 1120 m 1,0,-1
 987 1120 l 1,1,-1
 987 952 l 1,2,-1
 295 147 l 1,3,-1
 987 147 l 1,4,-1
 987 0 l 1,5,-1
 985 -3.55271e-15 l 1,6,-1
 985 -20 l 2,7,8
 985 -173.002 985 -173.002 1023 -222 c 0,9,10
 1061 -270 1061 -270 1166 -270 c 2,11,-1
 1215 -270 l 1,12,-1
 1215 -426 l 1,13,-1
 1145 -426 l 2,14,15
 964 -426 964 -426 883 -330 c 0,16,17
 801 -233.999 801 -233.999 801 -20 c 2,18,-1
 801 5.55112e-16 l 1,19,-1
 88 0 l 1,20,-1
 88 168 l 1,21,-1
 780 973 l 1,22,-1
 113 973 l 1,23,-1
 113 1120 l 1,0,-1
EndSplineSet
EndChar
